<svg version="1.1" viewBox="0.0 0.0 827.0 464.0" fill="none" stroke="none" stroke-linecap="square" stroke-miterlimit="10" width="827" height="464" xmlns:xlink="http://www.w3.org/1999/xlink" xmlns="http://www.w3.org/2000/svg"><path fill="#ffffff" d="M0 0L827.0 0L827.0 464.0L0 464.0L0 0Z" fill-rule="nonzero"/><path stroke="#cccccc" stroke-width="1.0" stroke-linecap="butt" d="M123.5 30.5L123.5 388.5" fill-rule="nonzero"/><path stroke="#cccccc" stroke-width="1.0" stroke-linecap="butt" d="M239.5 30.5L239.5 388.5" fill-rule="nonzero"/><path stroke="#cccccc" stroke-width="1.0" stroke-linecap="butt" d="M355.5 30.5L355.5 388.5" fill-rule="nonzero"/><path stroke="#cccccc" stroke-width="1.0" stroke-linecap="butt" d="M471.5 30.5L471.5 388.5" fill-rule="nonzero"/><path stroke="#cccccc" stroke-width="1.0" stroke-linecap="butt" d="M587.5 30.5L587.5 388.5" fill-rule="nonzero"/><path stroke="#cccccc" stroke-width="1.0" stroke-linecap="butt" d="M703.5 30.5L703.5 388.5" fill-rule="nonzero"/><path stroke="#e6e6e6" stroke-width="1.0" stroke-linecap="butt" d="M100.5 30.5L100.5 388.5" fill-rule="nonzero"/><path stroke="#e6e6e6" stroke-width="1.0" stroke-linecap="butt" d="M147.5 30.5L147.5 388.5" fill-rule="nonzero"/><path stroke="#e6e6e6" stroke-width="1.0" stroke-linecap="butt" d="M170.5 30.5L170.5 388.5" fill-rule="nonzero"/><path stroke="#e6e6e6" stroke-width="1.0" stroke-linecap="butt" d="M193.5 30.5L193.5 388.5" fill-rule="nonzero"/><path stroke="#e6e6e6" stroke-width="1.0" stroke-linecap="butt" d="M216.5 30.5L216.5 388.5" fill-rule="nonzero"/><path stroke="#e6e6e6" stroke-width="1.0" stroke-linecap="butt" d="M263.5 30.5L263.5 388.5" fill-rule="nonzero"/><path stroke="#e6e6e6" stroke-width="1.0" stroke-linecap="butt" d="M286.5 30.5L286.5 388.5" fill-rule="nonzero"/><path stroke="#e6e6e6" stroke-width="1.0" stroke-linecap="butt" d="M309.5 30.5L309.5 388.5" fill-rule="nonzero"/><path stroke="#e6e6e6" stroke-width="1.0" stroke-linecap="butt" d="M332.5 30.5L332.5 388.5" fill-rule="nonzero"/><path stroke="#e6e6e6" stroke-width="1.0" stroke-linecap="butt" d="M378.5 30.5L378.5 388.5" fill-rule="nonzero"/><path stroke="#e6e6e6" stroke-width="1.0" stroke-linecap="butt" d="M402.5 30.5L402.5 388.5" fill-rule="nonzero"/><path stroke="#e6e6e6" stroke-width="1.0" stroke-linecap="butt" d="M425.5 30.5L425.5 388.5" fill-rule="nonzero"/><path stroke="#e6e6e6" stroke-width="1.0" stroke-linecap="butt" d="M448.5 30.5L448.5 388.5" fill-rule="nonzero"/><path stroke="#e6e6e6" stroke-width="1.0" stroke-linecap="butt" d="M494.5 30.5L494.5 388.5" fill-rule="nonzero"/><path stroke="#e6e6e6" stroke-width="1.0" stroke-linecap="butt" d="M517.5 30.5L517.5 388.5" fill-rule="nonzero"/><path stroke="#e6e6e6" stroke-width="1.0" stroke-linecap="butt" d="M541.5 30.5L541.5 388.5" fill-rule="nonzero"/><path stroke="#e6e6e6" stroke-width="1.0" stroke-linecap="butt" d="M564.5 30.5L564.5 388.5" fill-rule="nonzero"/><path stroke="#e6e6e6" stroke-width="1.0" stroke-linecap="butt" d="M610.5 30.5L610.5 388.5" fill-rule="nonzero"/><path stroke="#e6e6e6" stroke-width="1.0" stroke-linecap="butt" d="M633.5 30.5L633.5 388.5" fill-rule="nonzero"/><path stroke="#e6e6e6" stroke-width="1.0" stroke-linecap="butt" d="M657.5 30.5L657.5 388.5" fill-rule="nonzero"/><path stroke="#e6e6e6" stroke-width="1.0" stroke-linecap="butt" d="M680.5 30.5L680.5 388.5" fill-rule="nonzero"/><path stroke="#e6e6e6" stroke-width="1.0" stroke-linecap="butt" d="M726.5 30.5L726.5 388.5" fill-rule="nonzero"/><path stroke="#e6e6e6" stroke-width="1.0" stroke-linecap="butt" d="M749.5 30.5L749.5 388.5" fill-rule="nonzero"/><path stroke="#e6e6e6" stroke-width="1.0" stroke-linecap="butt" d="M772.5 30.5L772.5 388.5" fill-rule="nonzero"/><path stroke="#e6e6e6" stroke-width="1.0" stroke-linecap="butt" d="M796.5 30.5L796.5 388.5" fill-rule="nonzero"/><path stroke="#333333" stroke-width="1.0" stroke-linecap="butt" d="M89.5 388.5L803.5 388.5" fill-rule="nonzero"/><path stroke="#cccccc" stroke-width="1.0" stroke-linecap="butt" d="M89.5 317.5L803.5 317.5" fill-rule="nonzero"/><path stroke="#cccccc" stroke-width="1.0" stroke-linecap="butt" d="M89.5 245.5L803.5 245.5" fill-rule="nonzero"/><path stroke="#cccccc" stroke-width="1.0" stroke-linecap="butt" d="M89.5 173.5L803.5 173.5" fill-rule="nonzero"/><path stroke="#cccccc" stroke-width="1.0" stroke-linecap="butt" d="M89.5 101.5L803.5 101.5" fill-rule="nonzero"/><path stroke="#cccccc" stroke-width="1.0" stroke-linecap="butt" d="M89.5 30.5L803.5 30.5" fill-rule="nonzero"/><clipPath id="id_0"><path d="M89.2 30.2L803.8 30.2L803.8 388.8L89.2 388.8L89.2 30.2Z" clip-rule="nonzero"/></clipPath><path stroke="#93c47d" stroke-width="4.0" stroke-linecap="butt" clip-path="url(#id_0)" d="M89.2 194.86913C89.2 194.86913 102.06816 176.19102 108.502235 170.19743C114.93632 164.20386 123.952354 159.05666 131.67741 156.64236C139.40247 154.22807 147.18425 156.07999 154.8951 155.71C162.60593 155.34001 170.31676 152.55817 178.02759 154.41904C185.73842 156.2799 193.47787 164.61525 201.20294 166.89832C208.928 169.1814 216.65306 164.91956 224.37811 168.11755C232.10318 171.31557 240.5199 180.22047 247.5958 186.11928C254.67169 192.0181 261.7476 200.75444 268.8235 205.05336C275.89938 209.35228 286.1786 212.41164 293.90363 213.15771C301.6287 213.90381 309.35376 213.15312 317.07883 210.14548C324.80386 207.13783 332.58566 196.24649 340.29648 195.08427C348.00732 193.92206 355.71817 196.26591 363.429 203.11691C371.13983 209.96793 378.87927 226.37814 386.60434 236.25156C394.3294 246.12497 402.05444 258.57935 409.7795 262.35764C417.50458 266.13596 425.28635 260.84943 432.9972 258.91507C440.70804 256.98074 448.41885 251.60057 456.1297 250.739C463.8405 249.87743 471.58 252.5081 479.30505 253.75124C487.0301 254.99438 494.75516 257.91016 502.48022 258.19788C510.2053 258.4856 517.98706 256.00876 525.6979 255.47252C533.40875 254.93628 541.11957 255.31664 548.8304 254.97047C556.5412 254.62431 564.2807 253.33287 572.00574 253.39264C579.7308 253.45241 587.4559 257.44037 595.1809 255.32909C602.906 253.2178 610.68774 243.94057 618.3986 240.6982C626.10944 237.45584 633.82025 238.43568 641.53107 235.82124C649.24194 233.2068 656.9814 229.39034 664.7064 224.99152C672.4315 220.59271 680.15656 215.47034 687.8816 209.42828C695.6067 203.38622 703.3885 187.1585 711.0993 188.7012C718.8101 190.2439 726.52094 215.69994 734.2318 218.60844C741.9426 221.51695 749.68207 226.12708 757.40717 206.12917C765.1322 186.13126 780.58234 98.62088 780.58234 98.62088" fill-rule="nonzero"/><path fill="#000000" fill-opacity="0.0" clip-path="url(#id_0)" d="M92.2 194.86913C92.2 196.52597 90.85686 197.86913 89.2 197.86913C87.543144 197.86913 86.2 196.52597 86.2 194.86913C86.2 193.21227 87.543144 191.86913 89.2 191.86913C90.85686 191.86913 92.2 193.21227 92.2 194.86913Z" fill-rule="nonzero"/><path fill="#000000" fill-opacity="0.0" clip-path="url(#id_0)" d="M111.502235 170.19743C111.502235 171.8543 110.15909 173.19743 108.502235 173.19743C106.84538 173.19743 105.502235 171.8543 105.502235 170.19743C105.502235 168.54059 106.84538 167.19743 108.502235 167.19743C110.15909 167.19743 111.502235 168.54059 111.502235 170.19743Z" fill-rule="nonzero"/><path fill="#000000" fill-opacity="0.0" clip-path="url(#id_0)" d="M134.67741 156.64236C134.67741 158.29921 133.33427 159.64236 131.67741 159.64236C130.02055 159.64236 128.67741 158.29921 128.67741 156.64236C128.67741 154.9855 130.02055 153.64236 131.67741 153.64236C133.33427 153.64236 134.67741 154.9855 134.67741 156.64236Z" fill-rule="nonzero"/><path fill="#000000" fill-opacity="0.0" clip-path="url(#id_0)" d="M157.8951 155.71C157.8951 157.36685 156.55194 158.71 154.8951 158.71C153.23824 158.71 151.8951 157.36685 151.8951 155.71C151.8951 154.05315 153.23824 152.71 154.8951 152.71C156.55194 152.71 157.8951 154.05315 157.8951 155.71Z" fill-rule="nonzero"/><path fill="#000000" fill-opacity="0.0" clip-path="url(#id_0)" d="M181.02759 154.41904C181.02759 156.0759 179.68445 157.41904 178.02759 157.41904C176.37074 157.41904 175.02759 156.0759 175.02759 154.41904C175.02759 152.76219 176.37074 151.41904 178.02759 151.41904C179.68445 151.41904 181.02759 152.76219 181.02759 154.41904Z" fill-rule="nonzero"/><path fill="#000000" fill-opacity="0.0" clip-path="url(#id_0)" d="M204.20294 166.89832C204.20294 168.55518 202.85979 169.89832 201.20294 169.89832C199.54608 169.89832 198.20294 168.55518 198.20294 166.89832C198.20294 165.24147 199.54608 163.89832 201.20294 163.89832C202.85979 163.89832 204.20294 165.24147 204.20294 166.89832Z" fill-rule="nonzero"/><path fill="#000000" fill-opacity="0.0" clip-path="url(#id_0)" d="M227.37811 168.11755C227.37811 169.77441 226.03497 171.11755 224.37811 171.11755C222.72125 171.11755 221.37811 169.77441 221.37811 168.11755C221.37811 166.46071 222.72125 165.11755 224.37811 165.11755C226.03497 165.11755 227.37811 166.46071 227.37811 168.11755Z" fill-rule="nonzero"/><path fill="#000000" fill-opacity="0.0" clip-path="url(#id_0)" d="M250.5958 186.11928C250.5958 187.77614 249.25264 189.11928 247.5958 189.11928C245.93893 189.11928 244.5958 187.77614 244.5958 186.11928C244.5958 184.46243 245.93893 183.11928 247.5958 183.11928C249.25264 183.11928 250.5958 184.46243 250.5958 186.11928Z" fill-rule="nonzero"/><path fill="#000000" fill-opacity="0.0" clip-path="url(#id_0)" d="M271.8235 205.05336C271.8235 206.71022 270.48035 208.05336 268.8235 208.05336C267.16663 208.05336 265.8235 206.71022 265.8235 205.05336C265.8235 203.3965 267.16663 202.05336 268.8235 202.05336C270.48035 202.05336 271.8235 203.3965 271.8235 205.05336Z" fill-rule="nonzero"/><path fill="#000000" fill-opacity="0.0" clip-path="url(#id_0)" d="M296.90363 213.15771C296.90363 214.81458 295.5605 216.15771 293.90363 216.15771C292.2468 216.15771 290.90363 214.81458 290.90363 213.15771C290.90363 211.50087 292.2468 210.15771 293.90363 210.15771C295.5605 210.15771 296.90363 211.50087 296.90363 213.15771Z" fill-rule="nonzero"/><path fill="#000000" fill-opacity="0.0" clip-path="url(#id_0)" d="M320.07883 210.14548C320.07883 211.80234 318.73566 213.14548 317.07883 213.14548C315.42197 213.14548 314.07883 211.80234 314.07883 210.14548C314.07883 208.48863 315.42197 207.14548 317.07883 207.14548C318.73566 207.14548 320.07883 208.48863 320.07883 210.14548Z" fill-rule="nonzero"/><path fill="#000000" fill-opacity="0.0" clip-path="url(#id_0)" d="M343.29648 195.08427C343.29648 196.74113 341.95334 198.08427 340.29648 198.08427C338.63965 198.08427 337.29648 196.74113 337.29648 195.08427C337.29648 193.42743 338.63965 192.08427 340.29648 192.08427C341.95334 192.08427 343.29648 193.42743 343.29648 195.08427Z" fill-rule="nonzero"/><path fill="#000000" fill-opacity="0.0" clip-path="url(#id_0)" d="M366.429 203.11691C366.429 204.77377 365.08585 206.11691 363.429 206.11691C361.77213 206.11691 360.429 204.77377 360.429 203.11691C360.429 201.46007 361.77213 200.11691 363.429 200.11691C365.08585 200.11691 366.429 201.46007 366.429 203.11691Z" fill-rule="nonzero"/><path fill="#000000" fill-opacity="0.0" clip-path="url(#id_0)" d="M389.60434 236.25156C389.60434 237.90842 388.2612 239.25156 386.60434 239.25156C384.94748 239.25156 383.60434 237.90842 383.60434 236.25156C383.60434 234.59471 384.94748 233.25156 386.60434 233.25156C388.2612 233.25156 389.60434 234.59471 389.60434 236.25156Z" fill-rule="nonzero"/><path fill="#000000" fill-opacity="0.0" clip-path="url(#id_0)" d="M412.7795 262.35764C412.7795 264.0145 411.43637 265.35764 409.7795 265.35764C408.12265 265.35764 406.7795 264.0145 406.7795 262.35764C406.7795 260.70078 408.12265 259.35764 409.7795 259.35764C411.43637 259.35764 412.7795 260.70078 412.7795 262.35764Z" fill-rule="nonzero"/><path fill="#000000" fill-opacity="0.0" clip-path="url(#id_0)" d="M435.9972 258.91507C435.9972 260.57193 434.65405 261.91507 432.9972 261.91507C431.34033 261.91507 429.9972 260.57193 429.9972 258.91507C429.9972 257.25824 431.34033 255.91508 432.9972 255.91508C434.65405 255.91508 435.9972 257.25824 435.9972 258.91507Z" fill-rule="nonzero"/><path fill="#000000" fill-opacity="0.0" clip-path="url(#id_0)" d="M459.1297 250.739C459.1297 252.39586 457.78656 253.739 456.1297 253.739C454.47284 253.739 453.1297 252.39586 453.1297 250.739C453.1297 249.08215 454.47284 247.739 456.1297 247.739C457.78656 247.739 459.1297 249.08215 459.1297 250.739Z" fill-rule="nonzero"/><path fill="#000000" fill-opacity="0.0" clip-path="url(#id_0)" d="M482.30505 253.75124C482.30505 255.4081 480.96188 256.75125 479.30505 256.75125C477.6482 256.75125 476.30505 255.4081 476.30505 253.75124C476.30505 252.09439 477.6482 250.75124 479.30505 250.75124C480.96188 250.75124 482.30505 252.09439 482.30505 253.75124Z" fill-rule="nonzero"/><path fill="#000000" fill-opacity="0.0" clip-path="url(#id_0)" d="M505.48022 258.19788C505.48022 259.85474 504.1371 261.19788 502.48022 261.19788C500.82336 261.19788 499.48022 259.85474 499.48022 258.19788C499.48022 256.54102 500.82336 255.19788 502.48022 255.19788C504.1371 255.19788 505.48022 256.54102 505.48022 258.19788Z" fill-rule="nonzero"/><path fill="#000000" fill-opacity="0.0" clip-path="url(#id_0)" d="M528.6979 255.47252C528.6979 257.12936 527.35474 258.47253 525.6979 258.47253C524.041 258.47253 522.6979 257.12936 522.6979 255.47252C522.6979 253.81566 524.041 252.47252 525.6979 252.47252C527.35474 252.47252 528.6979 253.81566 528.6979 255.47252Z" fill-rule="nonzero"/><path fill="#000000" fill-opacity="0.0" clip-path="url(#id_0)" d="M551.8304 254.97047C551.8304 256.62732 550.48724 257.9705 548.8304 257.9705C547.1735 257.9705 545.8304 256.62732 545.8304 254.97047C545.8304 253.31363 547.1735 251.97047 548.8304 251.97047C550.48724 251.97047 551.8304 253.31363 551.8304 254.97047Z" fill-rule="nonzero"/><path fill="#000000" fill-opacity="0.0" clip-path="url(#id_0)" d="M575.00574 253.39264C575.00574 255.0495 573.6626 256.39264 572.00574 256.39264C570.3489 256.39264 569.00574 255.0495 569.00574 253.39264C569.00574 251.73578 570.3489 250.39264 572.00574 250.39264C573.6626 250.39264 575.00574 251.73578 575.00574 253.39264Z" fill-rule="nonzero"/><path fill="#000000" fill-opacity="0.0" clip-path="url(#id_0)" d="M598.1809 255.32909C598.1809 256.98593 596.83777 258.32907 595.1809 258.32907C593.52405 258.32907 592.1809 256.98593 592.1809 255.32909C592.1809 253.67223 593.52405 252.32909 595.1809 252.32909C596.83777 252.32909 598.1809 253.67223 598.1809 255.32909Z" fill-rule="nonzero"/><path fill="#000000" fill-opacity="0.0" clip-path="url(#id_0)" d="M621.3986 240.6982C621.3986 242.35506 620.0555 243.6982 618.3986 243.6982C616.74176 243.6982 615.3986 242.35506 615.3986 240.6982C615.3986 239.04135 616.74176 237.6982 618.3986 237.6982C620.0555 237.6982 621.3986 239.04135 621.3986 240.6982Z" fill-rule="nonzero"/><path fill="#000000" fill-opacity="0.0" clip-path="url(#id_0)" d="M644.53107 235.82124C644.53107 237.47809 643.1879 238.82124 641.53107 238.82124C639.87427 238.82124 638.53107 237.47809 638.53107 235.82124C638.53107 234.16438 639.87427 232.82124 641.53107 232.82124C643.1879 232.82124 644.53107 234.16438 644.53107 235.82124Z" fill-rule="nonzero"/><path fill="#000000" fill-opacity="0.0" clip-path="url(#id_0)" d="M667.7064 224.99152C667.7064 226.64838 666.3633 227.99152 664.7064 227.99152C663.0496 227.99152 661.7064 226.64838 661.7064 224.99152C661.7064 223.33467 663.0496 221.99152 664.7064 221.99152C666.3633 221.99152 667.7064 223.33467 667.7064 224.99152Z" fill-rule="nonzero"/><path fill="#000000" fill-opacity="0.0" clip-path="url(#id_0)" d="M690.8816 209.42828C690.8816 211.08513 689.53845 212.42828 687.8816 212.42828C686.2248 212.42828 684.8816 211.08513 684.8816 209.42828C684.8816 207.77142 686.2248 206.42828 687.8816 206.42828C689.53845 206.42828 690.8816 207.77142 690.8816 209.42828Z" fill-rule="nonzero"/><path fill="#000000" fill-opacity="0.0" clip-path="url(#id_0)" d="M714.0993 188.7012C714.0993 190.35805 712.75616 191.7012 711.0993 191.7012C709.44244 191.7012 708.0993 190.35805 708.0993 188.7012C708.0993 187.04434 709.44244 185.7012 711.0993 185.7012C712.75616 185.7012 714.0993 187.04434 714.0993 188.7012Z" fill-rule="nonzero"/><path fill="#000000" fill-opacity="0.0" clip-path="url(#id_0)" d="M737.2318 218.60844C737.2318 220.26529 735.8887 221.60844 734.2318 221.60844C732.57495 221.60844 731.2318 220.26529 731.2318 218.60844C731.2318 216.95158 732.57495 215.60844 734.2318 215.60844C735.8887 215.60844 737.2318 216.95158 737.2318 218.60844Z" fill-rule="nonzero"/><path fill="#000000" fill-opacity="0.0" clip-path="url(#id_0)" d="M760.40717 206.12917C760.40717 207.78601 759.064 209.12917 757.40717 209.12917C755.7503 209.12917 754.40717 207.78601 754.40717 206.12917C754.40717 204.4723 755.7503 203.12917 757.40717 203.12917C759.064 203.12917 760.40717 204.4723 760.40717 206.12917Z" fill-rule="nonzero"/><path fill="#000000" fill-opacity="0.0" clip-path="url(#id_0)" d="M783.58234 98.62088C783.58234 100.27773 782.2392 101.62088 780.58234 101.62088C778.9255 101.62088 777.58234 100.27773 777.58234 98.62088C777.58234 96.96403 778.9255 95.62088 780.58234 95.62088C782.2392 95.62088 783.58234 96.96403 783.58234 98.62088Z" fill-rule="nonzero"/><path fill="#000000" d="M437.34375 437.8L437.34375 434.15936L434.03125 429.20624L435.42188 429.20624L437.10938 431.8Q437.57812 432.51874 437.98438 433.2531Q438.375 432.58124 438.92188 431.7375L440.59375 429.20624L441.90625 429.20624L438.48438 434.15936L438.48438 437.8L437.34375 437.8ZM446.04688 435.8L447.14062 435.925Q446.89062 436.8781 446.1875 437.40936Q445.48438 437.9406 444.40625 437.9406Q443.04688 437.9406 442.23438 437.09686Q441.4375 436.2531 441.4375 434.7375Q441.4375 433.175 442.25 432.3156Q443.0625 431.4406 444.34375 431.4406Q445.59375 431.4406 446.375 432.28436Q447.17188 433.1281 447.17188 434.675Q447.17188 434.76874 447.17188 434.95624L442.53125 434.95624Q442.59375 435.9875 443.10938 436.53436Q443.625 437.0656 444.40625 437.0656Q444.98438 437.0656 445.39062 436.76874Q445.8125 436.45624 446.04688 435.8ZM442.59375 434.09686L446.0625 434.09686Q446.0 433.3 445.67188 432.90936Q445.15625 432.3 444.35938 432.3Q443.625 432.3 443.125 432.78436Q442.64062 433.26874 442.59375 434.09686ZM452.85938 437.03436Q452.26562 437.53436 451.71875 437.7375Q451.1875 437.9406 450.5625 437.9406Q449.53125 437.9406 448.98438 437.4406Q448.4375 436.9406 448.4375 436.15936Q448.4375 435.70624 448.64062 435.33124Q448.84375 434.9406 449.1875 434.72186Q449.53125 434.4875 449.95312 434.3781Q450.25 434.28436 450.89062 434.20624Q452.15625 434.0656 452.76562 433.84686Q452.76562 433.6281 452.76562 433.58124Q452.76562 432.925 452.46875 432.65936Q452.0625 432.3156 451.26562 432.3156Q450.53125 432.3156 450.17188 432.58124Q449.8125 432.83124 449.64062 433.4875L448.60938 433.34686Q448.75 432.6906 449.07812 432.28436Q449.40625 431.8781 450.01562 431.65936Q450.625 431.4406 451.42188 431.4406Q452.21875 431.4406 452.71875 431.6281Q453.21875 431.8156 453.45312 432.09686Q453.6875 432.3781 453.78125 432.8156Q453.82812 433.08124 453.82812 433.78436L453.82812 435.1906Q453.82812 436.65936 453.89062 437.05Q453.96875 437.4406 454.17188 437.8L453.0625 437.8Q452.90625 437.47186 452.85938 437.03436ZM452.76562 434.675Q452.1875 434.90936 451.04688 435.08124Q450.39062 435.175 450.125 435.3Q449.85938 435.40936 449.70312 435.6281Q449.5625 435.84686 449.5625 436.1281Q449.5625 436.55 449.875 436.83124Q450.20312 437.1125 450.8125 437.1125Q451.42188 437.1125 451.89062 436.84686Q452.375 436.58124 452.59375 436.1125Q452.76562 435.7531 452.76562 435.0656L452.76562 434.675ZM455.78125 437.8L455.78125 431.58124L456.73438 431.58124L456.73438 432.51874Q457.09375 431.8625 457.39062 431.65936Q457.70312 431.4406 458.07812 431.4406Q458.60938 431.4406 459.15625 431.76874L458.79688 432.7531Q458.40625 432.51874 458.03125 432.51874Q457.67188 432.51874 457.39062 432.7375Q457.125 432.9406 457.01562 433.3156Q456.82812 433.8781 456.82812 434.53436L456.82812 437.8L455.78125 437.8Z" fill-rule="nonzero"/><path fill="#000000" d="M31.184362 284.4375L31.481237 283.3125Q32.871864 283.67188 33.60624 284.59375Q34.340614 285.51562 34.340614 286.85938Q34.340614 288.25 33.778114 289.125Q33.215614 290.0 32.153114 290.45312Q31.074987 290.90625 29.840612 290.90625Q28.496862 290.90625 27.496862 290.39062Q26.496862 289.875 25.981237 288.9375Q25.465612 287.98438 25.465612 286.84375Q25.465612 285.5625 26.121862 284.6875Q26.778112 283.79688 27.965612 283.45312L28.231237 284.57812Q27.293737 284.875 26.871862 285.45312Q26.434362 286.01562 26.434362 286.875Q26.434362 287.85938 26.918737 288.53125Q27.387487 289.1875 28.184362 289.46875Q28.981237 289.73438 29.840612 289.73438Q30.934362 289.73438 31.746862 289.42188Q32.559364 289.09375 32.965614 288.42188Q33.371864 287.75 33.371864 286.95312Q33.371864 286.0 32.82499 285.34375Q32.278114 284.67188 31.184362 284.4375ZM34.19999 281.51562L25.606237 281.51562L25.606237 275.71875L26.621862 275.71875L26.621862 280.375L29.278112 280.375L29.278112 276.34375L30.293737 276.34375L30.293737 280.375L34.19999 280.375L34.19999 281.51562ZM31.184362 268.4375L31.481237 267.3125Q32.871864 267.67188 33.60624 268.59375Q34.340614 269.51562 34.340614 270.85938Q34.340614 272.25 33.778114 273.125Q33.215614 274.0 32.153114 274.45312Q31.074987 274.90625 29.840612 274.90625Q28.496862 274.90625 27.496862 274.39062Q26.496862 273.875 25.981237 272.9375Q25.465612 271.98438 25.465612 270.84375Q25.465612 269.5625 26.121862 268.6875Q26.778112 267.79688 27.965612 267.45312L28.231237 268.57812Q27.293737 268.875 26.871862 269.45312Q26.434362 270.01562 26.434362 270.875Q26.434362 271.85938 26.918737 272.53125Q27.387487 273.1875 28.184362 273.46875Q28.981237 273.73438 29.840612 273.73438Q30.934362 273.73438 31.746862 273.42188Q32.559364 273.09375 32.965614 272.42188Q33.371864 271.75 33.371864 270.95312Q33.371864 270.0 32.82499 269.34375Q32.278114 268.67188 31.184362 268.4375ZM34.19999 262.60938L25.606237 262.60938L25.606237 260.89062L31.684362 258.85938Q32.54374 258.57812 32.965614 258.45312Q32.496864 258.3125 31.590612 258.0L25.606237 255.9375L25.606237 254.40625L34.19999 254.40625L34.19999 255.5L27.012487 255.5L34.19999 258.0L34.19999 259.03125L26.887487 261.51562L34.19999 261.51562L34.19999 262.60938ZM32.19999 249.45312L32.32499 248.35938Q33.278114 248.60938 33.809364 249.3125Q34.340614 250.01562 34.340614 251.09375Q34.340614 252.45312 33.496864 253.26562Q32.653114 254.0625 31.137487 254.0625Q29.574987 254.0625 28.715612 253.25Q27.840612 252.4375 27.840612 251.15625Q27.840612 249.90625 28.684362 249.125Q29.528112 248.32812 31.074987 248.32812Q31.168737 248.32812 31.356237 248.32812L31.356237 252.96875Q32.38749 252.90625 32.934364 252.39062Q33.465614 251.875 33.465614 251.09375Q33.465614 250.51562 33.16874 250.10938Q32.85624 249.6875 32.19999 249.45312ZM30.496862 252.90625L30.496862 249.4375Q29.699987 249.5 29.309362 249.82812Q28.699987 250.34375 28.699987 251.14062Q28.699987 251.875 29.184362 252.375Q29.668737 252.85938 30.496862 252.90625ZM34.19999 246.70312L27.981237 246.70312L27.981237 245.76562L28.856237 245.76562Q28.387487 245.46875 28.121862 244.98438Q27.840612 244.5 27.840612 243.875Q27.840612 243.1875 28.121862 242.75Q28.403112 242.29688 28.918737 242.125Q27.840612 241.375 27.840612 240.20312Q27.840612 239.26562 28.356237 238.78125Q28.856237 238.28125 29.934362 238.28125L34.19999 238.28125L34.19999 239.32812L30.278112 239.32812Q29.653112 239.32812 29.371862 239.4375Q29.090612 239.53125 28.918737 239.79688Q28.746862 240.0625 28.746862 240.4375Q28.746862 241.09375 29.184362 241.53125Q29.621862 241.95312 30.590612 241.95312L34.19999 241.95312L34.19999 243.01562L30.153112 243.01562Q29.449987 243.01562 29.106237 243.28125Q28.746862 243.53125 28.746862 244.10938Q28.746862 244.5625 28.981237 244.9375Q29.215612 245.3125 29.668737 245.48438Q30.121862 245.65625 30.965612 245.65625L34.19999 245.65625L34.19999 246.70312ZM34.19999 234.73438L34.19999 235.71875L25.606237 235.71875L25.606237 234.65625L28.668737 234.65625Q27.840612 233.98438 27.840612 232.95312Q27.840612 232.375 28.074987 231.875Q28.293737 231.35938 28.715612 231.03125Q29.137487 230.6875 29.731237 230.5Q30.324987 230.3125 30.996862 230.3125Q32.590614 230.3125 33.465614 231.10938Q34.340614 231.90625 34.340614 233.0Q34.340614 234.10938 33.41874 234.73438L34.19999 234.73438ZM31.043737 234.75Q32.153114 234.75 32.653114 234.4375Q33.465614 233.9375 33.465614 233.09375Q33.465614 232.40625 32.871864 231.90625Q32.278114 231.39062 31.074987 231.39062Q29.856237 231.39062 29.278112 231.875Q28.699987 232.35938 28.699987 233.04688Q28.699987 233.73438 29.309362 234.25Q29.903112 234.75 31.043737 234.75ZM32.19999 224.45312L32.32499 223.35938Q33.278114 223.60938 33.809364 224.3125Q34.340614 225.01562 34.340614 226.09375Q34.340614 227.45312 33.496864 228.26562Q32.653114 229.0625 31.137487 229.0625Q29.574987 229.0625 28.715612 228.25Q27.840612 227.4375 27.840612 226.15625Q27.840612 224.90625 28.684362 224.125Q29.528112 223.32812 31.074987 223.32812Q31.168737 223.32812 31.356237 223.32812L31.356237 227.96875Q32.38749 227.90625 32.934364 227.39062Q33.465614 226.875 33.465614 226.09375Q33.465614 225.51562 33.16874 225.10938Q32.85624 224.6875 32.19999 224.45312ZM30.496862 227.90625L30.496862 224.4375Q29.699987 224.5 29.309362 224.82812Q28.699987 225.34375 28.699987 226.14062Q28.699987 226.875 29.184362 227.375Q29.668737 227.85938 30.496862 227.90625ZM34.19999 221.71875L27.981237 221.71875L27.981237 220.76562L28.918737 220.76562Q28.262487 220.40625 28.059362 220.10938Q27.840612 219.79688 27.840612 219.42188Q27.840612 218.89062 28.168737 218.34375L29.153112 218.70312Q28.918737 219.09375 28.918737 219.46875Q28.918737 219.82812 29.137487 220.10938Q29.340612 220.375 29.715612 220.48438Q30.278112 220.67188 30.934362 220.67188L34.19999 220.67188L34.19999 221.71875ZM32.340614 218.125L32.184364 217.09375Q32.809364 217.0 33.13749 216.60938Q33.465614 216.20312 33.465614 215.46875Q33.465614 214.75 33.184364 214.40625Q32.88749 214.04688 32.48124 214.04688Q32.121864 214.04688 31.918737 214.35938Q31.778112 214.57812 31.559362 215.4375Q31.262487 216.59375 31.059362 217.04688Q30.840612 217.48438 30.465612 217.71875Q30.090612 217.95312 29.621862 217.95312Q29.215612 217.95312 28.856237 217.76562Q28.496862 217.57812 28.262487 217.25Q28.090612 217.0 27.965612 216.57812Q27.840612 216.15625 27.840612 215.65625Q27.840612 214.9375 28.059362 214.39062Q28.262487 213.82812 28.621862 213.5625Q28.981237 213.29688 29.574987 213.20312L29.715612 214.23438Q29.246862 214.29688 28.981237 214.64062Q28.699987 214.96875 28.699987 215.59375Q28.699987 216.3125 28.949987 216.625Q29.184362 216.9375 29.512487 216.9375Q29.715612 216.9375 29.871862 216.8125Q30.043737 216.67188 30.153112 216.40625Q30.215612 216.25 30.418737 215.46875Q30.731237 214.34375 30.918737 213.90625Q31.106237 213.46875 31.465612 213.21875Q31.824987 212.96875 32.371864 212.96875Q32.903114 212.96875 33.371864 213.28125Q33.82499 213.57812 34.090614 214.15625Q34.340614 214.73438 34.340614 215.46875Q34.340614 216.6875 33.840614 217.32812Q33.32499 217.95312 32.340614 218.125ZM31.621862 208.125L30.559362 208.125L30.559362 204.875L31.621862 204.875L31.621862 208.125ZM34.19999 198.39062L26.621862 198.39062L26.621862 201.21875L25.606237 201.21875L25.606237 194.40625L26.621862 194.40625L26.621862 197.25L34.19999 197.25L34.19999 198.39062ZM31.090612 194.09375Q29.356237 194.09375 28.528112 193.14062Q27.840612 192.34375 27.840612 191.1875Q27.840612 189.90625 28.684362 189.09375Q29.512487 188.26562 30.996862 188.26562Q32.19999 188.26562 32.88749 188.625Q33.57499 188.98438 33.965614 189.6875Q34.340614 190.375 34.340614 191.1875Q34.340614 192.48438 33.51249 193.29688Q32.66874 194.09375 31.090612 194.09375ZM31.090612 193.01562Q32.278114 193.01562 32.871864 192.5Q33.465614 191.96875 33.465614 191.1875Q33.465614 190.39062 32.871864 189.875Q32.278114 189.35938 31.059362 189.35938Q29.903112 189.35938 29.309362 189.89062Q28.715612 190.40625 28.715612 191.1875Q28.715612 191.96875 29.309362 192.5Q29.887487 193.01562 31.090612 193.01562ZM33.26249 184.40625L34.184364 184.25Q34.278114 184.70312 34.278114 185.04688Q34.278114 185.625 34.10624 185.9375Q33.91874 186.25 33.621864 186.39062Q33.32499 186.51562 32.371864 186.51562L28.793737 186.51562L28.793737 187.28125L27.981237 187.28125L27.981237 186.51562L26.434362 186.51562L25.809362 185.46875L27.981237 185.46875L27.981237 184.40625L28.793737 184.40625L28.793737 185.46875L32.434364 185.46875Q32.88749 185.46875 33.01249 185.42188Q33.13749 185.35938 33.215614 185.23438Q33.29374 185.10938 33.29374 184.875Q33.29374 184.6875 33.26249 184.40625ZM33.434364 179.64062Q33.934364 180.23438 34.13749 180.78125Q34.340614 181.3125 34.340614 181.9375Q34.340614 182.96875 33.840614 183.51562Q33.340614 184.0625 32.559364 184.0625Q32.10624 184.0625 31.731237 183.85938Q31.340612 183.65625 31.121862 183.3125Q30.887487 182.96875 30.778112 182.54688Q30.684362 182.25 30.606237 181.60938Q30.465612 180.34375 30.246862 179.73438Q30.028112 179.73438 29.981237 179.73438Q29.324987 179.73438 29.059362 180.03125Q28.715612 180.4375 28.715612 181.23438Q28.715612 181.96875 28.981237 182.32812Q29.231237 182.6875 29.887487 182.85938L29.746862 183.89062Q29.090612 183.75 28.684362 183.42188Q28.278112 183.09375 28.059362 182.48438Q27.840612 181.875 27.840612 181.07812Q27.840612 180.28125 28.028112 179.78125Q28.215612 179.28125 28.496862 179.04688Q28.778112 178.8125 29.215612 178.71875Q29.481237 178.67188 30.184362 178.67188L31.590612 178.67188Q33.059364 178.67188 33.44999 178.60938Q33.840614 178.53125 34.19999 178.32812L34.19999 179.4375Q33.871864 179.59375 33.434364 179.64062ZM31.074987 179.73438Q31.309362 180.3125 31.481237 181.45312Q31.574987 182.10938 31.699987 182.375Q31.809362 182.64062 32.028114 182.79688Q32.246864 182.9375 32.528114 182.9375Q32.94999 182.9375 33.23124 182.625Q33.51249 182.29688 33.51249 181.6875Q33.51249 181.07812 33.246864 180.60938Q32.98124 180.125 32.51249 179.90625Q32.153114 179.73438 31.465612 179.73438L31.074987 179.73438ZM34.19999 176.73438L25.606237 176.73438L25.606237 175.67188L34.19999 175.67188L34.19999 176.73438ZM34.19999 171.51562L25.606237 168.21875L25.606237 167.0L34.19999 163.48438L34.19999 164.76562L31.590612 165.78125L31.590612 169.35938L34.19999 170.3125L34.19999 171.51562ZM30.668737 169.03125L30.668737 166.125L28.293737 167.01562Q27.215612 167.4375 26.512487 167.625Q27.340612 167.79688 28.153112 168.09375L30.668737 169.03125ZM31.918737 159.64062L32.059364 158.60938Q33.121864 158.78125 33.73124 159.48438Q34.340614 160.1875 34.340614 161.20312Q34.340614 162.48438 33.51249 163.26562Q32.66874 164.03125 31.106237 164.03125Q30.106237 164.03125 29.356237 163.70312Q28.590612 163.35938 28.215612 162.6875Q27.840612 162.0 27.840612 161.1875Q27.840612 160.1875 28.356237 159.54688Q28.856237 158.89062 29.809362 158.70312L29.965612 159.73438Q29.340612 159.875 29.028112 160.25Q28.699987 160.625 28.699987 161.15625Q28.699987 161.95312 29.278112 162.45312Q29.840612 162.95312 31.074987 162.95312Q32.340614 162.95312 32.903114 162.46875Q33.465614 161.98438 33.465614 161.21875Q33.465614 160.59375 33.090614 160.1875Q32.715614 159.76562 31.918737 159.64062ZM33.26249 155.40625L34.184364 155.25Q34.278114 155.70312 34.278114 156.04688Q34.278114 156.625 34.10624 156.9375Q33.91874 157.25 33.621864 157.39062Q33.32499 157.51562 32.371864 157.51562L28.793737 157.51562L28.793737 158.28125L27.981237 158.28125L27.981237 157.51562L26.434362 157.51562L25.809362 156.46875L27.981237 156.46875L27.981237 155.40625L28.793737 155.40625L28.793737 156.46875L32.434364 156.46875Q32.88749 156.46875 33.01249 156.42188Q33.13749 156.35938 33.215614 156.23438Q33.29374 156.10938 33.29374 155.875Q33.29374 155.6875 33.26249 155.40625ZM26.824987 154.70312L25.606237 154.70312L25.606237 153.64062L26.824987 153.64062L26.824987 154.70312ZM34.19999 154.70312L27.981237 154.70312L27.981237 153.64062L34.19999 153.64062L34.19999 154.70312ZM34.19999 149.98438L27.981237 152.34375L27.981237 151.23438L31.699987 149.89062Q32.309364 149.6875 32.94999 149.5Q32.465614 149.35938 31.778112 149.10938L27.981237 147.71875L27.981237 146.64062L34.19999 149.0L34.19999 149.98438ZM32.19999 142.45312L32.32499 141.35938Q33.278114 141.60938 33.809364 142.3125Q34.340614 143.01562 34.340614 144.09375Q34.340614 145.45312 33.496864 146.26562Q32.653114 147.0625 31.137487 147.0625Q29.574987 147.0625 28.715612 146.25Q27.840612 145.4375 27.840612 144.15625Q27.840612 142.90625 28.684362 142.125Q29.528112 141.32812 31.074987 141.32812Q31.168737 141.32812 31.356237 141.32812L31.356237 145.96875Q32.38749 145.90625 32.934364 145.39062Q33.465614 144.875 33.465614 144.09375Q33.465614 143.51562 33.16874 143.10938Q32.85624 142.6875 32.19999 142.45312ZM30.496862 145.90625L30.496862 142.4375Q29.699987 142.5 29.309362 142.82812Q28.699987 143.34375 28.699987 144.14062Q28.699987 144.875 29.184362 145.375Q29.668737 145.85938 30.496862 145.90625Z" fill-rule="nonzero"/><path fill="#000000" d="M76.7 388.5656Q76.7 387.03436 77.0125 386.1125Q77.325 385.175 77.93437 384.675Q78.55937 384.175 79.49687 384.175Q80.18437 384.175 80.7 384.45624Q81.23125 384.7375 81.575 385.26874Q81.91875 385.78436 82.10625 386.53436Q82.29375 387.28436 82.29375 388.5656Q82.29375 390.08124 81.98125 391.0031Q81.68437 391.925 81.05937 392.4406Q80.45 392.9406 79.49687 392.9406Q78.2625 392.9406 77.54375 392.05Q76.7 390.9875 76.7 388.5656ZM77.77812 388.5656Q77.77812 390.675 78.27812 391.3781Q78.77812 392.08124 79.49687 392.08124Q80.23125 392.08124 80.71562 391.3781Q81.21562 390.675 81.21562 388.5656Q81.21562 386.4406 80.71562 385.7531Q80.23125 385.05 79.48125 385.05Q78.7625 385.05 78.325 385.65936Q77.77812 386.4406 77.77812 388.5656Z" fill-rule="nonzero"/><path fill="#000000" d="M59.66875 321.08L58.621876 321.08L58.621876 314.36124Q58.23125 314.7206 57.60625 315.0956Q56.996876 315.455 56.5125 315.62686L56.5125 314.61124Q57.3875 314.18936 58.04375 313.61124Q58.715626 313.0175 58.996876 312.455L59.66875 312.455L59.66875 321.08ZM62.7 316.8456Q62.7 315.31436 63.0125 314.3925Q63.325 313.455 63.934376 312.955Q64.55937 312.455 65.49687 312.455Q66.18437 312.455 66.7 312.73624Q67.23125 313.0175 67.575 313.54874Q67.91875 314.06436 68.10625 314.81436Q68.29375 315.56436 68.29375 316.8456Q68.29375 318.36124 67.98125 319.2831Q67.68437 320.205 67.05937 320.7206Q66.45 321.2206 65.49687 321.2206Q64.2625 321.2206 63.54375 320.33Q62.7 319.2675 62.7 316.8456ZM63.778126 316.8456Q63.778126 318.955 64.27812 319.6581Q64.77812 320.36124 65.49687 320.36124Q66.23125 320.36124 66.71562 319.6581Q67.21562 318.955 67.21562 316.8456Q67.21562 314.7206 66.71562 314.0331Q66.23125 313.33 65.48125 313.33Q64.7625 313.33 64.325 313.93936Q63.778126 314.7206 63.778126 316.8456ZM69.7 316.8456Q69.7 315.31436 70.0125 314.3925Q70.325 313.455 70.93437 312.955Q71.55937 312.455 72.49687 312.455Q73.18437 312.455 73.7 312.73624Q74.23125 313.0175 74.575 313.54874Q74.91875 314.06436 75.10625 314.81436Q75.29375 315.56436 75.29375 316.8456Q75.29375 318.36124 74.98125 319.2831Q74.68437 320.205 74.05937 320.7206Q73.45 321.2206 72.49687 321.2206Q71.2625 321.2206 70.54375 320.33Q69.7 319.2675 69.7 316.8456ZM70.77812 316.8456Q70.77812 318.955 71.27812 319.6581Q71.77812 320.36124 72.49687 320.36124Q73.23125 320.36124 73.71562 319.6581Q74.21562 318.955 74.21562 316.8456Q74.21562 314.7206 73.71562 314.0331Q73.23125 313.33 72.48125 313.33Q71.7625 313.33 71.325 313.93936Q70.77812 314.7206 70.77812 316.8456ZM76.7 316.8456Q76.7 315.31436 77.0125 314.3925Q77.325 313.455 77.93437 312.955Q78.55937 312.455 79.49687 312.455Q80.18437 312.455 80.7 312.73624Q81.23125 313.0175 81.575 313.54874Q81.91875 314.06436 82.10625 314.81436Q82.29375 315.56436 82.29375 316.8456Q82.29375 318.36124 81.98125 319.2831Q81.68437 320.205 81.05937 320.7206Q80.45 321.2206 79.49687 321.2206Q78.2625 321.2206 77.54375 320.33Q76.7 319.2675 76.7 316.8456ZM77.77812 316.8456Q77.77812 318.955 78.27812 319.6581Q78.77812 320.36124 79.49687 320.36124Q80.23125 320.36124 80.71562 319.6581Q81.21562 318.955 81.21562 316.8456Q81.21562 314.7206 80.71562 314.0331Q80.23125 313.33 79.48125 313.33Q78.7625 313.33 78.325 313.93936Q77.77812 314.7206 77.77812 316.8456Z" fill-rule="nonzero"/><path fill="#000000" d="M61.246876 248.34438L61.246876 249.36L55.559376 249.36Q55.559376 248.985 55.684376 248.62563Q55.903126 248.0475 56.371876 247.485Q56.85625 246.9225 57.7625 246.18813Q59.16875 245.03188 59.653126 244.36Q60.153126 243.68813 60.153126 243.09438Q60.153126 242.46938 59.7 242.0475Q59.246876 241.61 58.528126 241.61Q57.7625 241.61 57.309376 242.06313Q56.85625 242.51625 56.840626 243.32875L55.7625 243.21938Q55.871876 242.00063 56.590626 241.37563Q57.325 240.735 58.559376 240.735Q59.79375 240.735 60.5125 241.4225Q61.23125 242.11 61.23125 243.12563Q61.23125 243.64125 61.0125 244.14125Q60.809376 244.62563 60.309376 245.18813Q59.825 245.735 58.7 246.68813Q57.746876 247.485 57.465626 247.78188Q57.2 248.06313 57.028126 248.34438L61.246876 248.34438ZM62.7 245.12563Q62.7 243.59438 63.0125 242.6725Q63.325 241.735 63.934376 241.235Q64.55937 240.735 65.49687 240.735Q66.18437 240.735 66.7 241.01625Q67.23125 241.2975 67.575 241.82875Q67.91875 242.34438 68.10625 243.09438Q68.29375 243.84438 68.29375 245.12563Q68.29375 246.64125 67.98125 247.56313Q67.68437 248.485 67.05937 249.00063Q66.45 249.50063 65.49687 249.50063Q64.2625 249.50063 63.54375 248.61Q62.7 247.5475 62.7 245.12563ZM63.778126 245.12563Q63.778126 247.235 64.27812 247.93813Q64.77812 248.64125 65.49687 248.64125Q66.23125 248.64125 66.71562 247.93813Q67.21562 247.235 67.21562 245.12563Q67.21562 243.00063 66.71562 242.31313Q66.23125 241.61 65.48125 241.61Q64.7625 241.61 64.325 242.21938Q63.778126 243.00063 63.778126 245.12563ZM69.7 245.12563Q69.7 243.59438 70.0125 242.6725Q70.325 241.735 70.93437 241.235Q71.55937 240.735 72.49687 240.735Q73.18437 240.735 73.7 241.01625Q74.23125 241.2975 74.575 241.82875Q74.91875 242.34438 75.10625 243.09438Q75.29375 243.84438 75.29375 245.12563Q75.29375 246.64125 74.98125 247.56313Q74.68437 248.485 74.05937 249.00063Q73.45 249.50063 72.49687 249.50063Q71.2625 249.50063 70.54375 248.61Q69.7 247.5475 69.7 245.12563ZM70.77812 245.12563Q70.77812 247.235 71.27812 247.93813Q71.77812 248.64125 72.49687 248.64125Q73.23125 248.64125 73.71562 247.93813Q74.21562 247.235 74.21562 245.12563Q74.21562 243.00063 73.71562 242.31313Q73.23125 241.61 72.48125 241.61Q71.7625 241.61 71.325 242.21938Q70.77812 243.00063 70.77812 245.12563ZM76.7 245.12563Q76.7 243.59438 77.0125 242.6725Q77.325 241.735 77.93437 241.235Q78.55937 240.735 79.49687 240.735Q80.18437 240.735 80.7 241.01625Q81.23125 241.2975 81.575 241.82875Q81.91875 242.34438 82.10625 243.09438Q82.29375 243.84438 82.29375 245.12563Q82.29375 246.64125 81.98125 247.56313Q81.68437 248.485 81.05937 249.00063Q80.45 249.50063 79.49687 249.50063Q78.2625 249.50063 77.54375 248.61Q76.7 247.5475 76.7 245.12563ZM77.77812 245.12563Q77.77812 247.235 78.27812 247.93813Q78.77812 248.64125 79.49687 248.64125Q80.23125 248.64125 80.71562 247.93813Q81.21562 247.235 81.21562 245.12563Q81.21562 243.00063 80.71562 242.31313Q80.23125 241.61 79.48125 241.61Q78.7625 241.61 78.325 242.21938Q77.77812 243.00063 77.77812 245.12563Z" fill-rule="nonzero"/><path fill="#000000" d="M55.7 175.37437L56.7625 175.23375Q56.934376 176.12437 57.371876 176.53062Q57.809376 176.92125 58.434376 176.92125Q59.184376 176.92125 59.7 176.40562Q60.215626 175.89 60.215626 175.12437Q60.215626 174.40562 59.73125 173.93687Q59.2625 173.4525 58.528126 173.4525Q58.23125 173.4525 57.778126 173.5775L57.903126 172.64Q58.0125 172.65562 58.075 172.65562Q58.746876 172.65562 59.278126 172.31187Q59.825 171.9525 59.825 171.21812Q59.825 170.64 59.434376 170.265Q59.04375 169.87437 58.41875 169.87437Q57.809376 169.87437 57.3875 170.265Q56.98125 170.65562 56.871876 171.42125L55.809376 171.23375Q55.996876 170.18687 56.684376 169.60875Q57.371876 169.015 58.3875 169.015Q59.090626 169.015 59.684376 169.3275Q60.278126 169.62437 60.590626 170.14Q60.903126 170.65562 60.903126 171.24937Q60.903126 171.79625 60.60625 172.265Q60.309376 172.71812 59.73125 172.98375Q60.48125 173.15562 60.903126 173.71812Q61.325 174.265 61.325 175.10875Q61.325 176.23375 60.496876 177.015Q59.684376 177.79625 58.434376 177.79625Q57.309376 177.79625 56.559376 177.12437Q55.809376 176.43687 55.7 175.37437ZM62.7 173.40562Q62.7 171.87437 63.0125 170.9525Q63.325 170.015 63.934376 169.515Q64.55937 169.015 65.49687 169.015Q66.18437 169.015 66.7 169.29625Q67.23125 169.5775 67.575 170.10875Q67.91875 170.62437 68.10625 171.37437Q68.29375 172.12437 68.29375 173.40562Q68.29375 174.92125 67.98125 175.84312Q67.68437 176.765 67.05937 177.28062Q66.45 177.78062 65.49687 177.78062Q64.2625 177.78062 63.54375 176.89Q62.7 175.8275 62.7 173.40562ZM63.778126 173.40562Q63.778126 175.515 64.27812 176.21812Q64.77812 176.92125 65.49687 176.92125Q66.23125 176.92125 66.71562 176.21812Q67.21562 175.515 67.21562 173.40562Q67.21562 171.28062 66.71562 170.59312Q66.23125 169.89 65.48125 169.89Q64.7625 169.89 64.325 170.49937Q63.778126 171.28062 63.778126 173.40562ZM69.7 173.40562Q69.7 171.87437 70.0125 170.9525Q70.325 170.015 70.93437 169.515Q71.55937 169.015 72.49687 169.015Q73.18437 169.015 73.7 169.29625Q74.23125 169.5775 74.575 170.10875Q74.91875 170.62437 75.10625 171.37437Q75.29375 172.12437 75.29375 173.40562Q75.29375 174.92125 74.98125 175.84312Q74.68437 176.765 74.05937 177.28062Q73.45 177.78062 72.49687 177.78062Q71.2625 177.78062 70.54375 176.89Q69.7 175.8275 69.7 173.40562ZM70.77812 173.40562Q70.77812 175.515 71.27812 176.21812Q71.77812 176.92125 72.49687 176.92125Q73.23125 176.92125 73.71562 176.21812Q74.21562 175.515 74.21562 173.40562Q74.21562 171.28062 73.71562 170.59312Q73.23125 169.89 72.48125 169.89Q71.7625 169.89 71.325 170.49937Q70.77812 171.28062 70.77812 173.40562ZM76.7 173.40562Q76.7 171.87437 77.0125 170.9525Q77.325 170.015 77.93437 169.515Q78.55937 169.015 79.49687 169.015Q80.18437 169.015 80.7 169.29625Q81.23125 169.5775 81.575 170.10875Q81.91875 170.62437 82.10625 171.37437Q82.29375 172.12437 82.29375 173.40562Q82.29375 174.92125 81.98125 175.84312Q81.68437 176.765 81.05937 177.28062Q80.45 177.78062 79.49687 177.78062Q78.2625 177.78062 77.54375 176.89Q76.7 175.8275 76.7 173.40562ZM77.77812 173.40562Q77.77812 175.515 78.27812 176.21812Q78.77812 176.92125 79.49687 176.92125Q80.23125 176.92125 80.71562 176.21812Q81.21562 175.515 81.21562 173.40562Q81.21562 171.28062 80.71562 170.59312Q80.23125 169.89 79.48125 169.89Q78.7625 169.89 78.325 170.49937Q77.77812 171.28062 77.77812 173.40562Z" fill-rule="nonzero"/><path fill="#000000" d="M59.075 105.92L59.075 103.8575L55.35625 103.8575L55.35625 102.88875L59.278126 97.32625L60.1375 97.32625L60.1375 102.88875L61.29375 102.88875L61.29375 103.8575L60.1375 103.8575L60.1375 105.92L59.075 105.92ZM59.075 102.88875L59.075 99.02937L56.3875 102.88875L59.075 102.88875ZM62.7 101.68562Q62.7 100.15437 63.0125 99.2325Q63.325 98.295 63.934376 97.795Q64.55937 97.295 65.49687 97.295Q66.18437 97.295 66.7 97.57625Q67.23125 97.8575 67.575 98.38875Q67.91875 98.90437 68.10625 99.65437Q68.29375 100.40437 68.29375 101.68562Q68.29375 103.20125 67.98125 104.12312Q67.68437 105.045 67.05937 105.56062Q66.45 106.06062 65.49687 106.06062Q64.2625 106.06062 63.54375 105.17Q62.7 104.1075 62.7 101.68562ZM63.778126 101.68562Q63.778126 103.795 64.27812 104.49812Q64.77812 105.20125 65.49687 105.20125Q66.23125 105.20125 66.71562 104.49812Q67.21562 103.795 67.21562 101.68562Q67.21562 99.56062 66.71562 98.87312Q66.23125 98.17 65.48125 98.17Q64.7625 98.17 64.325 98.77937Q63.778126 99.56062 63.778126 101.68562ZM69.7 101.68562Q69.7 100.15437 70.0125 99.2325Q70.325 98.295 70.93437 97.795Q71.55937 97.295 72.49687 97.295Q73.18437 97.295 73.7 97.57625Q74.23125 97.8575 74.575 98.38875Q74.91875 98.90437 75.10625 99.65437Q75.29375 100.40437 75.29375 101.68562Q75.29375 103.20125 74.98125 104.12312Q74.68437 105.045 74.05937 105.56062Q73.45 106.06062 72.49687 106.06062Q71.2625 106.06062 70.54375 105.17Q69.7 104.1075 69.7 101.68562ZM70.77812 101.68562Q70.77812 103.795 71.27812 104.49812Q71.77812 105.20125 72.49687 105.20125Q73.23125 105.20125 73.71562 104.49812Q74.21562 103.795 74.21562 101.68562Q74.21562 99.56062 73.71562 98.87312Q73.23125 98.17 72.48125 98.17Q71.7625 98.17 71.325 98.77937Q70.77812 99.56062 70.77812 101.68562ZM76.7 101.68562Q76.7 100.15437 77.0125 99.2325Q77.325 98.295 77.93437 97.795Q78.55937 97.295 79.49687 97.295Q80.18437 97.295 80.7 97.57625Q81.23125 97.8575 81.575 98.38875Q81.91875 98.90437 82.10625 99.65437Q82.29375 100.40437 82.29375 101.68562Q82.29375 103.20125 81.98125 104.12312Q81.68437 105.045 81.05937 105.56062Q80.45 106.06062 79.49687 106.06062Q78.2625 106.06062 77.54375 105.17Q76.7 104.1075 76.7 101.68562ZM77.77812 101.68562Q77.77812 103.795 78.27812 104.49812Q78.77812 105.20125 79.49687 105.20125Q80.23125 105.20125 80.71562 104.49812Q81.21562 103.795 81.21562 101.68562Q81.21562 99.56062 80.71562 98.87312Q80.23125 98.17 79.48125 98.17Q78.7625 98.17 78.325 98.77937Q77.77812 99.56062 77.77812 101.68562Z" fill-rule="nonzero"/><path fill="#000000" d="M55.7 31.95L56.809376 31.85625Q56.934376 32.66875 57.371876 33.075Q57.825 33.48125 58.465626 33.48125Q59.215626 33.48125 59.746876 32.903126Q60.278126 32.325 60.278126 31.3875Q60.278126 30.48125 59.7625 29.965626Q59.2625 29.434376 58.434376 29.434376Q57.934376 29.434376 57.5125 29.66875Q57.10625 29.903126 56.871876 30.2625L55.8875 30.1375L56.715626 25.73125L60.996876 25.73125L60.996876 26.73125L57.559376 26.73125L57.10625 29.04375Q57.871876 28.496876 58.715626 28.496876Q59.840626 28.496876 60.60625 29.278126Q61.3875 30.059376 61.3875 31.29375Q61.3875 32.45 60.715626 33.309376Q59.8875 34.340626 58.465626 34.340626Q57.29375 34.340626 56.54375 33.684376Q55.809376 33.028126 55.7 31.95ZM62.7 29.965626Q62.7 28.434376 63.0125 27.5125Q63.325 26.575 63.934376 26.075Q64.55937 25.575 65.49687 25.575Q66.18437 25.575 66.7 25.85625Q67.23125 26.1375 67.575 26.66875Q67.91875 27.184376 68.10625 27.934376Q68.29375 28.684376 68.29375 29.965626Q68.29375 31.48125 67.98125 32.403126Q67.68437 33.325 67.05937 33.840626Q66.45 34.340626 65.49687 34.340626Q64.2625 34.340626 63.54375 33.45Q62.7 32.3875 62.7 29.965626ZM63.778126 29.965626Q63.778126 32.075 64.27812 32.778126Q64.77812 33.48125 65.49687 33.48125Q66.23125 33.48125 66.71562 32.778126Q67.21562 32.075 67.21562 29.965626Q67.21562 27.840626 66.71562 27.153126Q66.23125 26.45 65.48125 26.45Q64.7625 26.45 64.325 27.059376Q63.778126 27.840626 63.778126 29.965626ZM69.7 29.965626Q69.7 28.434376 70.0125 27.5125Q70.325 26.575 70.93437 26.075Q71.55937 25.575 72.49687 25.575Q73.18437 25.575 73.7 25.85625Q74.23125 26.1375 74.575 26.66875Q74.91875 27.184376 75.10625 27.934376Q75.29375 28.684376 75.29375 29.965626Q75.29375 31.48125 74.98125 32.403126Q74.68437 33.325 74.05937 33.840626Q73.45 34.340626 72.49687 34.340626Q71.2625 34.340626 70.54375 33.45Q69.7 32.3875 69.7 29.965626ZM70.77812 29.965626Q70.77812 32.075 71.27812 32.778126Q71.77812 33.48125 72.49687 33.48125Q73.23125 33.48125 73.71562 32.778126Q74.21562 32.075 74.21562 29.965626Q74.21562 27.840626 73.71562 27.153126Q73.23125 26.45 72.48125 26.45Q71.7625 26.45 71.325 27.059376Q70.77812 27.840626 70.77812 29.965626ZM76.7 29.965626Q76.7 28.434376 77.0125 27.5125Q77.325 26.575 77.93437 26.075Q78.55937 25.575 79.49687 25.575Q80.18437 25.575 80.7 25.85625Q81.23125 26.1375 81.575 26.66875Q81.91875 27.184376 82.10625 27.934376Q82.29375 28.684376 82.29375 29.965626Q82.29375 31.48125 81.98125 32.403126Q81.68437 33.325 81.05937 33.840626Q80.45 34.340626 79.49687 34.340626Q78.2625 34.340626 77.54375 33.45Q76.7 32.3875 76.7 29.965626ZM77.77812 29.965626Q77.77812 32.075 78.27812 32.778126Q78.77812 33.48125 79.49687 33.48125Q80.23125 33.48125 80.71562 32.778126Q81.21562 32.075 81.21562 29.965626Q81.21562 27.840626 80.71562 27.153126Q80.23125 26.45 79.48125 26.45Q78.7625 26.45 78.325 27.059376Q77.77812 27.840626 77.77812 29.965626Z" fill-rule="nonzero"/><path fill="#000000" d="M114.46343 405.8L113.41656 405.8L113.41656 399.08124Q113.02593 399.4406 112.40093 399.8156Q111.79156 400.175 111.30718 400.34686L111.30718 399.33124Q112.18218 398.90936 112.83843 398.33124Q113.51031 397.7375 113.79156 397.175L114.46343 397.175L114.46343 405.8ZM117.65093 403.8156L118.66656 403.72186Q118.79156 404.4406 119.15093 404.76874Q119.52593 405.08124 120.08843 405.08124Q120.57281 405.08124 120.93218 404.8625Q121.30718 404.6281 121.54156 404.26874Q121.77593 403.89374 121.93218 403.26874Q122.08843 402.6281 122.08843 401.97186Q122.08843 401.89374 122.08843 401.7531Q121.77593 402.2531 121.22906 402.58124Q120.68218 402.89374 120.04156 402.89374Q118.96343 402.89374 118.22906 402.1281Q117.49468 401.34686 117.49468 400.08124Q117.49468 398.76874 118.26031 397.97186Q119.04156 397.175 120.19781 397.175Q121.02593 397.175 121.71343 397.6281Q122.41656 398.08124 122.77593 398.925Q123.13531 399.7531 123.13531 401.33124Q123.13531 402.97186 122.77593 403.95624Q122.43218 404.925 121.71343 405.4406Q121.01031 405.9406 120.07281 405.9406Q119.05718 405.9406 118.41656 405.39374Q117.77593 404.83124 117.65093 403.8156ZM121.96343 400.01874Q121.96343 399.1125 121.47906 398.58124Q121.01031 398.05 120.32281 398.05Q119.61968 398.05 119.08843 398.6281Q118.57281 399.1906 118.57281 400.1125Q118.57281 400.925 119.07281 401.4406Q119.57281 401.95624 120.29156 401.95624Q121.02593 401.95624 121.49468 401.4406Q121.96343 400.925 121.96343 400.01874ZM124.65093 403.8156L125.66656 403.72186Q125.79156 404.4406 126.15093 404.76874Q126.52593 405.08124 127.08843 405.08124Q127.57281 405.08124 127.93218 404.8625Q128.30719 404.6281 128.54156 404.26874Q128.77594 403.89374 128.93219 403.26874Q129.08844 402.6281 129.08844 401.97186Q129.08844 401.89374 129.08844 401.7531Q128.77594 402.2531 128.22906 402.58124Q127.68218 402.89374 127.04156 402.89374Q125.96343 402.89374 125.22906 402.1281Q124.49468 401.34686 124.49468 400.08124Q124.49468 398.76874 125.26031 397.97186Q126.04156 397.175 127.19781 397.175Q128.02594 397.175 128.71344 397.6281Q129.41656 398.08124 129.77594 398.925Q130.13531 399.7531 130.13531 401.33124Q130.13531 402.97186 129.77594 403.95624Q129.43219 404.925 128.71344 405.4406Q128.01031 405.9406 127.07281 405.9406Q126.05718 405.9406 125.41656 405.39374Q124.77593 404.83124 124.65093 403.8156ZM128.96344 400.01874Q128.96344 399.1125 128.47906 398.58124Q128.01031 398.05 127.32281 398.05Q126.61968 398.05 126.08843 398.6281Q125.57281 399.1906 125.57281 400.1125Q125.57281 400.925 126.07281 401.4406Q126.57281 401.95624 127.29156 401.95624Q128.02594 401.95624 128.49469 401.4406Q128.96344 400.925 128.96344 400.01874ZM131.49469 403.55L132.60406 403.45624Q132.72906 404.26874 133.16656 404.675Q133.61969 405.08124 134.26031 405.08124Q135.01031 405.08124 135.54156 404.5031Q136.07281 403.925 136.07281 402.9875Q136.07281 402.08124 135.55719 401.5656Q135.05719 401.03436 134.22906 401.03436Q133.72906 401.03436 133.30719 401.26874Q132.90094 401.5031 132.66656 401.8625L131.68219 401.7375L132.51031 397.33124L136.79156 397.33124L136.79156 398.33124L133.35406 398.33124L132.90094 400.64374Q133.66656 400.09686 134.51031 400.09686Q135.63531 400.09686 136.40094 400.8781Q137.18219 401.65936 137.18219 402.89374Q137.18219 404.05 136.51031 404.90936Q135.68219 405.9406 134.26031 405.9406Q133.08844 405.9406 132.33844 405.28436Q131.60406 404.6281 131.49469 403.55Z" fill-rule="nonzero"/><path fill="#000000" d="M231.91743 404.78436L231.91743 405.8L226.22993 405.8Q226.22993 405.425 226.35493 405.0656Q226.57368 404.4875 227.04243 403.925Q227.52681 403.3625 228.43306 402.6281Q229.83931 401.47186 230.32368 400.8Q230.82368 400.1281 230.82368 399.53436Q230.82368 398.90936 230.37056 398.4875Q229.91743 398.05 229.19868 398.05Q228.43306 398.05 227.97993 398.5031Q227.52681 398.95624 227.51118 399.76874L226.43306 399.65936Q226.54243 398.4406 227.26118 397.8156Q227.99556 397.175 229.22993 397.175Q230.46431 397.175 231.18306 397.8625Q231.90181 398.55 231.90181 399.5656Q231.90181 400.08124 231.68306 400.58124Q231.47993 401.0656 230.97993 401.6281Q230.49556 402.175 229.37056 403.1281Q228.41743 403.925 228.13618 404.22186Q227.87056 404.5031 227.69868 404.78436L231.91743 404.78436ZM233.37056 401.5656Q233.37056 400.03436 233.68306 399.1125Q233.99556 398.175 234.60493 397.675Q235.22993 397.175 236.16743 397.175Q236.85493 397.175 237.37056 397.45624Q237.90181 397.7375 238.24556 398.26874Q238.58931 398.78436 238.77681 399.53436Q238.96431 400.28436 238.96431 401.5656Q238.96431 403.08124 238.65181 404.0031Q238.35493 404.925 237.72993 405.4406Q237.12056 405.9406 236.16743 405.9406Q234.93306 405.9406 234.21431 405.05Q233.37056 403.9875 233.37056 401.5656ZM234.44868 401.5656Q234.44868 403.675 234.94868 404.3781Q235.44868 405.08124 236.16743 405.08124Q236.90181 405.08124 237.38618 404.3781Q237.88618 403.675 237.88618 401.5656Q237.88618 399.4406 237.38618 398.7531Q236.90181 398.05 236.15181 398.05Q235.43306 398.05 234.99556 398.65936Q234.44868 399.4406 234.44868 401.5656ZM240.37056 401.5656Q240.37056 400.03436 240.68306 399.1125Q240.99556 398.175 241.60493 397.675Q242.22993 397.175 243.16743 397.175Q243.85493 397.175 244.37056 397.45624Q244.90181 397.7375 245.24556 398.26874Q245.58931 398.78436 245.77681 399.53436Q245.96431 400.28436 245.96431 401.5656Q245.96431 403.08124 245.65181 404.0031Q245.35493 404.925 244.72993 405.4406Q244.12056 405.9406 243.16743 405.9406Q241.93306 405.9406 241.21431 405.05Q240.37056 403.9875 240.37056 401.5656ZM241.44868 401.5656Q241.44868 403.675 241.94868 404.3781Q242.44868 405.08124 243.16743 405.08124Q243.90181 405.08124 244.38618 404.3781Q244.88618 403.675 244.88618 401.5656Q244.88618 399.4406 244.38618 398.7531Q243.90181 398.05 243.15181 398.05Q242.43306 398.05 241.99556 398.65936Q241.44868 399.4406 241.44868 401.5656ZM247.37056 401.5656Q247.37056 400.03436 247.68306 399.1125Q247.99556 398.175 248.60493 397.675Q249.22993 397.175 250.16743 397.175Q250.85493 397.175 251.37056 397.45624Q251.90181 397.7375 252.24556 398.26874Q252.58931 398.78436 252.77681 399.53436Q252.96431 400.28436 252.96431 401.5656Q252.96431 403.08124 252.65181 404.0031Q252.35493 404.925 251.72993 405.4406Q251.12056 405.9406 250.16743 405.9406Q248.93306 405.9406 248.21431 405.05Q247.37056 403.9875 247.37056 401.5656ZM248.44868 401.5656Q248.44868 403.675 248.94868 404.3781Q249.44868 405.08124 250.16743 405.08124Q250.90181 405.08124 251.38618 404.3781Q251.88618 403.675 251.88618 401.5656Q251.88618 399.4406 251.38618 398.7531Q250.90181 398.05 250.15181 398.05Q249.43306 398.05 248.99556 398.65936Q248.44868 399.4406 248.44868 401.5656Z" fill-rule="nonzero"/><path fill="#000000" d="M347.7933 404.78436L347.7933 405.8L342.1058 405.8Q342.1058 405.425 342.2308 405.0656Q342.44955 404.4875 342.9183 403.925Q343.40268 403.3625 344.30893 402.6281Q345.71518 401.47186 346.19955 400.8Q346.69955 400.1281 346.69955 399.53436Q346.69955 398.90936 346.24643 398.4875Q345.7933 398.05 345.07455 398.05Q344.30893 398.05 343.8558 398.5031Q343.40268 398.95624 343.38705 399.76874L342.30893 399.65936Q342.4183 398.4406 343.13705 397.8156Q343.87143 397.175 345.1058 397.175Q346.34018 397.175 347.05893 397.8625Q347.77768 398.55 347.77768 399.5656Q347.77768 400.08124 347.55893 400.58124Q347.3558 401.0656 346.8558 401.6281Q346.37143 402.175 345.24643 403.1281Q344.2933 403.925 344.01205 404.22186Q343.74643 404.5031 343.57455 404.78436L347.7933 404.78436ZM349.24643 401.5656Q349.24643 400.03436 349.55893 399.1125Q349.87143 398.175 350.4808 397.675Q351.1058 397.175 352.0433 397.175Q352.7308 397.175 353.24643 397.45624Q353.77768 397.7375 354.12143 398.26874Q354.46518 398.78436 354.65268 399.53436Q354.84018 400.28436 354.84018 401.5656Q354.84018 403.08124 354.52768 404.0031Q354.2308 404.925 353.6058 405.4406Q352.99643 405.9406 352.0433 405.9406Q350.80893 405.9406 350.09018 405.05Q349.24643 403.9875 349.24643 401.5656ZM350.32455 401.5656Q350.32455 403.675 350.82455 404.3781Q351.32455 405.08124 352.0433 405.08124Q352.77768 405.08124 353.26205 404.3781Q353.76205 403.675 353.76205 401.5656Q353.76205 399.4406 353.26205 398.7531Q352.77768 398.05 352.02768 398.05Q351.30893 398.05 350.87143 398.65936Q350.32455 399.4406 350.32455 401.5656ZM356.24643 401.5656Q356.24643 400.03436 356.55893 399.1125Q356.87143 398.175 357.4808 397.675Q358.1058 397.175 359.0433 397.175Q359.7308 397.175 360.24643 397.45624Q360.77768 397.7375 361.12143 398.26874Q361.46518 398.78436 361.65268 399.53436Q361.84018 400.28436 361.84018 401.5656Q361.84018 403.08124 361.52768 404.0031Q361.2308 404.925 360.6058 405.4406Q359.99643 405.9406 359.0433 405.9406Q357.80893 405.9406 357.09018 405.05Q356.24643 403.9875 356.24643 401.5656ZM357.32455 401.5656Q357.32455 403.675 357.82455 404.3781Q358.32455 405.08124 359.0433 405.08124Q359.77768 405.08124 360.26205 404.3781Q360.76205 403.675 360.76205 401.5656Q360.76205 399.4406 360.26205 398.7531Q359.77768 398.05 359.02768 398.05Q358.30893 398.05 357.87143 398.65936Q357.32455 399.4406 357.32455 401.5656ZM363.24643 403.55L364.3558 403.45624Q364.4808 404.26874 364.9183 404.675Q365.37143 405.08124 366.01205 405.08124Q366.76205 405.08124 367.2933 404.5031Q367.82455 403.925 367.82455 402.9875Q367.82455 402.08124 367.30893 401.5656Q366.80893 401.03436 365.9808 401.03436Q365.4808 401.03436 365.05893 401.26874Q364.65268 401.5031 364.4183 401.8625L363.43393 401.7375L364.26205 397.33124L368.5433 397.33124L368.5433 398.33124L365.1058 398.33124L364.65268 400.64374Q365.4183 400.09686 366.26205 400.09686Q367.38705 400.09686 368.15268 400.8781Q368.93393 401.65936 368.93393 402.89374Q368.93393 404.05 368.26205 404.90936Q367.43393 405.9406 366.01205 405.9406Q364.84018 405.9406 364.09018 405.28436Q363.3558 404.6281 363.24643 403.55Z" fill-rule="nonzero"/><path fill="#000000" d="M463.6692 404.78436L463.6692 405.8L457.9817 405.8Q457.9817 405.425 458.1067 405.0656Q458.32544 404.4875 458.7942 403.925Q459.27856 403.3625 460.1848 402.6281Q461.59106 401.47186 462.07544 400.8Q462.57544 400.1281 462.57544 399.53436Q462.57544 398.90936 462.1223 398.4875Q461.6692 398.05 460.95044 398.05Q460.1848 398.05 459.7317 398.5031Q459.27856 398.95624 459.26294 399.76874L458.1848 399.65936Q458.2942 398.4406 459.01294 397.8156Q459.7473 397.175 460.9817 397.175Q462.21606 397.175 462.9348 397.8625Q463.65356 398.55 463.65356 399.5656Q463.65356 400.08124 463.4348 400.58124Q463.2317 401.0656 462.7317 401.6281Q462.2473 402.175 461.1223 403.1281Q460.1692 403.925 459.88794 404.22186Q459.6223 404.5031 459.45044 404.78436L463.6692 404.78436ZM465.1223 401.5656Q465.1223 400.03436 465.4348 399.1125Q465.7473 398.175 466.3567 397.675Q466.9817 397.175 467.9192 397.175Q468.6067 397.175 469.1223 397.45624Q469.65356 397.7375 469.9973 398.26874Q470.34106 398.78436 470.52856 399.53436Q470.71606 400.28436 470.71606 401.5656Q470.71606 403.08124 470.40356 404.0031Q470.1067 404.925 469.4817 405.4406Q468.8723 405.9406 467.9192 405.9406Q466.6848 405.9406 465.96606 405.05Q465.1223 403.9875 465.1223 401.5656ZM466.20044 401.5656Q466.20044 403.675 466.70044 404.3781Q467.20044 405.08124 467.9192 405.08124Q468.65356 405.08124 469.13794 404.3781Q469.63794 403.675 469.63794 401.5656Q469.63794 399.4406 469.13794 398.7531Q468.65356 398.05 467.90356 398.05Q467.1848 398.05 466.7473 398.65936Q466.20044 399.4406 466.20044 401.5656ZM476.09106 405.8L475.0442 405.8L475.0442 399.08124Q474.65356 399.4406 474.02856 399.8156Q473.4192 400.175 472.9348 400.34686L472.9348 399.33124Q473.8098 398.90936 474.46606 398.33124Q475.13794 397.7375 475.4192 397.175L476.09106 397.175L476.09106 405.8ZM479.1223 401.5656Q479.1223 400.03436 479.4348 399.1125Q479.7473 398.175 480.3567 397.675Q480.9817 397.175 481.9192 397.175Q482.6067 397.175 483.1223 397.45624Q483.65356 397.7375 483.9973 398.26874Q484.34106 398.78436 484.52856 399.53436Q484.71606 400.28436 484.71606 401.5656Q484.71606 403.08124 484.40356 404.0031Q484.1067 404.925 483.4817 405.4406Q482.8723 405.9406 481.9192 405.9406Q480.6848 405.9406 479.96606 405.05Q479.1223 403.9875 479.1223 401.5656ZM480.20044 401.5656Q480.20044 403.675 480.70044 404.3781Q481.20044 405.08124 481.9192 405.08124Q482.65356 405.08124 483.13794 404.3781Q483.63794 403.675 483.63794 401.5656Q483.63794 399.4406 483.13794 398.7531Q482.65356 398.05 481.90356 398.05Q481.1848 398.05 480.7473 398.65936Q480.20044 399.4406 480.20044 401.5656Z" fill-rule="nonzero"/><path fill="#000000" d="M579.54504 404.78436L579.54504 405.8L573.85754 405.8Q573.85754 405.425 573.98254 405.0656Q574.2013 404.4875 574.67004 403.925Q575.1544 403.3625 576.06067 402.6281Q577.4669 401.47186 577.9513 400.8Q578.4513 400.1281 578.4513 399.53436Q578.4513 398.90936 577.99817 398.4875Q577.54504 398.05 576.8263 398.05Q576.06067 398.05 575.60754 398.5031Q575.1544 398.95624 575.1388 399.76874L574.06067 399.65936Q574.17004 398.4406 574.8888 397.8156Q575.62317 397.175 576.85754 397.175Q578.0919 397.175 578.81067 397.8625Q579.5294 398.55 579.5294 399.5656Q579.5294 400.08124 579.31067 400.58124Q579.10754 401.0656 578.60754 401.6281Q578.12317 402.175 576.99817 403.1281Q576.04504 403.925 575.7638 404.22186Q575.49817 404.5031 575.3263 404.78436L579.54504 404.78436ZM580.99817 401.5656Q580.99817 400.03436 581.31067 399.1125Q581.62317 398.175 582.23254 397.675Q582.85754 397.175 583.79504 397.175Q584.48254 397.175 584.99817 397.45624Q585.5294 397.7375 585.87317 398.26874Q586.2169 398.78436 586.4044 399.53436Q586.5919 400.28436 586.5919 401.5656Q586.5919 403.08124 586.2794 404.0031Q585.98254 404.925 585.35754 405.4406Q584.74817 405.9406 583.79504 405.9406Q582.56067 405.9406 581.8419 405.05Q580.99817 403.9875 580.99817 401.5656ZM582.0763 401.5656Q582.0763 403.675 582.5763 404.3781Q583.0763 405.08124 583.79504 405.08124Q584.5294 405.08124 585.0138 404.3781Q585.5138 403.675 585.5138 401.5656Q585.5138 399.4406 585.0138 398.7531Q584.5294 398.05 583.7794 398.05Q583.06067 398.05 582.62317 398.65936Q582.0763 399.4406 582.0763 401.5656ZM591.9669 405.8L590.92004 405.8L590.92004 399.08124Q590.5294 399.4406 589.9044 399.8156Q589.29504 400.175 588.81067 400.34686L588.81067 399.33124Q589.68567 398.90936 590.3419 398.33124Q591.0138 397.7375 591.29504 397.175L591.9669 397.175L591.9669 405.8ZM594.99817 403.55L596.10754 403.45624Q596.23254 404.26874 596.67004 404.675Q597.12317 405.08124 597.7638 405.08124Q598.5138 405.08124 599.04504 404.5031Q599.5763 403.925 599.5763 402.9875Q599.5763 402.08124 599.06067 401.5656Q598.56067 401.03436 597.73254 401.03436Q597.23254 401.03436 596.81067 401.26874Q596.4044 401.5031 596.17004 401.8625L595.18567 401.7375L596.0138 397.33124L600.29504 397.33124L600.29504 398.33124L596.85754 398.33124L596.4044 400.64374Q597.17004 400.09686 598.0138 400.09686Q599.1388 400.09686 599.9044 400.8781Q600.68567 401.65936 600.68567 402.89374Q600.68567 404.05 600.0138 404.90936Q599.18567 405.9406 597.7638 405.9406Q596.5919 405.9406 595.8419 405.28436Q595.10754 404.6281 594.99817 403.55Z" fill-rule="nonzero"/><path fill="#000000" d="M695.42096 404.78436L695.42096 405.8L689.73346 405.8Q689.73346 405.425 689.85846 405.0656Q690.0772 404.4875 690.54596 403.925Q691.03033 403.3625 691.9366 402.6281Q693.34283 401.47186 693.8272 400.8Q694.3272 400.1281 694.3272 399.53436Q694.3272 398.90936 693.8741 398.4875Q693.42096 398.05 692.7022 398.05Q691.9366 398.05 691.48346 398.5031Q691.03033 398.95624 691.0147 399.76874L689.9366 399.65936Q690.04596 398.4406 690.7647 397.8156Q691.4991 397.175 692.73346 397.175Q693.96783 397.175 694.6866 397.8625Q695.40533 398.55 695.40533 399.5656Q695.40533 400.08124 695.1866 400.58124Q694.98346 401.0656 694.48346 401.6281Q693.9991 402.175 692.8741 403.1281Q691.92096 403.925 691.6397 404.22186Q691.3741 404.5031 691.2022 404.78436L695.42096 404.78436ZM696.8741 401.5656Q696.8741 400.03436 697.1866 399.1125Q697.4991 398.175 698.10846 397.675Q698.73346 397.175 699.67096 397.175Q700.35846 397.175 700.8741 397.45624Q701.40533 397.7375 701.7491 398.26874Q702.09283 398.78436 702.28033 399.53436Q702.46783 400.28436 702.46783 401.5656Q702.46783 403.08124 702.15533 404.0031Q701.85846 404.925 701.23346 405.4406Q700.6241 405.9406 699.67096 405.9406Q698.4366 405.9406 697.71783 405.05Q696.8741 403.9875 696.8741 401.5656ZM697.9522 401.5656Q697.9522 403.675 698.4522 404.3781Q698.9522 405.08124 699.67096 405.08124Q700.40533 405.08124 700.8897 404.3781Q701.3897 403.675 701.3897 401.5656Q701.3897 399.4406 700.8897 398.7531Q700.40533 398.05 699.65533 398.05Q698.9366 398.05 698.4991 398.65936Q697.9522 399.4406 697.9522 401.5656ZM709.42096 404.78436L709.42096 405.8L703.73346 405.8Q703.73346 405.425 703.85846 405.0656Q704.0772 404.4875 704.54596 403.925Q705.03033 403.3625 705.9366 402.6281Q707.34283 401.47186 707.8272 400.8Q708.3272 400.1281 708.3272 399.53436Q708.3272 398.90936 707.8741 398.4875Q707.42096 398.05 706.7022 398.05Q705.9366 398.05 705.48346 398.5031Q705.03033 398.95624 705.0147 399.76874L703.9366 399.65936Q704.04596 398.4406 704.7647 397.8156Q705.4991 397.175 706.73346 397.175Q707.96783 397.175 708.6866 397.8625Q709.40533 398.55 709.40533 399.5656Q709.40533 400.08124 709.1866 400.58124Q708.98346 401.0656 708.48346 401.6281Q707.9991 402.175 706.8741 403.1281Q705.92096 403.925 705.6397 404.22186Q705.3741 404.5031 705.2022 404.78436L709.42096 404.78436ZM710.8741 401.5656Q710.8741 400.03436 711.1866 399.1125Q711.4991 398.175 712.10846 397.675Q712.73346 397.175 713.67096 397.175Q714.35846 397.175 714.8741 397.45624Q715.40533 397.7375 715.7491 398.26874Q716.09283 398.78436 716.28033 399.53436Q716.46783 400.28436 716.46783 401.5656Q716.46783 403.08124 716.15533 404.0031Q715.85846 404.925 715.23346 405.4406Q714.6241 405.9406 713.67096 405.9406Q712.4366 405.9406 711.71783 405.05Q710.8741 403.9875 710.8741 401.5656ZM711.9522 401.5656Q711.9522 403.675 712.4522 404.3781Q712.9522 405.08124 713.67096 405.08124Q714.40533 405.08124 714.8897 404.3781Q715.3897 403.675 715.3897 401.5656Q715.3897 399.4406 714.8897 398.7531Q714.40533 398.05 713.65533 398.05Q712.9366 398.05 712.4991 398.65936Q711.9522 399.4406 711.9522 401.5656Z" fill-rule="nonzero"/></svg>