<svg version="1.1" viewBox="0.0 0.0 827.0 464.0" fill="none" stroke="none" stroke-linecap="square" stroke-miterlimit="10" width="827" height="464" xmlns:xlink="http://www.w3.org/1999/xlink" xmlns="http://www.w3.org/2000/svg"><path fill="#ffffff" d="M0 0L827.0 0L827.0 464.0L0 464.0L0 0Z" fill-rule="nonzero"/><path stroke="#cccccc" stroke-width="1.0" stroke-linecap="butt" d="M126.5 30.5L126.5 388.5" fill-rule="nonzero"/><path stroke="#cccccc" stroke-width="1.0" stroke-linecap="butt" d="M250.5 30.5L250.5 388.5" fill-rule="nonzero"/><path stroke="#cccccc" stroke-width="1.0" stroke-linecap="butt" d="M374.5 30.5L374.5 388.5" fill-rule="nonzero"/><path stroke="#cccccc" stroke-width="1.0" stroke-linecap="butt" d="M498.5 30.5L498.5 388.5" fill-rule="nonzero"/><path stroke="#cccccc" stroke-width="1.0" stroke-linecap="butt" d="M622.5 30.5L622.5 388.5" fill-rule="nonzero"/><path stroke="#cccccc" stroke-width="1.0" stroke-linecap="butt" d="M746.5 30.5L746.5 388.5" fill-rule="nonzero"/><path stroke="#e6e6e6" stroke-width="1.0" stroke-linecap="butt" d="M101.5 30.5L101.5 388.5" fill-rule="nonzero"/><path stroke="#e6e6e6" stroke-width="1.0" stroke-linecap="butt" d="M151.5 30.5L151.5 388.5" fill-rule="nonzero"/><path stroke="#e6e6e6" stroke-width="1.0" stroke-linecap="butt" d="M175.5 30.5L175.5 388.5" fill-rule="nonzero"/><path stroke="#e6e6e6" stroke-width="1.0" stroke-linecap="butt" d="M200.5 30.5L200.5 388.5" fill-rule="nonzero"/><path stroke="#e6e6e6" stroke-width="1.0" stroke-linecap="butt" d="M225.5 30.5L225.5 388.5" fill-rule="nonzero"/><path stroke="#e6e6e6" stroke-width="1.0" stroke-linecap="butt" d="M275.5 30.5L275.5 388.5" fill-rule="nonzero"/><path stroke="#e6e6e6" stroke-width="1.0" stroke-linecap="butt" d="M299.5 30.5L299.5 388.5" fill-rule="nonzero"/><path stroke="#e6e6e6" stroke-width="1.0" stroke-linecap="butt" d="M324.5 30.5L324.5 388.5" fill-rule="nonzero"/><path stroke="#e6e6e6" stroke-width="1.0" stroke-linecap="butt" d="M349.5 30.5L349.5 388.5" fill-rule="nonzero"/><path stroke="#e6e6e6" stroke-width="1.0" stroke-linecap="butt" d="M399.5 30.5L399.5 388.5" fill-rule="nonzero"/><path stroke="#e6e6e6" stroke-width="1.0" stroke-linecap="butt" d="M423.5 30.5L423.5 388.5" fill-rule="nonzero"/><path stroke="#e6e6e6" stroke-width="1.0" stroke-linecap="butt" d="M448.5 30.5L448.5 388.5" fill-rule="nonzero"/><path stroke="#e6e6e6" stroke-width="1.0" stroke-linecap="butt" d="M473.5 30.5L473.5 388.5" fill-rule="nonzero"/><path stroke="#e6e6e6" stroke-width="1.0" stroke-linecap="butt" d="M522.5 30.5L522.5 388.5" fill-rule="nonzero"/><path stroke="#e6e6e6" stroke-width="1.0" stroke-linecap="butt" d="M547.5 30.5L547.5 388.5" fill-rule="nonzero"/><path stroke="#e6e6e6" stroke-width="1.0" stroke-linecap="butt" d="M572.5 30.5L572.5 388.5" fill-rule="nonzero"/><path stroke="#e6e6e6" stroke-width="1.0" stroke-linecap="butt" d="M597.5 30.5L597.5 388.5" fill-rule="nonzero"/><path stroke="#e6e6e6" stroke-width="1.0" stroke-linecap="butt" d="M646.5 30.5L646.5 388.5" fill-rule="nonzero"/><path stroke="#e6e6e6" stroke-width="1.0" stroke-linecap="butt" d="M671.5 30.5L671.5 388.5" fill-rule="nonzero"/><path stroke="#e6e6e6" stroke-width="1.0" stroke-linecap="butt" d="M696.5 30.5L696.5 388.5" fill-rule="nonzero"/><path stroke="#e6e6e6" stroke-width="1.0" stroke-linecap="butt" d="M721.5 30.5L721.5 388.5" fill-rule="nonzero"/><path stroke="#e6e6e6" stroke-width="1.0" stroke-linecap="butt" d="M770.5 30.5L770.5 388.5" fill-rule="nonzero"/><path stroke="#e6e6e6" stroke-width="1.0" stroke-linecap="butt" d="M795.5 30.5L795.5 388.5" fill-rule="nonzero"/><path stroke="#333333" stroke-width="1.0" stroke-linecap="butt" d="M89.5 388.5L803.5 388.5" fill-rule="nonzero"/><path stroke="#cccccc" stroke-width="1.0" stroke-linecap="butt" d="M89.5 299.5L803.5 299.5" fill-rule="nonzero"/><path stroke="#cccccc" stroke-width="1.0" stroke-linecap="butt" d="M89.5 209.5L803.5 209.5" fill-rule="nonzero"/><path stroke="#cccccc" stroke-width="1.0" stroke-linecap="butt" d="M89.5 119.5L803.5 119.5" fill-rule="nonzero"/><path stroke="#cccccc" stroke-width="1.0" stroke-linecap="butt" d="M89.5 30.5L803.5 30.5" fill-rule="nonzero"/><clipPath id="id_0"><path d="M89.2 30.2L803.8 30.2L803.8 388.8L89.2 388.8L89.2 30.2Z" clip-rule="nonzero"/></clipPath><path stroke="#93c47d" stroke-width="4.0" stroke-linecap="butt" clip-path="url(#id_0)" d="M89.2 146.3864C89.2 146.3864 102.96158 123.03878 109.84237 115.5468C116.72316 108.054825 126.36517 101.62081 134.62657 98.60295C142.88797 95.58509 151.21004 97.89998 159.45622 97.4375C167.70241 96.97502 175.9486 93.4977 184.1948 95.8238C192.44098 98.149895 200.71777 108.56906 208.97917 111.4229C217.24057 114.27674 225.50197 108.94945 233.76338 112.94695C242.02478 116.94445 251.02586 128.07559 258.59302 135.4491C266.1602 142.82262 273.72736 153.74304 281.29453 159.1167C288.8617 164.49036 299.85458 168.31453 308.11597 169.24715C316.37738 170.17976 324.6388 169.24141 332.90018 165.48186C341.1616 161.72229 349.48364 148.10812 357.72983 146.65535C365.976 145.20258 374.2222 148.1324 382.46838 156.69615C390.71457 165.2599 398.9914 185.77269 407.25278 198.11446C415.5142 210.45622 423.77557 226.02417 432.037 230.74706C440.29837 235.46992 448.62045 228.86177 456.86664 226.44385C465.11282 224.02592 473.359 217.3007 481.6052 216.22375C489.85138 215.14679 498.12817 218.43512 506.3896 219.98904C514.651 221.54298 522.9124 225.18771 531.17377 225.54735C539.4352 225.90698 547.75726 222.81094 556.0034 222.14066C564.24963 221.47035 572.4958 221.9458 580.742 221.5131C588.9882 221.0804 597.265 219.4661 605.52637 219.5408C613.7878 219.61551 622.0492 224.60045 630.3106 221.96135C638.572 219.32225 646.89404 207.72571 655.14026 203.67274C663.3864 199.6198 671.6326 200.8446 679.8788 197.57655C688.125 194.3085 696.4018 189.53792 704.6632 184.0394C712.9246 178.54088 721.186 172.13792 729.4474 164.58534C737.7088 157.03278 746.0309 136.74812 754.27704 138.6765C762.52325 140.60487 770.7694 172.42491 779.0156 176.06055C787.2618 179.69618 803.8 160.46146 803.8 160.46146" fill-rule="nonzero"/><path fill="#000000" fill-opacity="0.0" clip-path="url(#id_0)" d="M92.2 146.3864C92.2 148.04326 90.85686 149.3864 89.2 149.3864C87.543144 149.3864 86.2 148.04326 86.2 146.3864C86.2 144.72955 87.543144 143.3864 89.2 143.3864C90.85686 143.3864 92.2 144.72955 92.2 146.3864Z" fill-rule="nonzero"/><path fill="#000000" fill-opacity="0.0" clip-path="url(#id_0)" d="M112.84237 115.5468C112.84237 117.20365 111.49922 118.5468 109.84237 118.5468C108.18552 118.5468 106.84237 117.20365 106.84237 115.5468C106.84237 113.889946 108.18552 112.5468 109.84237 112.5468C111.49922 112.5468 112.84237 113.889946 112.84237 115.5468Z" fill-rule="nonzero"/><path fill="#000000" fill-opacity="0.0" clip-path="url(#id_0)" d="M137.62657 98.60295C137.62657 100.2598 136.28343 101.60295 134.62657 101.60295C132.96971 101.60295 131.62657 100.2598 131.62657 98.60295C131.62657 96.9461 132.96971 95.60295 134.62657 95.60295C136.28343 95.60295 137.62657 96.9461 137.62657 98.60295Z" fill-rule="nonzero"/><path fill="#000000" fill-opacity="0.0" clip-path="url(#id_0)" d="M162.45622 97.4375C162.45622 99.09435 161.11308 100.4375 159.45622 100.4375C157.79938 100.4375 156.45622 99.09435 156.45622 97.4375C156.45622 95.78065 157.79938 94.4375 159.45622 94.4375C161.11308 94.4375 162.45622 95.78065 162.45622 97.4375Z" fill-rule="nonzero"/><path fill="#000000" fill-opacity="0.0" clip-path="url(#id_0)" d="M187.1948 95.8238C187.1948 97.48065 185.85164 98.8238 184.1948 98.8238C182.53793 98.8238 181.1948 97.48065 181.1948 95.8238C181.1948 94.16695 182.53793 92.8238 184.1948 92.8238C185.85164 92.8238 187.1948 94.16695 187.1948 95.8238Z" fill-rule="nonzero"/><path fill="#000000" fill-opacity="0.0" clip-path="url(#id_0)" d="M211.97917 111.4229C211.97917 113.07976 210.63603 114.4229 208.97917 114.4229C207.32233 114.4229 205.97917 113.07976 205.97917 111.4229C205.97917 109.766045 207.32233 108.4229 208.97917 108.4229C210.63603 108.4229 211.97917 109.766045 211.97917 111.4229Z" fill-rule="nonzero"/><path fill="#000000" fill-opacity="0.0" clip-path="url(#id_0)" d="M236.76338 112.94695C236.76338 114.603806 235.42023 115.94695 233.76338 115.94695C232.10652 115.94695 230.76338 114.603806 230.76338 112.94695C230.76338 111.29009 232.10652 109.94695 233.76338 109.94695C235.42023 109.94695 236.76338 111.29009 236.76338 112.94695Z" fill-rule="nonzero"/><path fill="#000000" fill-opacity="0.0" clip-path="url(#id_0)" d="M261.59302 135.4491C261.59302 137.10596 260.24988 138.4491 258.59302 138.4491C256.9362 138.4491 255.59303 137.10596 255.59303 135.4491C255.59303 133.79225 256.9362 132.4491 258.59302 132.4491C260.24988 132.4491 261.59302 133.79225 261.59302 135.4491Z" fill-rule="nonzero"/><path fill="#000000" fill-opacity="0.0" clip-path="url(#id_0)" d="M284.29453 159.1167C284.29453 160.77356 282.9514 162.1167 281.29453 162.1167C279.63766 162.1167 278.29453 160.77356 278.29453 159.1167C278.29453 157.45984 279.63766 156.1167 281.29453 156.1167C282.9514 156.1167 284.29453 157.45984 284.29453 159.1167Z" fill-rule="nonzero"/><path fill="#000000" fill-opacity="0.0" clip-path="url(#id_0)" d="M311.11597 169.24715C311.11597 170.904 309.77283 172.24715 308.11597 172.24715C306.45914 172.24715 305.11597 170.904 305.11597 169.24715C305.11597 167.5903 306.45914 166.24715 308.11597 166.24715C309.77283 166.24715 311.11597 167.5903 311.11597 169.24715Z" fill-rule="nonzero"/><path fill="#000000" fill-opacity="0.0" clip-path="url(#id_0)" d="M335.90018 165.48186C335.90018 167.1387 334.55704 168.48186 332.90018 168.48186C331.24332 168.48186 329.90018 167.1387 329.90018 165.48186C329.90018 163.825 331.24332 162.48186 332.90018 162.48186C334.55704 162.48186 335.90018 163.825 335.90018 165.48186Z" fill-rule="nonzero"/><path fill="#000000" fill-opacity="0.0" clip-path="url(#id_0)" d="M360.72983 146.65535C360.72983 148.31221 359.3867 149.65535 357.72983 149.65535C356.07297 149.65535 354.72983 148.31221 354.72983 146.65535C354.72983 144.99849 356.07297 143.65535 357.72983 143.65535C359.3867 143.65535 360.72983 144.99849 360.72983 146.65535Z" fill-rule="nonzero"/><path fill="#000000" fill-opacity="0.0" clip-path="url(#id_0)" d="M385.46838 156.69615C385.46838 158.353 384.12524 159.69615 382.46838 159.69615C380.81155 159.69615 379.46838 158.353 379.46838 156.69615C379.46838 155.03929 380.81155 153.69615 382.46838 153.69615C384.12524 153.69615 385.46838 155.03929 385.46838 156.69615Z" fill-rule="nonzero"/><path fill="#000000" fill-opacity="0.0" clip-path="url(#id_0)" d="M410.25278 198.11446C410.25278 199.7713 408.90964 201.11446 407.25278 201.11446C405.59592 201.11446 404.25278 199.7713 404.25278 198.11446C404.25278 196.4576 405.59592 195.11446 407.25278 195.11446C408.90964 195.11446 410.25278 196.4576 410.25278 198.11446Z" fill-rule="nonzero"/><path fill="#000000" fill-opacity="0.0" clip-path="url(#id_0)" d="M435.037 230.74706C435.037 232.4039 433.69385 233.74706 432.037 233.74706C430.38013 233.74706 429.037 232.4039 429.037 230.74706C429.037 229.0902 430.38013 227.74706 432.037 227.74706C433.69385 227.74706 435.037 229.0902 435.037 230.74706Z" fill-rule="nonzero"/><path fill="#000000" fill-opacity="0.0" clip-path="url(#id_0)" d="M459.86664 226.44385C459.86664 228.10071 458.5235 229.44385 456.86664 229.44385C455.20978 229.44385 453.86664 228.10071 453.86664 226.44385C453.86664 224.787 455.20978 223.44385 456.86664 223.44385C458.5235 223.44385 459.86664 224.787 459.86664 226.44385Z" fill-rule="nonzero"/><path fill="#000000" fill-opacity="0.0" clip-path="url(#id_0)" d="M484.6052 216.22375C484.6052 217.8806 483.26205 219.22375 481.6052 219.22375C479.94833 219.22375 478.6052 217.8806 478.6052 216.22375C478.6052 214.5669 479.94833 213.22375 481.6052 213.22375C483.26205 213.22375 484.6052 214.5669 484.6052 216.22375Z" fill-rule="nonzero"/><path fill="#000000" fill-opacity="0.0" clip-path="url(#id_0)" d="M509.3896 219.98904C509.3896 221.6459 508.04645 222.98904 506.3896 222.98904C504.73273 222.98904 503.3896 221.6459 503.3896 219.98904C503.3896 218.3322 504.73273 216.98904 506.3896 216.98904C508.04645 216.98904 509.3896 218.3322 509.3896 219.98904Z" fill-rule="nonzero"/><path fill="#000000" fill-opacity="0.0" clip-path="url(#id_0)" d="M534.17377 225.54735C534.17377 227.20421 532.8306 228.54735 531.17377 228.54735C529.5169 228.54735 528.17377 227.20421 528.17377 225.54735C528.17377 223.8905 529.5169 222.54735 531.17377 222.54735C532.8306 222.54735 534.17377 223.8905 534.17377 225.54735Z" fill-rule="nonzero"/><path fill="#000000" fill-opacity="0.0" clip-path="url(#id_0)" d="M559.0034 222.14066C559.0034 223.7975 557.6603 225.14066 556.0034 225.14066C554.3466 225.14066 553.0034 223.7975 553.0034 222.14066C553.0034 220.4838 554.3466 219.14066 556.0034 219.14066C557.6603 219.14066 559.0034 220.4838 559.0034 222.14066Z" fill-rule="nonzero"/><path fill="#000000" fill-opacity="0.0" clip-path="url(#id_0)" d="M583.742 221.5131C583.742 223.16995 582.39886 224.5131 580.742 224.5131C579.08514 224.5131 577.742 223.16995 577.742 221.5131C577.742 219.85625 579.08514 218.5131 580.742 218.5131C582.39886 218.5131 583.742 219.85625 583.742 221.5131Z" fill-rule="nonzero"/><path fill="#000000" fill-opacity="0.0" clip-path="url(#id_0)" d="M608.52637 219.5408C608.52637 221.19765 607.1832 222.5408 605.52637 222.5408C603.8695 222.5408 602.52637 221.19765 602.52637 219.5408C602.52637 217.88394 603.8695 216.5408 605.52637 216.5408C607.1832 216.5408 608.52637 217.88394 608.52637 219.5408Z" fill-rule="nonzero"/><path fill="#000000" fill-opacity="0.0" clip-path="url(#id_0)" d="M633.3106 221.96135C633.3106 223.61821 631.96747 224.96135 630.3106 224.96135C628.65375 224.96135 627.3106 223.61821 627.3106 221.96135C627.3106 220.30449 628.65375 218.96135 630.3106 218.96135C631.96747 218.96135 633.3106 220.30449 633.3106 221.96135Z" fill-rule="nonzero"/><path fill="#000000" fill-opacity="0.0" clip-path="url(#id_0)" d="M658.14026 203.67274C658.14026 205.3296 656.7971 206.67274 655.14026 206.67274C653.4834 206.67274 652.14026 205.3296 652.14026 203.67274C652.14026 202.0159 653.4834 200.67274 655.14026 200.67274C656.7971 200.67274 658.14026 202.0159 658.14026 203.67274Z" fill-rule="nonzero"/><path fill="#000000" fill-opacity="0.0" clip-path="url(#id_0)" d="M682.8788 197.57655C682.8788 199.2334 681.53564 200.57655 679.8788 200.57655C678.222 200.57655 676.8788 199.2334 676.8788 197.57655C676.8788 195.9197 678.222 194.57655 679.8788 194.57655C681.53564 194.57655 682.8788 195.9197 682.8788 197.57655Z" fill-rule="nonzero"/><path fill="#000000" fill-opacity="0.0" clip-path="url(#id_0)" d="M707.6632 184.0394C707.6632 185.69626 706.32007 187.0394 704.6632 187.0394C703.00635 187.0394 701.6632 185.69626 701.6632 184.0394C701.6632 182.38255 703.00635 181.0394 704.6632 181.0394C706.32007 181.0394 707.6632 182.38255 707.6632 184.0394Z" fill-rule="nonzero"/><path fill="#000000" fill-opacity="0.0" clip-path="url(#id_0)" d="M732.4474 164.58534C732.4474 166.2422 731.10425 167.58534 729.4474 167.58534C727.7905 167.58534 726.4474 166.2422 726.4474 164.58534C726.4474 162.9285 727.7905 161.58534 729.4474 161.58534C731.10425 161.58534 732.4474 162.9285 732.4474 164.58534Z" fill-rule="nonzero"/><path fill="#000000" fill-opacity="0.0" clip-path="url(#id_0)" d="M757.27704 138.6765C757.27704 140.33336 755.9339 141.6765 754.27704 141.6765C752.6202 141.6765 751.27704 140.33336 751.27704 138.6765C751.27704 137.01965 752.6202 135.6765 754.27704 135.6765C755.9339 135.6765 757.27704 137.01965 757.27704 138.6765Z" fill-rule="nonzero"/><path fill="#000000" fill-opacity="0.0" clip-path="url(#id_0)" d="M782.0156 176.06055C782.0156 177.7174 780.6725 179.06055 779.0156 179.06055C777.35876 179.06055 776.0156 177.7174 776.0156 176.06055C776.0156 174.4037 777.35876 173.06055 779.0156 173.06055C780.6725 173.06055 782.0156 174.4037 782.0156 176.06055Z" fill-rule="nonzero"/><path fill="#000000" fill-opacity="0.0" clip-path="url(#id_0)" d="M806.8 160.46146C806.8 162.1183 805.45685 163.46146 803.8 163.46146C802.1431 163.46146 800.8 162.1183 800.8 160.46146C800.8 158.8046 802.1431 157.46146 803.8 157.46146C805.45685 157.46146 806.8 158.8046 806.8 160.46146Z" fill-rule="nonzero"/><path fill="#000000" d="M437.34375 437.8L437.34375 434.15936L434.03125 429.20624L435.42188 429.20624L437.10938 431.8Q437.57812 432.51874 437.98438 433.2531Q438.375 432.58124 438.92188 431.7375L440.59375 429.20624L441.90625 429.20624L438.48438 434.15936L438.48438 437.8L437.34375 437.8ZM446.04688 435.8L447.14062 435.925Q446.89062 436.8781 446.1875 437.40936Q445.48438 437.9406 444.40625 437.9406Q443.04688 437.9406 442.23438 437.09686Q441.4375 436.2531 441.4375 434.7375Q441.4375 433.175 442.25 432.3156Q443.0625 431.4406 444.34375 431.4406Q445.59375 431.4406 446.375 432.28436Q447.17188 433.1281 447.17188 434.675Q447.17188 434.76874 447.17188 434.95624L442.53125 434.95624Q442.59375 435.9875 443.10938 436.53436Q443.625 437.0656 444.40625 437.0656Q444.98438 437.0656 445.39062 436.76874Q445.8125 436.45624 446.04688 435.8ZM442.59375 434.09686L446.0625 434.09686Q446.0 433.3 445.67188 432.90936Q445.15625 432.3 444.35938 432.3Q443.625 432.3 443.125 432.78436Q442.64062 433.26874 442.59375 434.09686ZM452.85938 437.03436Q452.26562 437.53436 451.71875 437.7375Q451.1875 437.9406 450.5625 437.9406Q449.53125 437.9406 448.98438 437.4406Q448.4375 436.9406 448.4375 436.15936Q448.4375 435.70624 448.64062 435.33124Q448.84375 434.9406 449.1875 434.72186Q449.53125 434.4875 449.95312 434.3781Q450.25 434.28436 450.89062 434.20624Q452.15625 434.0656 452.76562 433.84686Q452.76562 433.6281 452.76562 433.58124Q452.76562 432.925 452.46875 432.65936Q452.0625 432.3156 451.26562 432.3156Q450.53125 432.3156 450.17188 432.58124Q449.8125 432.83124 449.64062 433.4875L448.60938 433.34686Q448.75 432.6906 449.07812 432.28436Q449.40625 431.8781 450.01562 431.65936Q450.625 431.4406 451.42188 431.4406Q452.21875 431.4406 452.71875 431.6281Q453.21875 431.8156 453.45312 432.09686Q453.6875 432.3781 453.78125 432.8156Q453.82812 433.08124 453.82812 433.78436L453.82812 435.1906Q453.82812 436.65936 453.89062 437.05Q453.96875 437.4406 454.17188 437.8L453.0625 437.8Q452.90625 437.47186 452.85938 437.03436ZM452.76562 434.675Q452.1875 434.90936 451.04688 435.08124Q450.39062 435.175 450.125 435.3Q449.85938 435.40936 449.70312 435.6281Q449.5625 435.84686 449.5625 436.1281Q449.5625 436.55 449.875 436.83124Q450.20312 437.1125 450.8125 437.1125Q451.42188 437.1125 451.89062 436.84686Q452.375 436.58124 452.59375 436.1125Q452.76562 435.7531 452.76562 435.0656L452.76562 434.675ZM455.78125 437.8L455.78125 431.58124L456.73438 431.58124L456.73438 432.51874Q457.09375 431.8625 457.39062 431.65936Q457.70312 431.4406 458.07812 431.4406Q458.60938 431.4406 459.15625 431.76874L458.79688 432.7531Q458.40625 432.51874 458.03125 432.51874Q457.67188 432.51874 457.39062 432.7375Q457.125 432.9406 457.01562 433.3156Q456.82812 433.8781 456.82812 434.53436L456.82812 437.8L455.78125 437.8Z" fill-rule="nonzero"/><path fill="#000000" d="M31.184362 284.4375L31.481237 283.3125Q32.871864 283.67188 33.60624 284.59375Q34.340614 285.51562 34.340614 286.85938Q34.340614 288.25 33.778114 289.125Q33.215614 290.0 32.153114 290.45312Q31.074987 290.90625 29.840612 290.90625Q28.496862 290.90625 27.496862 290.39062Q26.496862 289.875 25.981237 288.9375Q25.465612 287.98438 25.465612 286.84375Q25.465612 285.5625 26.121862 284.6875Q26.778112 283.79688 27.965612 283.45312L28.231237 284.57812Q27.293737 284.875 26.871862 285.45312Q26.434362 286.01562 26.434362 286.875Q26.434362 287.85938 26.918737 288.53125Q27.387487 289.1875 28.184362 289.46875Q28.981237 289.73438 29.840612 289.73438Q30.934362 289.73438 31.746862 289.42188Q32.559364 289.09375 32.965614 288.42188Q33.371864 287.75 33.371864 286.95312Q33.371864 286.0 32.82499 285.34375Q32.278114 284.67188 31.184362 284.4375ZM34.19999 281.51562L25.606237 281.51562L25.606237 275.71875L26.621862 275.71875L26.621862 280.375L29.278112 280.375L29.278112 276.34375L30.293737 276.34375L30.293737 280.375L34.19999 280.375L34.19999 281.51562ZM31.184362 268.4375L31.481237 267.3125Q32.871864 267.67188 33.60624 268.59375Q34.340614 269.51562 34.340614 270.85938Q34.340614 272.25 33.778114 273.125Q33.215614 274.0 32.153114 274.45312Q31.074987 274.90625 29.840612 274.90625Q28.496862 274.90625 27.496862 274.39062Q26.496862 273.875 25.981237 272.9375Q25.465612 271.98438 25.465612 270.84375Q25.465612 269.5625 26.121862 268.6875Q26.778112 267.79688 27.965612 267.45312L28.231237 268.57812Q27.293737 268.875 26.871862 269.45312Q26.434362 270.01562 26.434362 270.875Q26.434362 271.85938 26.918737 272.53125Q27.387487 273.1875 28.184362 273.46875Q28.981237 273.73438 29.840612 273.73438Q30.934362 273.73438 31.746862 273.42188Q32.559364 273.09375 32.965614 272.42188Q33.371864 271.75 33.371864 270.95312Q33.371864 270.0 32.82499 269.34375Q32.278114 268.67188 31.184362 268.4375ZM34.19999 262.60938L25.606237 262.60938L25.606237 260.89062L31.684362 258.85938Q32.54374 258.57812 32.965614 258.45312Q32.496864 258.3125 31.590612 258.0L25.606237 255.9375L25.606237 254.40625L34.19999 254.40625L34.19999 255.5L27.012487 255.5L34.19999 258.0L34.19999 259.03125L26.887487 261.51562L34.19999 261.51562L34.19999 262.60938ZM32.19999 249.45312L32.32499 248.35938Q33.278114 248.60938 33.809364 249.3125Q34.340614 250.01562 34.340614 251.09375Q34.340614 252.45312 33.496864 253.26562Q32.653114 254.0625 31.137487 254.0625Q29.574987 254.0625 28.715612 253.25Q27.840612 252.4375 27.840612 251.15625Q27.840612 249.90625 28.684362 249.125Q29.528112 248.32812 31.074987 248.32812Q31.168737 248.32812 31.356237 248.32812L31.356237 252.96875Q32.38749 252.90625 32.934364 252.39062Q33.465614 251.875 33.465614 251.09375Q33.465614 250.51562 33.16874 250.10938Q32.85624 249.6875 32.19999 249.45312ZM30.496862 252.90625L30.496862 249.4375Q29.699987 249.5 29.309362 249.82812Q28.699987 250.34375 28.699987 251.14062Q28.699987 251.875 29.184362 252.375Q29.668737 252.85938 30.496862 252.90625ZM34.19999 246.70312L27.981237 246.70312L27.981237 245.76562L28.856237 245.76562Q28.387487 245.46875 28.121862 244.98438Q27.840612 244.5 27.840612 243.875Q27.840612 243.1875 28.121862 242.75Q28.403112 242.29688 28.918737 242.125Q27.840612 241.375 27.840612 240.20312Q27.840612 239.26562 28.356237 238.78125Q28.856237 238.28125 29.934362 238.28125L34.19999 238.28125L34.19999 239.32812L30.278112 239.32812Q29.653112 239.32812 29.371862 239.4375Q29.090612 239.53125 28.918737 239.79688Q28.746862 240.0625 28.746862 240.4375Q28.746862 241.09375 29.184362 241.53125Q29.621862 241.95312 30.590612 241.95312L34.19999 241.95312L34.19999 243.01562L30.153112 243.01562Q29.449987 243.01562 29.106237 243.28125Q28.746862 243.53125 28.746862 244.10938Q28.746862 244.5625 28.981237 244.9375Q29.215612 245.3125 29.668737 245.48438Q30.121862 245.65625 30.965612 245.65625L34.19999 245.65625L34.19999 246.70312ZM34.19999 234.73438L34.19999 235.71875L25.606237 235.71875L25.606237 234.65625L28.668737 234.65625Q27.840612 233.98438 27.840612 232.95312Q27.840612 232.375 28.074987 231.875Q28.293737 231.35938 28.715612 231.03125Q29.137487 230.6875 29.731237 230.5Q30.324987 230.3125 30.996862 230.3125Q32.590614 230.3125 33.465614 231.10938Q34.340614 231.90625 34.340614 233.0Q34.340614 234.10938 33.41874 234.73438L34.19999 234.73438ZM31.043737 234.75Q32.153114 234.75 32.653114 234.4375Q33.465614 233.9375 33.465614 233.09375Q33.465614 232.40625 32.871864 231.90625Q32.278114 231.39062 31.074987 231.39062Q29.856237 231.39062 29.278112 231.875Q28.699987 232.35938 28.699987 233.04688Q28.699987 233.73438 29.309362 234.25Q29.903112 234.75 31.043737 234.75ZM32.19999 224.45312L32.32499 223.35938Q33.278114 223.60938 33.809364 224.3125Q34.340614 225.01562 34.340614 226.09375Q34.340614 227.45312 33.496864 228.26562Q32.653114 229.0625 31.137487 229.0625Q29.574987 229.0625 28.715612 228.25Q27.840612 227.4375 27.840612 226.15625Q27.840612 224.90625 28.684362 224.125Q29.528112 223.32812 31.074987 223.32812Q31.168737 223.32812 31.356237 223.32812L31.356237 227.96875Q32.38749 227.90625 32.934364 227.39062Q33.465614 226.875 33.465614 226.09375Q33.465614 225.51562 33.16874 225.10938Q32.85624 224.6875 32.19999 224.45312ZM30.496862 227.90625L30.496862 224.4375Q29.699987 224.5 29.309362 224.82812Q28.699987 225.34375 28.699987 226.14062Q28.699987 226.875 29.184362 227.375Q29.668737 227.85938 30.496862 227.90625ZM34.19999 221.71875L27.981237 221.71875L27.981237 220.76562L28.918737 220.76562Q28.262487 220.40625 28.059362 220.10938Q27.840612 219.79688 27.840612 219.42188Q27.840612 218.89062 28.168737 218.34375L29.153112 218.70312Q28.918737 219.09375 28.918737 219.46875Q28.918737 219.82812 29.137487 220.10938Q29.340612 220.375 29.715612 220.48438Q30.278112 220.67188 30.934362 220.67188L34.19999 220.67188L34.19999 221.71875ZM32.340614 218.125L32.184364 217.09375Q32.809364 217.0 33.13749 216.60938Q33.465614 216.20312 33.465614 215.46875Q33.465614 214.75 33.184364 214.40625Q32.88749 214.04688 32.48124 214.04688Q32.121864 214.04688 31.918737 214.35938Q31.778112 214.57812 31.559362 215.4375Q31.262487 216.59375 31.059362 217.04688Q30.840612 217.48438 30.465612 217.71875Q30.090612 217.95312 29.621862 217.95312Q29.215612 217.95312 28.856237 217.76562Q28.496862 217.57812 28.262487 217.25Q28.090612 217.0 27.965612 216.57812Q27.840612 216.15625 27.840612 215.65625Q27.840612 214.9375 28.059362 214.39062Q28.262487 213.82812 28.621862 213.5625Q28.981237 213.29688 29.574987 213.20312L29.715612 214.23438Q29.246862 214.29688 28.981237 214.64062Q28.699987 214.96875 28.699987 215.59375Q28.699987 216.3125 28.949987 216.625Q29.184362 216.9375 29.512487 216.9375Q29.715612 216.9375 29.871862 216.8125Q30.043737 216.67188 30.153112 216.40625Q30.215612 216.25 30.418737 215.46875Q30.731237 214.34375 30.918737 213.90625Q31.106237 213.46875 31.465612 213.21875Q31.824987 212.96875 32.371864 212.96875Q32.903114 212.96875 33.371864 213.28125Q33.82499 213.57812 34.090614 214.15625Q34.340614 214.73438 34.340614 215.46875Q34.340614 216.6875 33.840614 217.32812Q33.32499 217.95312 32.340614 218.125ZM31.621862 208.125L30.559362 208.125L30.559362 204.875L31.621862 204.875L31.621862 208.125ZM34.19999 198.39062L26.621862 198.39062L26.621862 201.21875L25.606237 201.21875L25.606237 194.40625L26.621862 194.40625L26.621862 197.25L34.19999 197.25L34.19999 198.39062ZM31.090612 194.09375Q29.356237 194.09375 28.528112 193.14062Q27.840612 192.34375 27.840612 191.1875Q27.840612 189.90625 28.684362 189.09375Q29.512487 188.26562 30.996862 188.26562Q32.19999 188.26562 32.88749 188.625Q33.57499 188.98438 33.965614 189.6875Q34.340614 190.375 34.340614 191.1875Q34.340614 192.48438 33.51249 193.29688Q32.66874 194.09375 31.090612 194.09375ZM31.090612 193.01562Q32.278114 193.01562 32.871864 192.5Q33.465614 191.96875 33.465614 191.1875Q33.465614 190.39062 32.871864 189.875Q32.278114 189.35938 31.059362 189.35938Q29.903112 189.35938 29.309362 189.89062Q28.715612 190.40625 28.715612 191.1875Q28.715612 191.96875 29.309362 192.5Q29.887487 193.01562 31.090612 193.01562ZM33.26249 184.40625L34.184364 184.25Q34.278114 184.70312 34.278114 185.04688Q34.278114 185.625 34.10624 185.9375Q33.91874 186.25 33.621864 186.39062Q33.32499 186.51562 32.371864 186.51562L28.793737 186.51562L28.793737 187.28125L27.981237 187.28125L27.981237 186.51562L26.434362 186.51562L25.809362 185.46875L27.981237 185.46875L27.981237 184.40625L28.793737 184.40625L28.793737 185.46875L32.434364 185.46875Q32.88749 185.46875 33.01249 185.42188Q33.13749 185.35938 33.215614 185.23438Q33.29374 185.10938 33.29374 184.875Q33.29374 184.6875 33.26249 184.40625ZM33.434364 179.64062Q33.934364 180.23438 34.13749 180.78125Q34.340614 181.3125 34.340614 181.9375Q34.340614 182.96875 33.840614 183.51562Q33.340614 184.0625 32.559364 184.0625Q32.10624 184.0625 31.731237 183.85938Q31.340612 183.65625 31.121862 183.3125Q30.887487 182.96875 30.778112 182.54688Q30.684362 182.25 30.606237 181.60938Q30.465612 180.34375 30.246862 179.73438Q30.028112 179.73438 29.981237 179.73438Q29.324987 179.73438 29.059362 180.03125Q28.715612 180.4375 28.715612 181.23438Q28.715612 181.96875 28.981237 182.32812Q29.231237 182.6875 29.887487 182.85938L29.746862 183.89062Q29.090612 183.75 28.684362 183.42188Q28.278112 183.09375 28.059362 182.48438Q27.840612 181.875 27.840612 181.07812Q27.840612 180.28125 28.028112 179.78125Q28.215612 179.28125 28.496862 179.04688Q28.778112 178.8125 29.215612 178.71875Q29.481237 178.67188 30.184362 178.67188L31.590612 178.67188Q33.059364 178.67188 33.44999 178.60938Q33.840614 178.53125 34.19999 178.32812L34.19999 179.4375Q33.871864 179.59375 33.434364 179.64062ZM31.074987 179.73438Q31.309362 180.3125 31.481237 181.45312Q31.574987 182.10938 31.699987 182.375Q31.809362 182.64062 32.028114 182.79688Q32.246864 182.9375 32.528114 182.9375Q32.94999 182.9375 33.23124 182.625Q33.51249 182.29688 33.51249 181.6875Q33.51249 181.07812 33.246864 180.60938Q32.98124 180.125 32.51249 179.90625Q32.153114 179.73438 31.465612 179.73438L31.074987 179.73438ZM34.19999 176.73438L25.606237 176.73438L25.606237 175.67188L34.19999 175.67188L34.19999 176.73438ZM34.19999 171.51562L25.606237 168.21875L25.606237 167.0L34.19999 163.48438L34.19999 164.76562L31.590612 165.78125L31.590612 169.35938L34.19999 170.3125L34.19999 171.51562ZM30.668737 169.03125L30.668737 166.125L28.293737 167.01562Q27.215612 167.4375 26.512487 167.625Q27.340612 167.79688 28.153112 168.09375L30.668737 169.03125ZM31.918737 159.64062L32.059364 158.60938Q33.121864 158.78125 33.73124 159.48438Q34.340614 160.1875 34.340614 161.20312Q34.340614 162.48438 33.51249 163.26562Q32.66874 164.03125 31.106237 164.03125Q30.106237 164.03125 29.356237 163.70312Q28.590612 163.35938 28.215612 162.6875Q27.840612 162.0 27.840612 161.1875Q27.840612 160.1875 28.356237 159.54688Q28.856237 158.89062 29.809362 158.70312L29.965612 159.73438Q29.340612 159.875 29.028112 160.25Q28.699987 160.625 28.699987 161.15625Q28.699987 161.95312 29.278112 162.45312Q29.840612 162.95312 31.074987 162.95312Q32.340614 162.95312 32.903114 162.46875Q33.465614 161.98438 33.465614 161.21875Q33.465614 160.59375 33.090614 160.1875Q32.715614 159.76562 31.918737 159.64062ZM33.26249 155.40625L34.184364 155.25Q34.278114 155.70312 34.278114 156.04688Q34.278114 156.625 34.10624 156.9375Q33.91874 157.25 33.621864 157.39062Q33.32499 157.51562 32.371864 157.51562L28.793737 157.51562L28.793737 158.28125L27.981237 158.28125L27.981237 157.51562L26.434362 157.51562L25.809362 156.46875L27.981237 156.46875L27.981237 155.40625L28.793737 155.40625L28.793737 156.46875L32.434364 156.46875Q32.88749 156.46875 33.01249 156.42188Q33.13749 156.35938 33.215614 156.23438Q33.29374 156.10938 33.29374 155.875Q33.29374 155.6875 33.26249 155.40625ZM26.824987 154.70312L25.606237 154.70312L25.606237 153.64062L26.824987 153.64062L26.824987 154.70312ZM34.19999 154.70312L27.981237 154.70312L27.981237 153.64062L34.19999 153.64062L34.19999 154.70312ZM34.19999 149.98438L27.981237 152.34375L27.981237 151.23438L31.699987 149.89062Q32.309364 149.6875 32.94999 149.5Q32.465614 149.35938 31.778112 149.10938L27.981237 147.71875L27.981237 146.64062L34.19999 149.0L34.19999 149.98438ZM32.19999 142.45312L32.32499 141.35938Q33.278114 141.60938 33.809364 142.3125Q34.340614 143.01562 34.340614 144.09375Q34.340614 145.45312 33.496864 146.26562Q32.653114 147.0625 31.137487 147.0625Q29.574987 147.0625 28.715612 146.25Q27.840612 145.4375 27.840612 144.15625Q27.840612 142.90625 28.684362 142.125Q29.528112 141.32812 31.074987 141.32812Q31.168737 141.32812 31.356237 141.32812L31.356237 145.96875Q32.38749 145.90625 32.934364 145.39062Q33.465614 144.875 33.465614 144.09375Q33.465614 143.51562 33.16874 143.10938Q32.85624 142.6875 32.19999 142.45312ZM30.496862 145.90625L30.496862 142.4375Q29.699987 142.5 29.309362 142.82812Q28.699987 143.34375 28.699987 144.14062Q28.699987 144.875 29.184362 145.375Q29.668737 145.85938 30.496862 145.90625Z" fill-rule="nonzero"/><path fill="#000000" d="M76.7 388.5656Q76.7 387.03436 77.0125 386.1125Q77.325 385.175 77.93437 384.675Q78.55937 384.175 79.49687 384.175Q80.18437 384.175 80.7 384.45624Q81.23125 384.7375 81.575 385.26874Q81.91875 385.78436 82.10625 386.53436Q82.29375 387.28436 82.29375 388.5656Q82.29375 390.08124 81.98125 391.0031Q81.68437 391.925 81.05937 392.4406Q80.45 392.9406 79.49687 392.9406Q78.2625 392.9406 77.54375 392.05Q76.7 390.9875 76.7 388.5656ZM77.77812 388.5656Q77.77812 390.675 78.27812 391.3781Q78.77812 392.08124 79.49687 392.08124Q80.23125 392.08124 80.71562 391.3781Q81.21562 390.675 81.21562 388.5656Q81.21562 386.4406 80.71562 385.7531Q80.23125 385.05 79.48125 385.05Q78.7625 385.05 78.325 385.65936Q77.77812 386.4406 77.77812 388.5656Z" fill-rule="nonzero"/><path fill="#000000" d="M59.66875 303.15L58.621876 303.15L58.621876 296.43124Q58.23125 296.79062 57.60625 297.16562Q56.996876 297.525 56.5125 297.69687L56.5125 296.68124Q57.3875 296.25937 58.04375 295.68124Q58.715626 295.0875 58.996876 294.525L59.66875 294.525L59.66875 303.15ZM62.7 298.91562Q62.7 297.38437 63.0125 296.4625Q63.325 295.525 63.934376 295.025Q64.55937 294.525 65.49687 294.525Q66.18437 294.525 66.7 294.80624Q67.23125 295.0875 67.575 295.61874Q67.91875 296.13437 68.10625 296.88437Q68.29375 297.63437 68.29375 298.91562Q68.29375 300.43124 67.98125 301.35312Q67.68437 302.275 67.05937 302.79062Q66.45 303.29062 65.49687 303.29062Q64.2625 303.29062 63.54375 302.4Q62.7 301.3375 62.7 298.91562ZM63.778126 298.91562Q63.778126 301.025 64.27812 301.72812Q64.77812 302.43124 65.49687 302.43124Q66.23125 302.43124 66.71562 301.72812Q67.21562 301.025 67.21562 298.91562Q67.21562 296.79062 66.71562 296.10312Q66.23125 295.4 65.48125 295.4Q64.7625 295.4 64.325 296.00937Q63.778126 296.79062 63.778126 298.91562ZM69.7 298.91562Q69.7 297.38437 70.0125 296.4625Q70.325 295.525 70.93437 295.025Q71.55937 294.525 72.49687 294.525Q73.18437 294.525 73.7 294.80624Q74.23125 295.0875 74.575 295.61874Q74.91875 296.13437 75.10625 296.88437Q75.29375 297.63437 75.29375 298.91562Q75.29375 300.43124 74.98125 301.35312Q74.68437 302.275 74.05937 302.79062Q73.45 303.29062 72.49687 303.29062Q71.2625 303.29062 70.54375 302.4Q69.7 301.3375 69.7 298.91562ZM70.77812 298.91562Q70.77812 301.025 71.27812 301.72812Q71.77812 302.43124 72.49687 302.43124Q73.23125 302.43124 73.71562 301.72812Q74.21562 301.025 74.21562 298.91562Q74.21562 296.79062 73.71562 296.10312Q73.23125 295.4 72.48125 295.4Q71.7625 295.4 71.325 296.00937Q70.77812 296.79062 70.77812 298.91562ZM76.7 298.91562Q76.7 297.38437 77.0125 296.4625Q77.325 295.525 77.93437 295.025Q78.55937 294.525 79.49687 294.525Q80.18437 294.525 80.7 294.80624Q81.23125 295.0875 81.575 295.61874Q81.91875 296.13437 82.10625 296.88437Q82.29375 297.63437 82.29375 298.91562Q82.29375 300.43124 81.98125 301.35312Q81.68437 302.275 81.05937 302.79062Q80.45 303.29062 79.49687 303.29062Q78.2625 303.29062 77.54375 302.4Q76.7 301.3375 76.7 298.91562ZM77.77812 298.91562Q77.77812 301.025 78.27812 301.72812Q78.77812 302.43124 79.49687 302.43124Q80.23125 302.43124 80.71562 301.72812Q81.21562 301.025 81.21562 298.91562Q81.21562 296.79062 80.71562 296.10312Q80.23125 295.4 79.48125 295.4Q78.7625 295.4 78.325 296.00937Q77.77812 296.79062 77.77812 298.91562Z" fill-rule="nonzero"/><path fill="#000000" d="M61.246876 212.48438L61.246876 213.5L55.559376 213.5Q55.559376 213.125 55.684376 212.76562Q55.903126 212.1875 56.371876 211.625Q56.85625 211.0625 57.7625 210.32812Q59.16875 209.17188 59.653126 208.5Q60.153126 207.82812 60.153126 207.23438Q60.153126 206.60938 59.7 206.1875Q59.246876 205.75 58.528126 205.75Q57.7625 205.75 57.309376 206.20312Q56.85625 206.65625 56.840626 207.46875L55.7625 207.35938Q55.871876 206.14062 56.590626 205.51562Q57.325 204.875 58.559376 204.875Q59.79375 204.875 60.5125 205.5625Q61.23125 206.25 61.23125 207.26562Q61.23125 207.78125 61.0125 208.28125Q60.809376 208.76562 60.309376 209.32812Q59.825 209.875 58.7 210.82812Q57.746876 211.625 57.465626 211.92188Q57.2 212.20312 57.028126 212.48438L61.246876 212.48438ZM62.7 209.26562Q62.7 207.73438 63.0125 206.8125Q63.325 205.875 63.934376 205.375Q64.55937 204.875 65.49687 204.875Q66.18437 204.875 66.7 205.15625Q67.23125 205.4375 67.575 205.96875Q67.91875 206.48438 68.10625 207.23438Q68.29375 207.98438 68.29375 209.26562Q68.29375 210.78125 67.98125 211.70312Q67.68437 212.625 67.05937 213.14062Q66.45 213.64062 65.49687 213.64062Q64.2625 213.64062 63.54375 212.75Q62.7 211.6875 62.7 209.26562ZM63.778126 209.26562Q63.778126 211.375 64.27812 212.07812Q64.77812 212.78125 65.49687 212.78125Q66.23125 212.78125 66.71562 212.07812Q67.21562 211.375 67.21562 209.26562Q67.21562 207.14062 66.71562 206.45312Q66.23125 205.75 65.48125 205.75Q64.7625 205.75 64.325 206.35938Q63.778126 207.14062 63.778126 209.26562ZM69.7 209.26562Q69.7 207.73438 70.0125 206.8125Q70.325 205.875 70.93437 205.375Q71.55937 204.875 72.49687 204.875Q73.18437 204.875 73.7 205.15625Q74.23125 205.4375 74.575 205.96875Q74.91875 206.48438 75.10625 207.23438Q75.29375 207.98438 75.29375 209.26562Q75.29375 210.78125 74.98125 211.70312Q74.68437 212.625 74.05937 213.14062Q73.45 213.64062 72.49687 213.64062Q71.2625 213.64062 70.54375 212.75Q69.7 211.6875 69.7 209.26562ZM70.77812 209.26562Q70.77812 211.375 71.27812 212.07812Q71.77812 212.78125 72.49687 212.78125Q73.23125 212.78125 73.71562 212.07812Q74.21562 211.375 74.21562 209.26562Q74.21562 207.14062 73.71562 206.45312Q73.23125 205.75 72.48125 205.75Q71.7625 205.75 71.325 206.35938Q70.77812 207.14062 70.77812 209.26562ZM76.7 209.26562Q76.7 207.73438 77.0125 206.8125Q77.325 205.875 77.93437 205.375Q78.55937 204.875 79.49687 204.875Q80.18437 204.875 80.7 205.15625Q81.23125 205.4375 81.575 205.96875Q81.91875 206.48438 82.10625 207.23438Q82.29375 207.98438 82.29375 209.26562Q82.29375 210.78125 81.98125 211.70312Q81.68437 212.625 81.05937 213.14062Q80.45 213.64062 79.49687 213.64062Q78.2625 213.64062 77.54375 212.75Q76.7 211.6875 76.7 209.26562ZM77.77812 209.26562Q77.77812 211.375 78.27812 212.07812Q78.77812 212.78125 79.49687 212.78125Q80.23125 212.78125 80.71562 212.07812Q81.21562 211.375 81.21562 209.26562Q81.21562 207.14062 80.71562 206.45312Q80.23125 205.75 79.48125 205.75Q78.7625 205.75 78.325 206.35938Q77.77812 207.14062 77.77812 209.26562Z" fill-rule="nonzero"/><path fill="#000000" d="M55.7 121.58437L56.7625 121.44375Q56.934376 122.33437 57.371876 122.74062Q57.809376 123.13125 58.434376 123.13125Q59.184376 123.13125 59.7 122.61562Q60.215626 122.1 60.215626 121.33437Q60.215626 120.61562 59.73125 120.14687Q59.2625 119.6625 58.528126 119.6625Q58.23125 119.6625 57.778126 119.7875L57.903126 118.85Q58.0125 118.86562 58.075 118.86562Q58.746876 118.86562 59.278126 118.52187Q59.825 118.1625 59.825 117.42812Q59.825 116.85 59.434376 116.475Q59.04375 116.08437 58.41875 116.08437Q57.809376 116.08437 57.3875 116.475Q56.98125 116.86562 56.871876 117.63125L55.809376 117.44375Q55.996876 116.39687 56.684376 115.81875Q57.371876 115.225 58.3875 115.225Q59.090626 115.225 59.684376 115.5375Q60.278126 115.83437 60.590626 116.35Q60.903126 116.86562 60.903126 117.45937Q60.903126 118.00625 60.60625 118.475Q60.309376 118.92812 59.73125 119.19375Q60.48125 119.36562 60.903126 119.92812Q61.325 120.475 61.325 121.31875Q61.325 122.44375 60.496876 123.225Q59.684376 124.00625 58.434376 124.00625Q57.309376 124.00625 56.559376 123.33437Q55.809376 122.64687 55.7 121.58437ZM62.7 119.61562Q62.7 118.08437 63.0125 117.1625Q63.325 116.225 63.934376 115.725Q64.55937 115.225 65.49687 115.225Q66.18437 115.225 66.7 115.50625Q67.23125 115.7875 67.575 116.31875Q67.91875 116.83437 68.10625 117.58437Q68.29375 118.33437 68.29375 119.61562Q68.29375 121.13125 67.98125 122.05312Q67.68437 122.975 67.05937 123.49062Q66.45 123.99062 65.49687 123.99062Q64.2625 123.99062 63.54375 123.1Q62.7 122.0375 62.7 119.61562ZM63.778126 119.61562Q63.778126 121.725 64.27812 122.42812Q64.77812 123.13125 65.49687 123.13125Q66.23125 123.13125 66.71562 122.42812Q67.21562 121.725 67.21562 119.61562Q67.21562 117.49062 66.71562 116.80312Q66.23125 116.1 65.48125 116.1Q64.7625 116.1 64.325 116.70937Q63.778126 117.49062 63.778126 119.61562ZM69.7 119.61562Q69.7 118.08437 70.0125 117.1625Q70.325 116.225 70.93437 115.725Q71.55937 115.225 72.49687 115.225Q73.18437 115.225 73.7 115.50625Q74.23125 115.7875 74.575 116.31875Q74.91875 116.83437 75.10625 117.58437Q75.29375 118.33437 75.29375 119.61562Q75.29375 121.13125 74.98125 122.05312Q74.68437 122.975 74.05937 123.49062Q73.45 123.99062 72.49687 123.99062Q71.2625 123.99062 70.54375 123.1Q69.7 122.0375 69.7 119.61562ZM70.77812 119.61562Q70.77812 121.725 71.27812 122.42812Q71.77812 123.13125 72.49687 123.13125Q73.23125 123.13125 73.71562 122.42812Q74.21562 121.725 74.21562 119.61562Q74.21562 117.49062 73.71562 116.80312Q73.23125 116.1 72.48125 116.1Q71.7625 116.1 71.325 116.70937Q70.77812 117.49062 70.77812 119.61562ZM76.7 119.61562Q76.7 118.08437 77.0125 117.1625Q77.325 116.225 77.93437 115.725Q78.55937 115.225 79.49687 115.225Q80.18437 115.225 80.7 115.50625Q81.23125 115.7875 81.575 116.31875Q81.91875 116.83437 82.10625 117.58437Q82.29375 118.33437 82.29375 119.61562Q82.29375 121.13125 81.98125 122.05312Q81.68437 122.975 81.05937 123.49062Q80.45 123.99062 79.49687 123.99062Q78.2625 123.99062 77.54375 123.1Q76.7 122.0375 76.7 119.61562ZM77.77812 119.61562Q77.77812 121.725 78.27812 122.42812Q78.77812 123.13125 79.49687 123.13125Q80.23125 123.13125 80.71562 122.42812Q81.21562 121.725 81.21562 119.61562Q81.21562 117.49062 80.71562 116.80312Q80.23125 116.1 79.48125 116.1Q78.7625 116.1 78.325 116.70937Q77.77812 117.49062 77.77812 119.61562Z" fill-rule="nonzero"/><path fill="#000000" d="M59.075 34.2L59.075 32.1375L55.35625 32.1375L55.35625 31.16875L59.278126 25.60625L60.1375 25.60625L60.1375 31.16875L61.29375 31.16875L61.29375 32.1375L60.1375 32.1375L60.1375 34.2L59.075 34.2ZM59.075 31.16875L59.075 27.309376L56.3875 31.16875L59.075 31.16875ZM62.7 29.965626Q62.7 28.434376 63.0125 27.5125Q63.325 26.575 63.934376 26.075Q64.55937 25.575 65.49687 25.575Q66.18437 25.575 66.7 25.85625Q67.23125 26.1375 67.575 26.66875Q67.91875 27.184376 68.10625 27.934376Q68.29375 28.684376 68.29375 29.965626Q68.29375 31.48125 67.98125 32.403126Q67.68437 33.325 67.05937 33.840626Q66.45 34.340626 65.49687 34.340626Q64.2625 34.340626 63.54375 33.45Q62.7 32.3875 62.7 29.965626ZM63.778126 29.965626Q63.778126 32.075 64.27812 32.778126Q64.77812 33.48125 65.49687 33.48125Q66.23125 33.48125 66.71562 32.778126Q67.21562 32.075 67.21562 29.965626Q67.21562 27.840626 66.71562 27.153126Q66.23125 26.45 65.48125 26.45Q64.7625 26.45 64.325 27.059376Q63.778126 27.840626 63.778126 29.965626ZM69.7 29.965626Q69.7 28.434376 70.0125 27.5125Q70.325 26.575 70.93437 26.075Q71.55937 25.575 72.49687 25.575Q73.18437 25.575 73.7 25.85625Q74.23125 26.1375 74.575 26.66875Q74.91875 27.184376 75.10625 27.934376Q75.29375 28.684376 75.29375 29.965626Q75.29375 31.48125 74.98125 32.403126Q74.68437 33.325 74.05937 33.840626Q73.45 34.340626 72.49687 34.340626Q71.2625 34.340626 70.54375 33.45Q69.7 32.3875 69.7 29.965626ZM70.77812 29.965626Q70.77812 32.075 71.27812 32.778126Q71.77812 33.48125 72.49687 33.48125Q73.23125 33.48125 73.71562 32.778126Q74.21562 32.075 74.21562 29.965626Q74.21562 27.840626 73.71562 27.153126Q73.23125 26.45 72.48125 26.45Q71.7625 26.45 71.325 27.059376Q70.77812 27.840626 70.77812 29.965626ZM76.7 29.965626Q76.7 28.434376 77.0125 27.5125Q77.325 26.575 77.93437 26.075Q78.55937 25.575 79.49687 25.575Q80.18437 25.575 80.7 25.85625Q81.23125 26.1375 81.575 26.66875Q81.91875 27.184376 82.10625 27.934376Q82.29375 28.684376 82.29375 29.965626Q82.29375 31.48125 81.98125 32.403126Q81.68437 33.325 81.05937 33.840626Q80.45 34.340626 79.49687 34.340626Q78.2625 34.340626 77.54375 33.45Q76.7 32.3875 76.7 29.965626ZM77.77812 29.965626Q77.77812 32.075 78.27812 32.778126Q78.77812 33.48125 79.49687 33.48125Q80.23125 33.48125 80.71562 32.778126Q81.21562 32.075 81.21562 29.965626Q81.21562 27.840626 80.71562 27.153126Q80.23125 26.45 79.48125 26.45Q78.7625 26.45 78.325 27.059376Q77.77812 27.840626 77.77812 29.965626Z" fill-rule="nonzero"/><path fill="#000000" d="M116.87919 405.8L115.83231 405.8L115.83231 399.08124Q115.44169 399.4406 114.81669 399.8156Q114.20731 400.175 113.72294 400.34686L113.72294 399.33124Q114.59794 398.90936 115.25419 398.33124Q115.92606 397.7375 116.20731 397.175L116.87919 397.175L116.87919 405.8ZM120.06669 403.8156L121.08231 403.72186Q121.20731 404.4406 121.56669 404.76874Q121.94169 405.08124 122.50419 405.08124Q122.98856 405.08124 123.34794 404.8625Q123.72294 404.6281 123.95731 404.26874Q124.19169 403.89374 124.34794 403.26874Q124.50419 402.6281 124.50419 401.97186Q124.50419 401.89374 124.50419 401.7531Q124.19169 402.2531 123.64481 402.58124Q123.09794 402.89374 122.45731 402.89374Q121.37919 402.89374 120.64481 402.1281Q119.91044 401.34686 119.91044 400.08124Q119.91044 398.76874 120.67606 397.97186Q121.45731 397.175 122.61356 397.175Q123.44169 397.175 124.12919 397.6281Q124.83231 398.08124 125.19169 398.925Q125.55106 399.7531 125.55106 401.33124Q125.55106 402.97186 125.19169 403.95624Q124.84794 404.925 124.12919 405.4406Q123.42606 405.9406 122.48856 405.9406Q121.47294 405.9406 120.83231 405.39374Q120.19169 404.83124 120.06669 403.8156ZM124.37919 400.01874Q124.37919 399.1125 123.89481 398.58124Q123.42606 398.05 122.73856 398.05Q122.03544 398.05 121.50419 398.6281Q120.98856 399.1906 120.98856 400.1125Q120.98856 400.925 121.48856 401.4406Q121.98856 401.95624 122.70731 401.95624Q123.44169 401.95624 123.91044 401.4406Q124.37919 400.925 124.37919 400.01874ZM127.06669 403.8156L128.0823 403.72186Q128.2073 404.4406 128.56668 404.76874Q128.94168 405.08124 129.50418 405.08124Q129.98856 405.08124 130.34793 404.8625Q130.72293 404.6281 130.9573 404.26874Q131.19168 403.89374 131.34793 403.26874Q131.50418 402.6281 131.50418 401.97186Q131.50418 401.89374 131.50418 401.7531Q131.19168 402.2531 130.6448 402.58124Q130.09793 402.89374 129.4573 402.89374Q128.37918 402.89374 127.64481 402.1281Q126.91044 401.34686 126.91044 400.08124Q126.91044 398.76874 127.67606 397.97186Q128.4573 397.175 129.61356 397.175Q130.44168 397.175 131.12918 397.6281Q131.8323 398.08124 132.19168 398.925Q132.55106 399.7531 132.55106 401.33124Q132.55106 402.97186 132.19168 403.95624Q131.84793 404.925 131.12918 405.4406Q130.42606 405.9406 129.48856 405.9406Q128.47293 405.9406 127.83231 405.39374Q127.19169 404.83124 127.06669 403.8156ZM131.37918 400.01874Q131.37918 399.1125 130.8948 398.58124Q130.42606 398.05 129.73856 398.05Q129.03543 398.05 128.50418 398.6281Q127.98856 399.1906 127.98856 400.1125Q127.98856 400.925 128.48856 401.4406Q128.98856 401.95624 129.7073 401.95624Q130.44168 401.95624 130.91043 401.4406Q131.37918 400.925 131.37918 400.01874ZM133.91043 403.55L135.0198 403.45624Q135.1448 404.26874 135.5823 404.675Q136.03543 405.08124 136.67606 405.08124Q137.42606 405.08124 137.9573 404.5031Q138.48856 403.925 138.48856 402.9875Q138.48856 402.08124 137.97293 401.5656Q137.47293 401.03436 136.6448 401.03436Q136.1448 401.03436 135.72293 401.26874Q135.31668 401.5031 135.0823 401.8625L134.09793 401.7375L134.92606 397.33124L139.2073 397.33124L139.2073 398.33124L135.7698 398.33124L135.31668 400.64374Q136.0823 400.09686 136.92606 400.09686Q138.05106 400.09686 138.81668 400.8781Q139.59793 401.65936 139.59793 402.89374Q139.59793 404.05 138.92606 404.90936Q138.09793 405.9406 136.67606 405.9406Q135.50418 405.9406 134.75418 405.28436Q134.0198 404.6281 133.91043 403.55Z" fill-rule="nonzero"/><path fill="#000000" d="M242.37831 404.78436L242.37831 405.8L236.69081 405.8Q236.69081 405.425 236.81581 405.0656Q237.03456 404.4875 237.50331 403.925Q237.98769 403.3625 238.89394 402.6281Q240.30019 401.47186 240.78456 400.8Q241.28456 400.1281 241.28456 399.53436Q241.28456 398.90936 240.83144 398.4875Q240.37831 398.05 239.65956 398.05Q238.89394 398.05 238.44081 398.5031Q237.98769 398.95624 237.97206 399.76874L236.89394 399.65936Q237.00331 398.4406 237.72206 397.8156Q238.45644 397.175 239.69081 397.175Q240.92519 397.175 241.64394 397.8625Q242.36269 398.55 242.36269 399.5656Q242.36269 400.08124 242.14394 400.58124Q241.94081 401.0656 241.44081 401.6281Q240.95644 402.175 239.83144 403.1281Q238.87831 403.925 238.59706 404.22186Q238.33144 404.5031 238.15956 404.78436L242.37831 404.78436ZM243.83144 401.5656Q243.83144 400.03436 244.14394 399.1125Q244.45644 398.175 245.06581 397.675Q245.69081 397.175 246.62831 397.175Q247.31581 397.175 247.83144 397.45624Q248.36269 397.7375 248.70644 398.26874Q249.05019 398.78436 249.23769 399.53436Q249.42519 400.28436 249.42519 401.5656Q249.42519 403.08124 249.11269 404.0031Q248.81581 404.925 248.19081 405.4406Q247.58144 405.9406 246.62831 405.9406Q245.39394 405.9406 244.67519 405.05Q243.83144 403.9875 243.83144 401.5656ZM244.90956 401.5656Q244.90956 403.675 245.40956 404.3781Q245.90956 405.08124 246.62831 405.08124Q247.36269 405.08124 247.84706 404.3781Q248.34706 403.675 248.34706 401.5656Q248.34706 399.4406 247.84706 398.7531Q247.36269 398.05 246.61269 398.05Q245.89394 398.05 245.45644 398.65936Q244.90956 399.4406 244.90956 401.5656ZM250.83144 401.5656Q250.83144 400.03436 251.14394 399.1125Q251.45644 398.175 252.06581 397.675Q252.69081 397.175 253.62831 397.175Q254.31581 397.175 254.83144 397.45624Q255.36269 397.7375 255.70644 398.26874Q256.05017 398.78436 256.23767 399.53436Q256.42517 400.28436 256.42517 401.5656Q256.42517 403.08124 256.11267 404.0031Q255.81581 404.925 255.19081 405.4406Q254.58144 405.9406 253.62831 405.9406Q252.39394 405.9406 251.67519 405.05Q250.83144 403.9875 250.83144 401.5656ZM251.90956 401.5656Q251.90956 403.675 252.40956 404.3781Q252.90956 405.08124 253.62831 405.08124Q254.36269 405.08124 254.84706 404.3781Q255.34706 403.675 255.34706 401.5656Q255.34706 399.4406 254.84706 398.7531Q254.36269 398.05 253.61269 398.05Q252.89394 398.05 252.45644 398.65936Q251.90956 399.4406 251.90956 401.5656ZM257.83142 401.5656Q257.83142 400.03436 258.14392 399.1125Q258.45642 398.175 259.0658 397.675Q259.6908 397.175 260.6283 397.175Q261.3158 397.175 261.83142 397.45624Q262.36267 397.7375 262.70642 398.26874Q263.05017 398.78436 263.23767 399.53436Q263.42517 400.28436 263.42517 401.5656Q263.42517 403.08124 263.11267 404.0031Q262.8158 404.925 262.1908 405.4406Q261.58142 405.9406 260.6283 405.9406Q259.39392 405.9406 258.67517 405.05Q257.83142 403.9875 257.83142 401.5656ZM258.90955 401.5656Q258.90955 403.675 259.40955 404.3781Q259.90955 405.08124 260.6283 405.08124Q261.36267 405.08124 261.84705 404.3781Q262.34705 403.675 262.34705 401.5656Q262.34705 399.4406 261.84705 398.7531Q261.36267 398.05 260.61267 398.05Q259.89392 398.05 259.45642 398.65936Q258.90955 399.4406 258.90955 401.5656Z" fill-rule="nonzero"/><path fill="#000000" d="M366.29932 404.78436L366.29932 405.8L360.61182 405.8Q360.61182 405.425 360.73682 405.0656Q360.95557 404.4875 361.42432 403.925Q361.9087 403.3625 362.81494 402.6281Q364.2212 401.47186 364.70557 400.8Q365.20557 400.1281 365.20557 399.53436Q365.20557 398.90936 364.75244 398.4875Q364.29932 398.05 363.58057 398.05Q362.81494 398.05 362.36182 398.5031Q361.9087 398.95624 361.89307 399.76874L360.81494 399.65936Q360.92432 398.4406 361.64307 397.8156Q362.37744 397.175 363.61182 397.175Q364.8462 397.175 365.56494 397.8625Q366.2837 398.55 366.2837 399.5656Q366.2837 400.08124 366.06494 400.58124Q365.86182 401.0656 365.36182 401.6281Q364.87744 402.175 363.75244 403.1281Q362.79932 403.925 362.51807 404.22186Q362.25244 404.5031 362.08057 404.78436L366.29932 404.78436ZM367.75244 401.5656Q367.75244 400.03436 368.06494 399.1125Q368.37744 398.175 368.98682 397.675Q369.61182 397.175 370.54932 397.175Q371.23682 397.175 371.75244 397.45624Q372.2837 397.7375 372.62744 398.26874Q372.9712 398.78436 373.1587 399.53436Q373.3462 400.28436 373.3462 401.5656Q373.3462 403.08124 373.0337 404.0031Q372.73682 404.925 372.11182 405.4406Q371.50244 405.9406 370.54932 405.9406Q369.31494 405.9406 368.5962 405.05Q367.75244 403.9875 367.75244 401.5656ZM368.83057 401.5656Q368.83057 403.675 369.33057 404.3781Q369.83057 405.08124 370.54932 405.08124Q371.2837 405.08124 371.76807 404.3781Q372.26807 403.675 372.26807 401.5656Q372.26807 399.4406 371.76807 398.7531Q371.2837 398.05 370.5337 398.05Q369.81494 398.05 369.37744 398.65936Q368.83057 399.4406 368.83057 401.5656ZM374.75244 401.5656Q374.75244 400.03436 375.06494 399.1125Q375.37744 398.175 375.98682 397.675Q376.61182 397.175 377.54932 397.175Q378.23682 397.175 378.75244 397.45624Q379.2837 397.7375 379.62744 398.26874Q379.9712 398.78436 380.1587 399.53436Q380.3462 400.28436 380.3462 401.5656Q380.3462 403.08124 380.0337 404.0031Q379.73682 404.925 379.11182 405.4406Q378.50244 405.9406 377.54932 405.9406Q376.31494 405.9406 375.5962 405.05Q374.75244 403.9875 374.75244 401.5656ZM375.83057 401.5656Q375.83057 403.675 376.33057 404.3781Q376.83057 405.08124 377.54932 405.08124Q378.2837 405.08124 378.76807 404.3781Q379.26807 403.675 379.26807 401.5656Q379.26807 399.4406 378.76807 398.7531Q378.2837 398.05 377.5337 398.05Q376.81494 398.05 376.37744 398.65936Q375.83057 399.4406 375.83057 401.5656ZM381.75244 403.55L382.86182 403.45624Q382.98682 404.26874 383.42432 404.675Q383.87744 405.08124 384.51807 405.08124Q385.26807 405.08124 385.79932 404.5031Q386.33057 403.925 386.33057 402.9875Q386.33057 402.08124 385.81494 401.5656Q385.31494 401.03436 384.48682 401.03436Q383.98682 401.03436 383.56494 401.26874Q383.1587 401.5031 382.92432 401.8625L381.93994 401.7375L382.76807 397.33124L387.04932 397.33124L387.04932 398.33124L383.61182 398.33124L383.1587 400.64374Q383.92432 400.09686 384.76807 400.09686Q385.89307 400.09686 386.6587 400.8781Q387.43994 401.65936 387.43994 402.89374Q387.43994 404.05 386.76807 404.90936Q385.93994 405.9406 384.51807 405.9406Q383.3462 405.9406 382.5962 405.28436Q381.86182 404.6281 381.75244 403.55Z" fill-rule="nonzero"/><path fill="#000000" d="M490.22034 404.78436L490.22034 405.8L484.53284 405.8Q484.53284 405.425 484.65784 405.0656Q484.8766 404.4875 485.34534 403.925Q485.8297 403.3625 486.73596 402.6281Q488.1422 401.47186 488.6266 400.8Q489.1266 400.1281 489.1266 399.53436Q489.1266 398.90936 488.67346 398.4875Q488.22034 398.05 487.5016 398.05Q486.73596 398.05 486.28284 398.5031Q485.8297 398.95624 485.8141 399.76874L484.73596 399.65936Q484.84534 398.4406 485.5641 397.8156Q486.29846 397.175 487.53284 397.175Q488.7672 397.175 489.48596 397.8625Q490.2047 398.55 490.2047 399.5656Q490.2047 400.08124 489.98596 400.58124Q489.78284 401.0656 489.28284 401.6281Q488.79846 402.175 487.67346 403.1281Q486.72034 403.925 486.4391 404.22186Q486.17346 404.5031 486.0016 404.78436L490.22034 404.78436ZM491.67346 401.5656Q491.67346 400.03436 491.98596 399.1125Q492.29846 398.175 492.90784 397.675Q493.53284 397.175 494.47034 397.175Q495.15784 397.175 495.67346 397.45624Q496.2047 397.7375 496.54846 398.26874Q496.8922 398.78436 497.0797 399.53436Q497.2672 400.28436 497.2672 401.5656Q497.2672 403.08124 496.9547 404.0031Q496.65784 404.925 496.03284 405.4406Q495.42346 405.9406 494.47034 405.9406Q493.23596 405.9406 492.5172 405.05Q491.67346 403.9875 491.67346 401.5656ZM492.7516 401.5656Q492.7516 403.675 493.2516 404.3781Q493.7516 405.08124 494.47034 405.08124Q495.2047 405.08124 495.6891 404.3781Q496.1891 403.675 496.1891 401.5656Q496.1891 399.4406 495.6891 398.7531Q495.2047 398.05 494.4547 398.05Q493.73596 398.05 493.29846 398.65936Q492.7516 399.4406 492.7516 401.5656ZM502.6422 405.8L501.59534 405.8L501.59534 399.08124Q501.2047 399.4406 500.5797 399.8156Q499.97034 400.175 499.48596 400.34686L499.48596 399.33124Q500.36096 398.90936 501.0172 398.33124Q501.6891 397.7375 501.97034 397.175L502.6422 397.175L502.6422 405.8ZM505.67346 401.5656Q505.67346 400.03436 505.98596 399.1125Q506.29846 398.175 506.90784 397.675Q507.53284 397.175 508.47034 397.175Q509.15784 397.175 509.67346 397.45624Q510.2047 397.7375 510.54846 398.26874Q510.8922 398.78436 511.0797 399.53436Q511.2672 400.28436 511.2672 401.5656Q511.2672 403.08124 510.9547 404.0031Q510.65784 404.925 510.03284 405.4406Q509.42346 405.9406 508.47034 405.9406Q507.23596 405.9406 506.5172 405.05Q505.67346 403.9875 505.67346 401.5656ZM506.7516 401.5656Q506.7516 403.675 507.2516 404.3781Q507.7516 405.08124 508.47034 405.08124Q509.2047 405.08124 509.6891 404.3781Q510.1891 403.675 510.1891 401.5656Q510.1891 399.4406 509.6891 398.7531Q509.2047 398.05 508.4547 398.05Q507.73596 398.05 507.29846 398.65936Q506.7516 399.4406 506.7516 401.5656Z" fill-rule="nonzero"/><path fill="#000000" d="M614.14136 404.78436L614.14136 405.8L608.45386 405.8Q608.45386 405.425 608.57886 405.0656Q608.7976 404.4875 609.26636 403.925Q609.75073 403.3625 610.657 402.6281Q612.06323 401.47186 612.5476 400.8Q613.0476 400.1281 613.0476 399.53436Q613.0476 398.90936 612.5945 398.4875Q612.14136 398.05 611.4226 398.05Q610.657 398.05 610.20386 398.5031Q609.75073 398.95624 609.7351 399.76874L608.657 399.65936Q608.76636 398.4406 609.4851 397.8156Q610.2195 397.175 611.45386 397.175Q612.68823 397.175 613.407 397.8625Q614.12573 398.55 614.12573 399.5656Q614.12573 400.08124 613.907 400.58124Q613.70386 401.0656 613.20386 401.6281Q612.7195 402.175 611.5945 403.1281Q610.64136 403.925 610.3601 404.22186Q610.0945 404.5031 609.9226 404.78436L614.14136 404.78436ZM615.5945 401.5656Q615.5945 400.03436 615.907 399.1125Q616.2195 398.175 616.82886 397.675Q617.45386 397.175 618.39136 397.175Q619.07886 397.175 619.5945 397.45624Q620.12573 397.7375 620.4695 398.26874Q620.81323 398.78436 621.00073 399.53436Q621.18823 400.28436 621.18823 401.5656Q621.18823 403.08124 620.87573 404.0031Q620.57886 404.925 619.95386 405.4406Q619.3445 405.9406 618.39136 405.9406Q617.157 405.9406 616.43823 405.05Q615.5945 403.9875 615.5945 401.5656ZM616.6726 401.5656Q616.6726 403.675 617.1726 404.3781Q617.6726 405.08124 618.39136 405.08124Q619.12573 405.08124 619.6101 404.3781Q620.1101 403.675 620.1101 401.5656Q620.1101 399.4406 619.6101 398.7531Q619.12573 398.05 618.37573 398.05Q617.657 398.05 617.2195 398.65936Q616.6726 399.4406 616.6726 401.5656ZM626.56323 405.8L625.51636 405.8L625.51636 399.08124Q625.12573 399.4406 624.50073 399.8156Q623.89136 400.175 623.407 400.34686L623.407 399.33124Q624.282 398.90936 624.93823 398.33124Q625.6101 397.7375 625.89136 397.175L626.56323 397.175L626.56323 405.8ZM629.5945 403.55L630.70386 403.45624Q630.82886 404.26874 631.26636 404.675Q631.7195 405.08124 632.3601 405.08124Q633.1101 405.08124 633.64136 404.5031Q634.1726 403.925 634.1726 402.9875Q634.1726 402.08124 633.657 401.5656Q633.157 401.03436 632.32886 401.03436Q631.82886 401.03436 631.407 401.26874Q631.00073 401.5031 630.76636 401.8625L629.782 401.7375L630.6101 397.33124L634.89136 397.33124L634.89136 398.33124L631.45386 398.33124L631.00073 400.64374Q631.76636 400.09686 632.6101 400.09686Q633.7351 400.09686 634.50073 400.8781Q635.282 401.65936 635.282 402.89374Q635.282 404.05 634.6101 404.90936Q633.782 405.9406 632.3601 405.9406Q631.18823 405.9406 630.43823 405.28436Q629.70386 404.6281 629.5945 403.55Z" fill-rule="nonzero"/><path fill="#000000" d="M738.0623 404.78436L738.0623 405.8L732.3748 405.8Q732.3748 405.425 732.4998 405.0656Q732.71857 404.4875 733.1873 403.925Q733.6717 403.3625 734.57794 402.6281Q735.9842 401.47186 736.46857 400.8Q736.96857 400.1281 736.96857 399.53436Q736.96857 398.90936 736.51544 398.4875Q736.0623 398.05 735.34357 398.05Q734.57794 398.05 734.1248 398.5031Q733.6717 398.95624 733.65607 399.76874L732.57794 399.65936Q732.6873 398.4406 733.40607 397.8156Q734.14044 397.175 735.3748 397.175Q736.6092 397.175 737.32794 397.8625Q738.0467 398.55 738.0467 399.5656Q738.0467 400.08124 737.82794 400.58124Q737.6248 401.0656 737.1248 401.6281Q736.64044 402.175 735.51544 403.1281Q734.5623 403.925 734.28107 404.22186Q734.01544 404.5031 733.84357 404.78436L738.0623 404.78436ZM739.51544 401.5656Q739.51544 400.03436 739.82794 399.1125Q740.14044 398.175 740.7498 397.675Q741.3748 397.175 742.3123 397.175Q742.9998 397.175 743.51544 397.45624Q744.0467 397.7375 744.39044 398.26874Q744.7342 398.78436 744.9217 399.53436Q745.1092 400.28436 745.1092 401.5656Q745.1092 403.08124 744.7967 404.0031Q744.4998 404.925 743.8748 405.4406Q743.26544 405.9406 742.3123 405.9406Q741.07794 405.9406 740.3592 405.05Q739.51544 403.9875 739.51544 401.5656ZM740.59357 401.5656Q740.59357 403.675 741.09357 404.3781Q741.59357 405.08124 742.3123 405.08124Q743.0467 405.08124 743.53107 404.3781Q744.03107 403.675 744.03107 401.5656Q744.03107 399.4406 743.53107 398.7531Q743.0467 398.05 742.2967 398.05Q741.57794 398.05 741.14044 398.65936Q740.59357 399.4406 740.59357 401.5656ZM752.0623 404.78436L752.0623 405.8L746.3748 405.8Q746.3748 405.425 746.4998 405.0656Q746.71857 404.4875 747.1873 403.925Q747.6717 403.3625 748.57794 402.6281Q749.9842 401.47186 750.46857 400.8Q750.96857 400.1281 750.96857 399.53436Q750.96857 398.90936 750.51544 398.4875Q750.0623 398.05 749.34357 398.05Q748.57794 398.05 748.1248 398.5031Q747.6717 398.95624 747.65607 399.76874L746.57794 399.65936Q746.6873 398.4406 747.40607 397.8156Q748.14044 397.175 749.3748 397.175Q750.6092 397.175 751.32794 397.8625Q752.0467 398.55 752.0467 399.5656Q752.0467 400.08124 751.82794 400.58124Q751.6248 401.0656 751.1248 401.6281Q750.64044 402.175 749.51544 403.1281Q748.5623 403.925 748.28107 404.22186Q748.01544 404.5031 747.84357 404.78436L752.0623 404.78436ZM753.51544 401.5656Q753.51544 400.03436 753.82794 399.1125Q754.14044 398.175 754.7498 397.675Q755.3748 397.175 756.3123 397.175Q756.9998 397.175 757.51544 397.45624Q758.0467 397.7375 758.39044 398.26874Q758.7342 398.78436 758.9217 399.53436Q759.1092 400.28436 759.1092 401.5656Q759.1092 403.08124 758.7967 404.0031Q758.4998 404.925 757.8748 405.4406Q757.26544 405.9406 756.3123 405.9406Q755.07794 405.9406 754.3592 405.05Q753.51544 403.9875 753.51544 401.5656ZM754.59357 401.5656Q754.59357 403.675 755.09357 404.3781Q755.59357 405.08124 756.3123 405.08124Q757.0467 405.08124 757.53107 404.3781Q758.03107 403.675 758.03107 401.5656Q758.03107 399.4406 757.53107 398.7531Q757.0467 398.05 756.2967 398.05Q755.57794 398.05 755.14044 398.65936Q754.59357 399.4406 754.59357 401.5656Z" fill-rule="nonzero"/></svg>