<svg version="1.1" viewBox="0.0 0.0 827.0 464.0" fill="none" stroke="none" stroke-linecap="square" stroke-miterlimit="10" width="827" height="464" xmlns:xlink="http://www.w3.org/1999/xlink" xmlns="http://www.w3.org/2000/svg"><path fill="#ffffff" d="M0 0L827.0 0L827.0 464.0L0 464.0L0 0Z" fill-rule="nonzero"/><path stroke="#cccccc" stroke-width="1.0" stroke-linecap="butt" d="M127.5 30.5L127.5 388.5" fill-rule="nonzero"/><path stroke="#cccccc" stroke-width="1.0" stroke-linecap="butt" d="M256.5 30.5L256.5 388.5" fill-rule="nonzero"/><path stroke="#cccccc" stroke-width="1.0" stroke-linecap="butt" d="M384.5 30.5L384.5 388.5" fill-rule="nonzero"/><path stroke="#cccccc" stroke-width="1.0" stroke-linecap="butt" d="M512.5 30.5L512.5 388.5" fill-rule="nonzero"/><path stroke="#cccccc" stroke-width="1.0" stroke-linecap="butt" d="M641.5 30.5L641.5 388.5" fill-rule="nonzero"/><path stroke="#cccccc" stroke-width="1.0" stroke-linecap="butt" d="M769.5 30.5L769.5 388.5" fill-rule="nonzero"/><path stroke="#e6e6e6" stroke-width="1.0" stroke-linecap="butt" d="M102.5 30.5L102.5 388.5" fill-rule="nonzero"/><path stroke="#e6e6e6" stroke-width="1.0" stroke-linecap="butt" d="M153.5 30.5L153.5 388.5" fill-rule="nonzero"/><path stroke="#e6e6e6" stroke-width="1.0" stroke-linecap="butt" d="M179.5 30.5L179.5 388.5" fill-rule="nonzero"/><path stroke="#e6e6e6" stroke-width="1.0" stroke-linecap="butt" d="M204.5 30.5L204.5 388.5" fill-rule="nonzero"/><path stroke="#e6e6e6" stroke-width="1.0" stroke-linecap="butt" d="M230.5 30.5L230.5 388.5" fill-rule="nonzero"/><path stroke="#e6e6e6" stroke-width="1.0" stroke-linecap="butt" d="M281.5 30.5L281.5 388.5" fill-rule="nonzero"/><path stroke="#e6e6e6" stroke-width="1.0" stroke-linecap="butt" d="M307.5 30.5L307.5 388.5" fill-rule="nonzero"/><path stroke="#e6e6e6" stroke-width="1.0" stroke-linecap="butt" d="M333.5 30.5L333.5 388.5" fill-rule="nonzero"/><path stroke="#e6e6e6" stroke-width="1.0" stroke-linecap="butt" d="M358.5 30.5L358.5 388.5" fill-rule="nonzero"/><path stroke="#e6e6e6" stroke-width="1.0" stroke-linecap="butt" d="M410.5 30.5L410.5 388.5" fill-rule="nonzero"/><path stroke="#e6e6e6" stroke-width="1.0" stroke-linecap="butt" d="M435.5 30.5L435.5 388.5" fill-rule="nonzero"/><path stroke="#e6e6e6" stroke-width="1.0" stroke-linecap="butt" d="M461.5 30.5L461.5 388.5" fill-rule="nonzero"/><path stroke="#e6e6e6" stroke-width="1.0" stroke-linecap="butt" d="M487.5 30.5L487.5 388.5" fill-rule="nonzero"/><path stroke="#e6e6e6" stroke-width="1.0" stroke-linecap="butt" d="M538.5 30.5L538.5 388.5" fill-rule="nonzero"/><path stroke="#e6e6e6" stroke-width="1.0" stroke-linecap="butt" d="M564.5 30.5L564.5 388.5" fill-rule="nonzero"/><path stroke="#e6e6e6" stroke-width="1.0" stroke-linecap="butt" d="M589.5 30.5L589.5 388.5" fill-rule="nonzero"/><path stroke="#e6e6e6" stroke-width="1.0" stroke-linecap="butt" d="M615.5 30.5L615.5 388.5" fill-rule="nonzero"/><path stroke="#e6e6e6" stroke-width="1.0" stroke-linecap="butt" d="M666.5 30.5L666.5 388.5" fill-rule="nonzero"/><path stroke="#e6e6e6" stroke-width="1.0" stroke-linecap="butt" d="M692.5 30.5L692.5 388.5" fill-rule="nonzero"/><path stroke="#e6e6e6" stroke-width="1.0" stroke-linecap="butt" d="M718.5 30.5L718.5 388.5" fill-rule="nonzero"/><path stroke="#e6e6e6" stroke-width="1.0" stroke-linecap="butt" d="M743.5 30.5L743.5 388.5" fill-rule="nonzero"/><path stroke="#e6e6e6" stroke-width="1.0" stroke-linecap="butt" d="M795.5 30.5L795.5 388.5" fill-rule="nonzero"/><path stroke="#333333" stroke-width="1.0" stroke-linecap="butt" d="M89.5 388.5L803.5 388.5" fill-rule="nonzero"/><path stroke="#cccccc" stroke-width="1.0" stroke-linecap="butt" d="M89.5 299.5L803.5 299.5" fill-rule="nonzero"/><path stroke="#cccccc" stroke-width="1.0" stroke-linecap="butt" d="M89.5 209.5L803.5 209.5" fill-rule="nonzero"/><path stroke="#cccccc" stroke-width="1.0" stroke-linecap="butt" d="M89.5 119.5L803.5 119.5" fill-rule="nonzero"/><path stroke="#cccccc" stroke-width="1.0" stroke-linecap="butt" d="M89.5 30.5L803.5 30.5" fill-rule="nonzero"/><clipPath id="id_0"><path d="M89.2 30.2L803.8 30.2L803.8 388.8L89.2 388.8L89.2 30.2Z" clip-rule="nonzero"/></clipPath><path stroke="#93c47d" stroke-width="4.0" stroke-linecap="butt" clip-path="url(#id_0)" d="M89.2 146.3864C89.2 146.3864 103.45602 123.03878 110.58403 115.5468C117.712036 108.054825 127.70048 101.62081 136.2587 98.60295C144.81693 95.58509 153.438 97.89998 161.98047 97.4375C170.52292 96.97502 179.06538 93.4977 187.60785 95.8238C196.15031 98.149895 204.7245 108.56906 213.28271 111.4229C221.84094 114.27674 230.39917 108.94945 238.9574 112.94695C247.51561 116.94445 256.8401 128.07559 264.67914 135.4491C272.5182 142.82262 280.35724 153.74304 288.1963 159.1167C296.03534 164.49036 307.4232 168.31453 315.9814 169.24715C324.53964 170.17976 333.09787 169.24141 341.6561 165.48186C350.2143 161.72229 358.8354 148.10812 367.37784 146.65535C375.92032 145.20258 384.46277 148.1324 393.00525 156.69615C401.5477 165.2599 410.1219 185.77269 418.6801 198.11446C427.2383 210.45622 435.79654 226.02417 444.35477 230.74706C452.913 235.46992 461.53406 228.86177 470.07654 226.44385C478.619 224.02592 487.16147 217.3007 495.70392 216.22375C504.2464 215.14679 512.82056 218.43512 521.3788 219.98904C529.937 221.54298 538.49524 225.18771 547.05347 225.54735C555.6117 225.90698 564.2328 222.81094 572.7752 222.14066C581.3177 221.47035 589.86017 221.9458 598.4026 221.5131C606.94507 221.0804 615.5193 219.4661 624.07745 219.5408C632.6357 219.61551 641.1939 224.60045 649.75214 221.96135C658.31036 219.32225 666.93146 207.72571 675.47394 203.67274C684.01636 199.6198 692.55884 200.8446 701.1013 197.57655C709.6438 194.3085 718.21796 189.53792 726.7762 184.0394C735.3344 178.54088 743.89264 172.13792 752.45087 164.58534C761.0091 157.03278 769.6301 136.74812 778.1726 138.6765C786.7151 140.60487 803.8 176.06055 803.8 176.06055" fill-rule="nonzero"/><path fill="#000000" fill-opacity="0.0" clip-path="url(#id_0)" d="M92.2 146.3864C92.2 148.04326 90.85686 149.3864 89.2 149.3864C87.543144 149.3864 86.2 148.04326 86.2 146.3864C86.2 144.72955 87.543144 143.3864 89.2 143.3864C90.85686 143.3864 92.2 144.72955 92.2 146.3864Z" fill-rule="nonzero"/><path fill="#000000" fill-opacity="0.0" clip-path="url(#id_0)" d="M113.58403 115.5468C113.58403 117.20365 112.24088 118.5468 110.58403 118.5468C108.92718 118.5468 107.58403 117.20365 107.58403 115.5468C107.58403 113.889946 108.92718 112.5468 110.58403 112.5468C112.24088 112.5468 113.58403 113.889946 113.58403 115.5468Z" fill-rule="nonzero"/><path fill="#000000" fill-opacity="0.0" clip-path="url(#id_0)" d="M139.2587 98.60295C139.2587 100.2598 137.91556 101.60295 136.2587 101.60295C134.60185 101.60295 133.2587 100.2598 133.2587 98.60295C133.2587 96.9461 134.60185 95.60295 136.2587 95.60295C137.91556 95.60295 139.2587 96.9461 139.2587 98.60295Z" fill-rule="nonzero"/><path fill="#000000" fill-opacity="0.0" clip-path="url(#id_0)" d="M164.98047 97.4375C164.98047 99.09435 163.63731 100.4375 161.98047 100.4375C160.32361 100.4375 158.98047 99.09435 158.98047 97.4375C158.98047 95.78065 160.32361 94.4375 161.98047 94.4375C163.63731 94.4375 164.98047 95.78065 164.98047 97.4375Z" fill-rule="nonzero"/><path fill="#000000" fill-opacity="0.0" clip-path="url(#id_0)" d="M190.60785 95.8238C190.60785 97.48065 189.26471 98.8238 187.60785 98.8238C185.951 98.8238 184.60785 97.48065 184.60785 95.8238C184.60785 94.16695 185.951 92.8238 187.60785 92.8238C189.26471 92.8238 190.60785 94.16695 190.60785 95.8238Z" fill-rule="nonzero"/><path fill="#000000" fill-opacity="0.0" clip-path="url(#id_0)" d="M216.28271 111.4229C216.28271 113.07976 214.93958 114.4229 213.28271 114.4229C211.62587 114.4229 210.28271 113.07976 210.28271 111.4229C210.28271 109.766045 211.62587 108.4229 213.28271 108.4229C214.93958 108.4229 216.28271 109.766045 216.28271 111.4229Z" fill-rule="nonzero"/><path fill="#000000" fill-opacity="0.0" clip-path="url(#id_0)" d="M241.9574 112.94695C241.9574 114.603806 240.61424 115.94695 238.9574 115.94695C237.30054 115.94695 235.9574 114.603806 235.9574 112.94695C235.9574 111.29009 237.30054 109.94695 238.9574 109.94695C240.61424 109.94695 241.9574 111.29009 241.9574 112.94695Z" fill-rule="nonzero"/><path fill="#000000" fill-opacity="0.0" clip-path="url(#id_0)" d="M267.67914 135.4491C267.67914 137.10596 266.336 138.4491 264.67914 138.4491C263.0223 138.4491 261.67914 137.10596 261.67914 135.4491C261.67914 133.79225 263.0223 132.4491 264.67914 132.4491C266.336 132.4491 267.67914 133.79225 267.67914 135.4491Z" fill-rule="nonzero"/><path fill="#000000" fill-opacity="0.0" clip-path="url(#id_0)" d="M291.1963 159.1167C291.1963 160.77356 289.85315 162.1167 288.1963 162.1167C286.53946 162.1167 285.1963 160.77356 285.1963 159.1167C285.1963 157.45984 286.53946 156.1167 288.1963 156.1167C289.85315 156.1167 291.1963 157.45984 291.1963 159.1167Z" fill-rule="nonzero"/><path fill="#000000" fill-opacity="0.0" clip-path="url(#id_0)" d="M318.9814 169.24715C318.9814 170.904 317.63828 172.24715 315.9814 172.24715C314.32455 172.24715 312.9814 170.904 312.9814 169.24715C312.9814 167.5903 314.32455 166.24715 315.9814 166.24715C317.63828 166.24715 318.9814 167.5903 318.9814 169.24715Z" fill-rule="nonzero"/><path fill="#000000" fill-opacity="0.0" clip-path="url(#id_0)" d="M344.6561 165.48186C344.6561 167.1387 343.31293 168.48186 341.6561 168.48186C339.99924 168.48186 338.6561 167.1387 338.6561 165.48186C338.6561 163.825 339.99924 162.48186 341.6561 162.48186C343.31293 162.48186 344.6561 163.825 344.6561 165.48186Z" fill-rule="nonzero"/><path fill="#000000" fill-opacity="0.0" clip-path="url(#id_0)" d="M370.37784 146.65535C370.37784 148.31221 369.0347 149.65535 367.37784 149.65535C365.72098 149.65535 364.37784 148.31221 364.37784 146.65535C364.37784 144.99849 365.72098 143.65535 367.37784 143.65535C369.0347 143.65535 370.37784 144.99849 370.37784 146.65535Z" fill-rule="nonzero"/><path fill="#000000" fill-opacity="0.0" clip-path="url(#id_0)" d="M396.00525 156.69615C396.00525 158.353 394.66208 159.69615 393.00525 159.69615C391.3484 159.69615 390.00525 158.353 390.00525 156.69615C390.00525 155.03929 391.3484 153.69615 393.00525 153.69615C394.66208 153.69615 396.00525 155.03929 396.00525 156.69615Z" fill-rule="nonzero"/><path fill="#000000" fill-opacity="0.0" clip-path="url(#id_0)" d="M421.6801 198.11446C421.6801 199.7713 420.33694 201.11446 418.6801 201.11446C417.02325 201.11446 415.6801 199.7713 415.6801 198.11446C415.6801 196.4576 417.02325 195.11446 418.6801 195.11446C420.33694 195.11446 421.6801 196.4576 421.6801 198.11446Z" fill-rule="nonzero"/><path fill="#000000" fill-opacity="0.0" clip-path="url(#id_0)" d="M447.35477 230.74706C447.35477 232.4039 446.01163 233.74706 444.35477 233.74706C442.6979 233.74706 441.35477 232.4039 441.35477 230.74706C441.35477 229.0902 442.6979 227.74706 444.35477 227.74706C446.01163 227.74706 447.35477 229.0902 447.35477 230.74706Z" fill-rule="nonzero"/><path fill="#000000" fill-opacity="0.0" clip-path="url(#id_0)" d="M473.07654 226.44385C473.07654 228.10071 471.7334 229.44385 470.07654 229.44385C468.41968 229.44385 467.07654 228.10071 467.07654 226.44385C467.07654 224.787 468.41968 223.44385 470.07654 223.44385C471.7334 223.44385 473.07654 224.787 473.07654 226.44385Z" fill-rule="nonzero"/><path fill="#000000" fill-opacity="0.0" clip-path="url(#id_0)" d="M498.70392 216.22375C498.70392 217.8806 497.36078 219.22375 495.70392 219.22375C494.04706 219.22375 492.70392 217.8806 492.70392 216.22375C492.70392 214.5669 494.04706 213.22375 495.70392 213.22375C497.36078 213.22375 498.70392 214.5669 498.70392 216.22375Z" fill-rule="nonzero"/><path fill="#000000" fill-opacity="0.0" clip-path="url(#id_0)" d="M524.3788 219.98904C524.3788 221.6459 523.03564 222.98904 521.3788 222.98904C519.7219 222.98904 518.3788 221.6459 518.3788 219.98904C518.3788 218.3322 519.7219 216.98904 521.3788 216.98904C523.03564 216.98904 524.3788 218.3322 524.3788 219.98904Z" fill-rule="nonzero"/><path fill="#000000" fill-opacity="0.0" clip-path="url(#id_0)" d="M550.05347 225.54735C550.05347 227.20421 548.7103 228.54735 547.05347 228.54735C545.3966 228.54735 544.05347 227.20421 544.05347 225.54735C544.05347 223.8905 545.3966 222.54735 547.05347 222.54735C548.7103 222.54735 550.05347 223.8905 550.05347 225.54735Z" fill-rule="nonzero"/><path fill="#000000" fill-opacity="0.0" clip-path="url(#id_0)" d="M575.7752 222.14066C575.7752 223.7975 574.43207 225.14066 572.7752 225.14066C571.11835 225.14066 569.7752 223.7975 569.7752 222.14066C569.7752 220.4838 571.11835 219.14066 572.7752 219.14066C574.43207 219.14066 575.7752 220.4838 575.7752 222.14066Z" fill-rule="nonzero"/><path fill="#000000" fill-opacity="0.0" clip-path="url(#id_0)" d="M601.4026 221.5131C601.4026 223.16995 600.05945 224.5131 598.4026 224.5131C596.7458 224.5131 595.4026 223.16995 595.4026 221.5131C595.4026 219.85625 596.7458 218.5131 598.4026 218.5131C600.05945 218.5131 601.4026 219.85625 601.4026 221.5131Z" fill-rule="nonzero"/><path fill="#000000" fill-opacity="0.0" clip-path="url(#id_0)" d="M627.07745 219.5408C627.07745 221.19765 625.7343 222.5408 624.07745 222.5408C622.42065 222.5408 621.07745 221.19765 621.07745 219.5408C621.07745 217.88394 622.42065 216.5408 624.07745 216.5408C625.7343 216.5408 627.07745 217.88394 627.07745 219.5408Z" fill-rule="nonzero"/><path fill="#000000" fill-opacity="0.0" clip-path="url(#id_0)" d="M652.75214 221.96135C652.75214 223.61821 651.409 224.96135 649.75214 224.96135C648.0953 224.96135 646.75214 223.61821 646.75214 221.96135C646.75214 220.30449 648.0953 218.96135 649.75214 218.96135C651.409 218.96135 652.75214 220.30449 652.75214 221.96135Z" fill-rule="nonzero"/><path fill="#000000" fill-opacity="0.0" clip-path="url(#id_0)" d="M678.47394 203.67274C678.47394 205.3296 677.1308 206.67274 675.47394 206.67274C673.8171 206.67274 672.47394 205.3296 672.47394 203.67274C672.47394 202.0159 673.8171 200.67274 675.47394 200.67274C677.1308 200.67274 678.47394 202.0159 678.47394 203.67274Z" fill-rule="nonzero"/><path fill="#000000" fill-opacity="0.0" clip-path="url(#id_0)" d="M704.1013 197.57655C704.1013 199.2334 702.7582 200.57655 701.1013 200.57655C699.44446 200.57655 698.1013 199.2334 698.1013 197.57655C698.1013 195.9197 699.44446 194.57655 701.1013 194.57655C702.7582 194.57655 704.1013 195.9197 704.1013 197.57655Z" fill-rule="nonzero"/><path fill="#000000" fill-opacity="0.0" clip-path="url(#id_0)" d="M729.7762 184.0394C729.7762 185.69626 728.43304 187.0394 726.7762 187.0394C725.1193 187.0394 723.7762 185.69626 723.7762 184.0394C723.7762 182.38255 725.1193 181.0394 726.7762 181.0394C728.43304 181.0394 729.7762 182.38255 729.7762 184.0394Z" fill-rule="nonzero"/><path fill="#000000" fill-opacity="0.0" clip-path="url(#id_0)" d="M755.45087 164.58534C755.45087 166.2422 754.1077 167.58534 752.45087 167.58534C750.794 167.58534 749.45087 166.2422 749.45087 164.58534C749.45087 162.9285 750.794 161.58534 752.45087 161.58534C754.1077 161.58534 755.45087 162.9285 755.45087 164.58534Z" fill-rule="nonzero"/><path fill="#000000" fill-opacity="0.0" clip-path="url(#id_0)" d="M781.1726 138.6765C781.1726 140.33336 779.82947 141.6765 778.1726 141.6765C776.51575 141.6765 775.1726 140.33336 775.1726 138.6765C775.1726 137.01965 776.51575 135.6765 778.1726 135.6765C779.82947 135.6765 781.1726 137.01965 781.1726 138.6765Z" fill-rule="nonzero"/><path fill="#000000" fill-opacity="0.0" clip-path="url(#id_0)" d="M806.8 176.06055C806.8 177.7174 805.45685 179.06055 803.8 179.06055C802.1431 179.06055 800.8 177.7174 800.8 176.06055C800.8 174.4037 802.1431 173.06055 803.8 173.06055C805.45685 173.06055 806.8 174.4037 806.8 176.06055Z" fill-rule="nonzero"/><path fill="#000000" d="M437.34375 437.8L437.34375 434.15936L434.03125 429.20624L435.42188 429.20624L437.10938 431.8Q437.57812 432.51874 437.98438 433.2531Q438.375 432.58124 438.92188 431.7375L440.59375 429.20624L441.90625 429.20624L438.48438 434.15936L438.48438 437.8L437.34375 437.8ZM446.04688 435.8L447.14062 435.925Q446.89062 436.8781 446.1875 437.40936Q445.48438 437.9406 444.40625 437.9406Q443.04688 437.9406 442.23438 437.09686Q441.4375 436.2531 441.4375 434.7375Q441.4375 433.175 442.25 432.3156Q443.0625 431.4406 444.34375 431.4406Q445.59375 431.4406 446.375 432.28436Q447.17188 433.1281 447.17188 434.675Q447.17188 434.76874 447.17188 434.95624L442.53125 434.95624Q442.59375 435.9875 443.10938 436.53436Q443.625 437.0656 444.40625 437.0656Q444.98438 437.0656 445.39062 436.76874Q445.8125 436.45624 446.04688 435.8ZM442.59375 434.09686L446.0625 434.09686Q446.0 433.3 445.67188 432.90936Q445.15625 432.3 444.35938 432.3Q443.625 432.3 443.125 432.78436Q442.64062 433.26874 442.59375 434.09686ZM452.85938 437.03436Q452.26562 437.53436 451.71875 437.7375Q451.1875 437.9406 450.5625 437.9406Q449.53125 437.9406 448.98438 437.4406Q448.4375 436.9406 448.4375 436.15936Q448.4375 435.70624 448.64062 435.33124Q448.84375 434.9406 449.1875 434.72186Q449.53125 434.4875 449.95312 434.3781Q450.25 434.28436 450.89062 434.20624Q452.15625 434.0656 452.76562 433.84686Q452.76562 433.6281 452.76562 433.58124Q452.76562 432.925 452.46875 432.65936Q452.0625 432.3156 451.26562 432.3156Q450.53125 432.3156 450.17188 432.58124Q449.8125 432.83124 449.64062 433.4875L448.60938 433.34686Q448.75 432.6906 449.07812 432.28436Q449.40625 431.8781 450.01562 431.65936Q450.625 431.4406 451.42188 431.4406Q452.21875 431.4406 452.71875 431.6281Q453.21875 431.8156 453.45312 432.09686Q453.6875 432.3781 453.78125 432.8156Q453.82812 433.08124 453.82812 433.78436L453.82812 435.1906Q453.82812 436.65936 453.89062 437.05Q453.96875 437.4406 454.17188 437.8L453.0625 437.8Q452.90625 437.47186 452.85938 437.03436ZM452.76562 434.675Q452.1875 434.90936 451.04688 435.08124Q450.39062 435.175 450.125 435.3Q449.85938 435.40936 449.70312 435.6281Q449.5625 435.84686 449.5625 436.1281Q449.5625 436.55 449.875 436.83124Q450.20312 437.1125 450.8125 437.1125Q451.42188 437.1125 451.89062 436.84686Q452.375 436.58124 452.59375 436.1125Q452.76562 435.7531 452.76562 435.0656L452.76562 434.675ZM455.78125 437.8L455.78125 431.58124L456.73438 431.58124L456.73438 432.51874Q457.09375 431.8625 457.39062 431.65936Q457.70312 431.4406 458.07812 431.4406Q458.60938 431.4406 459.15625 431.76874L458.79688 432.7531Q458.40625 432.51874 458.03125 432.51874Q457.67188 432.51874 457.39062 432.7375Q457.125 432.9406 457.01562 433.3156Q456.82812 433.8781 456.82812 434.53436L456.82812 437.8L455.78125 437.8Z" fill-rule="nonzero"/><path fill="#000000" d="M31.184362 284.4375L31.481237 283.3125Q32.871864 283.67188 33.60624 284.59375Q34.340614 285.51562 34.340614 286.85938Q34.340614 288.25 33.778114 289.125Q33.215614 290.0 32.153114 290.45312Q31.074987 290.90625 29.840612 290.90625Q28.496862 290.90625 27.496862 290.39062Q26.496862 289.875 25.981237 288.9375Q25.465612 287.98438 25.465612 286.84375Q25.465612 285.5625 26.121862 284.6875Q26.778112 283.79688 27.965612 283.45312L28.231237 284.57812Q27.293737 284.875 26.871862 285.45312Q26.434362 286.01562 26.434362 286.875Q26.434362 287.85938 26.918737 288.53125Q27.387487 289.1875 28.184362 289.46875Q28.981237 289.73438 29.840612 289.73438Q30.934362 289.73438 31.746862 289.42188Q32.559364 289.09375 32.965614 288.42188Q33.371864 287.75 33.371864 286.95312Q33.371864 286.0 32.82499 285.34375Q32.278114 284.67188 31.184362 284.4375ZM34.19999 281.51562L25.606237 281.51562L25.606237 275.71875L26.621862 275.71875L26.621862 280.375L29.278112 280.375L29.278112 276.34375L30.293737 276.34375L30.293737 280.375L34.19999 280.375L34.19999 281.51562ZM31.184362 268.4375L31.481237 267.3125Q32.871864 267.67188 33.60624 268.59375Q34.340614 269.51562 34.340614 270.85938Q34.340614 272.25 33.778114 273.125Q33.215614 274.0 32.153114 274.45312Q31.074987 274.90625 29.840612 274.90625Q28.496862 274.90625 27.496862 274.39062Q26.496862 273.875 25.981237 272.9375Q25.465612 271.98438 25.465612 270.84375Q25.465612 269.5625 26.121862 268.6875Q26.778112 267.79688 27.965612 267.45312L28.231237 268.57812Q27.293737 268.875 26.871862 269.45312Q26.434362 270.01562 26.434362 270.875Q26.434362 271.85938 26.918737 272.53125Q27.387487 273.1875 28.184362 273.46875Q28.981237 273.73438 29.840612 273.73438Q30.934362 273.73438 31.746862 273.42188Q32.559364 273.09375 32.965614 272.42188Q33.371864 271.75 33.371864 270.95312Q33.371864 270.0 32.82499 269.34375Q32.278114 268.67188 31.184362 268.4375ZM34.19999 262.60938L25.606237 262.60938L25.606237 260.89062L31.684362 258.85938Q32.54374 258.57812 32.965614 258.45312Q32.496864 258.3125 31.590612 258.0L25.606237 255.9375L25.606237 254.40625L34.19999 254.40625L34.19999 255.5L27.012487 255.5L34.19999 258.0L34.19999 259.03125L26.887487 261.51562L34.19999 261.51562L34.19999 262.60938ZM32.19999 249.45312L32.32499 248.35938Q33.278114 248.60938 33.809364 249.3125Q34.340614 250.01562 34.340614 251.09375Q34.340614 252.45312 33.496864 253.26562Q32.653114 254.0625 31.137487 254.0625Q29.574987 254.0625 28.715612 253.25Q27.840612 252.4375 27.840612 251.15625Q27.840612 249.90625 28.684362 249.125Q29.528112 248.32812 31.074987 248.32812Q31.168737 248.32812 31.356237 248.32812L31.356237 252.96875Q32.38749 252.90625 32.934364 252.39062Q33.465614 251.875 33.465614 251.09375Q33.465614 250.51562 33.16874 250.10938Q32.85624 249.6875 32.19999 249.45312ZM30.496862 252.90625L30.496862 249.4375Q29.699987 249.5 29.309362 249.82812Q28.699987 250.34375 28.699987 251.14062Q28.699987 251.875 29.184362 252.375Q29.668737 252.85938 30.496862 252.90625ZM34.19999 246.70312L27.981237 246.70312L27.981237 245.76562L28.856237 245.76562Q28.387487 245.46875 28.121862 244.98438Q27.840612 244.5 27.840612 243.875Q27.840612 243.1875 28.121862 242.75Q28.403112 242.29688 28.918737 242.125Q27.840612 241.375 27.840612 240.20312Q27.840612 239.26562 28.356237 238.78125Q28.856237 238.28125 29.934362 238.28125L34.19999 238.28125L34.19999 239.32812L30.278112 239.32812Q29.653112 239.32812 29.371862 239.4375Q29.090612 239.53125 28.918737 239.79688Q28.746862 240.0625 28.746862 240.4375Q28.746862 241.09375 29.184362 241.53125Q29.621862 241.95312 30.590612 241.95312L34.19999 241.95312L34.19999 243.01562L30.153112 243.01562Q29.449987 243.01562 29.106237 243.28125Q28.746862 243.53125 28.746862 244.10938Q28.746862 244.5625 28.981237 244.9375Q29.215612 245.3125 29.668737 245.48438Q30.121862 245.65625 30.965612 245.65625L34.19999 245.65625L34.19999 246.70312ZM34.19999 234.73438L34.19999 235.71875L25.606237 235.71875L25.606237 234.65625L28.668737 234.65625Q27.840612 233.98438 27.840612 232.95312Q27.840612 232.375 28.074987 231.875Q28.293737 231.35938 28.715612 231.03125Q29.137487 230.6875 29.731237 230.5Q30.324987 230.3125 30.996862 230.3125Q32.590614 230.3125 33.465614 231.10938Q34.340614 231.90625 34.340614 233.0Q34.340614 234.10938 33.41874 234.73438L34.19999 234.73438ZM31.043737 234.75Q32.153114 234.75 32.653114 234.4375Q33.465614 233.9375 33.465614 233.09375Q33.465614 232.40625 32.871864 231.90625Q32.278114 231.39062 31.074987 231.39062Q29.856237 231.39062 29.278112 231.875Q28.699987 232.35938 28.699987 233.04688Q28.699987 233.73438 29.309362 234.25Q29.903112 234.75 31.043737 234.75ZM32.19999 224.45312L32.32499 223.35938Q33.278114 223.60938 33.809364 224.3125Q34.340614 225.01562 34.340614 226.09375Q34.340614 227.45312 33.496864 228.26562Q32.653114 229.0625 31.137487 229.0625Q29.574987 229.0625 28.715612 228.25Q27.840612 227.4375 27.840612 226.15625Q27.840612 224.90625 28.684362 224.125Q29.528112 223.32812 31.074987 223.32812Q31.168737 223.32812 31.356237 223.32812L31.356237 227.96875Q32.38749 227.90625 32.934364 227.39062Q33.465614 226.875 33.465614 226.09375Q33.465614 225.51562 33.16874 225.10938Q32.85624 224.6875 32.19999 224.45312ZM30.496862 227.90625L30.496862 224.4375Q29.699987 224.5 29.309362 224.82812Q28.699987 225.34375 28.699987 226.14062Q28.699987 226.875 29.184362 227.375Q29.668737 227.85938 30.496862 227.90625ZM34.19999 221.71875L27.981237 221.71875L27.981237 220.76562L28.918737 220.76562Q28.262487 220.40625 28.059362 220.10938Q27.840612 219.79688 27.840612 219.42188Q27.840612 218.89062 28.168737 218.34375L29.153112 218.70312Q28.918737 219.09375 28.918737 219.46875Q28.918737 219.82812 29.137487 220.10938Q29.340612 220.375 29.715612 220.48438Q30.278112 220.67188 30.934362 220.67188L34.19999 220.67188L34.19999 221.71875ZM32.340614 218.125L32.184364 217.09375Q32.809364 217.0 33.13749 216.60938Q33.465614 216.20312 33.465614 215.46875Q33.465614 214.75 33.184364 214.40625Q32.88749 214.04688 32.48124 214.04688Q32.121864 214.04688 31.918737 214.35938Q31.778112 214.57812 31.559362 215.4375Q31.262487 216.59375 31.059362 217.04688Q30.840612 217.48438 30.465612 217.71875Q30.090612 217.95312 29.621862 217.95312Q29.215612 217.95312 28.856237 217.76562Q28.496862 217.57812 28.262487 217.25Q28.090612 217.0 27.965612 216.57812Q27.840612 216.15625 27.840612 215.65625Q27.840612 214.9375 28.059362 214.39062Q28.262487 213.82812 28.621862 213.5625Q28.981237 213.29688 29.574987 213.20312L29.715612 214.23438Q29.246862 214.29688 28.981237 214.64062Q28.699987 214.96875 28.699987 215.59375Q28.699987 216.3125 28.949987 216.625Q29.184362 216.9375 29.512487 216.9375Q29.715612 216.9375 29.871862 216.8125Q30.043737 216.67188 30.153112 216.40625Q30.215612 216.25 30.418737 215.46875Q30.731237 214.34375 30.918737 213.90625Q31.106237 213.46875 31.465612 213.21875Q31.824987 212.96875 32.371864 212.96875Q32.903114 212.96875 33.371864 213.28125Q33.82499 213.57812 34.090614 214.15625Q34.340614 214.73438 34.340614 215.46875Q34.340614 216.6875 33.840614 217.32812Q33.32499 217.95312 32.340614 218.125ZM31.621862 208.125L30.559362 208.125L30.559362 204.875L31.621862 204.875L31.621862 208.125ZM34.19999 198.39062L26.621862 198.39062L26.621862 201.21875L25.606237 201.21875L25.606237 194.40625L26.621862 194.40625L26.621862 197.25L34.19999 197.25L34.19999 198.39062ZM31.090612 194.09375Q29.356237 194.09375 28.528112 193.14062Q27.840612 192.34375 27.840612 191.1875Q27.840612 189.90625 28.684362 189.09375Q29.512487 188.26562 30.996862 188.26562Q32.19999 188.26562 32.88749 188.625Q33.57499 188.98438 33.965614 189.6875Q34.340614 190.375 34.340614 191.1875Q34.340614 192.48438 33.51249 193.29688Q32.66874 194.09375 31.090612 194.09375ZM31.090612 193.01562Q32.278114 193.01562 32.871864 192.5Q33.465614 191.96875 33.465614 191.1875Q33.465614 190.39062 32.871864 189.875Q32.278114 189.35938 31.059362 189.35938Q29.903112 189.35938 29.309362 189.89062Q28.715612 190.40625 28.715612 191.1875Q28.715612 191.96875 29.309362 192.5Q29.887487 193.01562 31.090612 193.01562ZM33.26249 184.40625L34.184364 184.25Q34.278114 184.70312 34.278114 185.04688Q34.278114 185.625 34.10624 185.9375Q33.91874 186.25 33.621864 186.39062Q33.32499 186.51562 32.371864 186.51562L28.793737 186.51562L28.793737 187.28125L27.981237 187.28125L27.981237 186.51562L26.434362 186.51562L25.809362 185.46875L27.981237 185.46875L27.981237 184.40625L28.793737 184.40625L28.793737 185.46875L32.434364 185.46875Q32.88749 185.46875 33.01249 185.42188Q33.13749 185.35938 33.215614 185.23438Q33.29374 185.10938 33.29374 184.875Q33.29374 184.6875 33.26249 184.40625ZM33.434364 179.64062Q33.934364 180.23438 34.13749 180.78125Q34.340614 181.3125 34.340614 181.9375Q34.340614 182.96875 33.840614 183.51562Q33.340614 184.0625 32.559364 184.0625Q32.10624 184.0625 31.731237 183.85938Q31.340612 183.65625 31.121862 183.3125Q30.887487 182.96875 30.778112 182.54688Q30.684362 182.25 30.606237 181.60938Q30.465612 180.34375 30.246862 179.73438Q30.028112 179.73438 29.981237 179.73438Q29.324987 179.73438 29.059362 180.03125Q28.715612 180.4375 28.715612 181.23438Q28.715612 181.96875 28.981237 182.32812Q29.231237 182.6875 29.887487 182.85938L29.746862 183.89062Q29.090612 183.75 28.684362 183.42188Q28.278112 183.09375 28.059362 182.48438Q27.840612 181.875 27.840612 181.07812Q27.840612 180.28125 28.028112 179.78125Q28.215612 179.28125 28.496862 179.04688Q28.778112 178.8125 29.215612 178.71875Q29.481237 178.67188 30.184362 178.67188L31.590612 178.67188Q33.059364 178.67188 33.44999 178.60938Q33.840614 178.53125 34.19999 178.32812L34.19999 179.4375Q33.871864 179.59375 33.434364 179.64062ZM31.074987 179.73438Q31.309362 180.3125 31.481237 181.45312Q31.574987 182.10938 31.699987 182.375Q31.809362 182.64062 32.028114 182.79688Q32.246864 182.9375 32.528114 182.9375Q32.94999 182.9375 33.23124 182.625Q33.51249 182.29688 33.51249 181.6875Q33.51249 181.07812 33.246864 180.60938Q32.98124 180.125 32.51249 179.90625Q32.153114 179.73438 31.465612 179.73438L31.074987 179.73438ZM34.19999 176.73438L25.606237 176.73438L25.606237 175.67188L34.19999 175.67188L34.19999 176.73438ZM34.19999 171.51562L25.606237 168.21875L25.606237 167.0L34.19999 163.48438L34.19999 164.76562L31.590612 165.78125L31.590612 169.35938L34.19999 170.3125L34.19999 171.51562ZM30.668737 169.03125L30.668737 166.125L28.293737 167.01562Q27.215612 167.4375 26.512487 167.625Q27.340612 167.79688 28.153112 168.09375L30.668737 169.03125ZM31.918737 159.64062L32.059364 158.60938Q33.121864 158.78125 33.73124 159.48438Q34.340614 160.1875 34.340614 161.20312Q34.340614 162.48438 33.51249 163.26562Q32.66874 164.03125 31.106237 164.03125Q30.106237 164.03125 29.356237 163.70312Q28.590612 163.35938 28.215612 162.6875Q27.840612 162.0 27.840612 161.1875Q27.840612 160.1875 28.356237 159.54688Q28.856237 158.89062 29.809362 158.70312L29.965612 159.73438Q29.340612 159.875 29.028112 160.25Q28.699987 160.625 28.699987 161.15625Q28.699987 161.95312 29.278112 162.45312Q29.840612 162.95312 31.074987 162.95312Q32.340614 162.95312 32.903114 162.46875Q33.465614 161.98438 33.465614 161.21875Q33.465614 160.59375 33.090614 160.1875Q32.715614 159.76562 31.918737 159.64062ZM33.26249 155.40625L34.184364 155.25Q34.278114 155.70312 34.278114 156.04688Q34.278114 156.625 34.10624 156.9375Q33.91874 157.25 33.621864 157.39062Q33.32499 157.51562 32.371864 157.51562L28.793737 157.51562L28.793737 158.28125L27.981237 158.28125L27.981237 157.51562L26.434362 157.51562L25.809362 156.46875L27.981237 156.46875L27.981237 155.40625L28.793737 155.40625L28.793737 156.46875L32.434364 156.46875Q32.88749 156.46875 33.01249 156.42188Q33.13749 156.35938 33.215614 156.23438Q33.29374 156.10938 33.29374 155.875Q33.29374 155.6875 33.26249 155.40625ZM26.824987 154.70312L25.606237 154.70312L25.606237 153.64062L26.824987 153.64062L26.824987 154.70312ZM34.19999 154.70312L27.981237 154.70312L27.981237 153.64062L34.19999 153.64062L34.19999 154.70312ZM34.19999 149.98438L27.981237 152.34375L27.981237 151.23438L31.699987 149.89062Q32.309364 149.6875 32.94999 149.5Q32.465614 149.35938 31.778112 149.10938L27.981237 147.71875L27.981237 146.64062L34.19999 149.0L34.19999 149.98438ZM32.19999 142.45312L32.32499 141.35938Q33.278114 141.60938 33.809364 142.3125Q34.340614 143.01562 34.340614 144.09375Q34.340614 145.45312 33.496864 146.26562Q32.653114 147.0625 31.137487 147.0625Q29.574987 147.0625 28.715612 146.25Q27.840612 145.4375 27.840612 144.15625Q27.840612 142.90625 28.684362 142.125Q29.528112 141.32812 31.074987 141.32812Q31.168737 141.32812 31.356237 141.32812L31.356237 145.96875Q32.38749 145.90625 32.934364 145.39062Q33.465614 144.875 33.465614 144.09375Q33.465614 143.51562 33.16874 143.10938Q32.85624 142.6875 32.19999 142.45312ZM30.496862 145.90625L30.496862 142.4375Q29.699987 142.5 29.309362 142.82812Q28.699987 143.34375 28.699987 144.14062Q28.699987 144.875 29.184362 145.375Q29.668737 145.85938 30.496862 145.90625Z" fill-rule="nonzero"/><path fill="#000000" d="M76.7 388.5656Q76.7 387.03436 77.0125 386.1125Q77.325 385.175 77.93437 384.675Q78.55937 384.175 79.49687 384.175Q80.18437 384.175 80.7 384.45624Q81.23125 384.7375 81.575 385.26874Q81.91875 385.78436 82.10625 386.53436Q82.29375 387.28436 82.29375 388.5656Q82.29375 390.08124 81.98125 391.0031Q81.68437 391.925 81.05937 392.4406Q80.45 392.9406 79.49687 392.9406Q78.2625 392.9406 77.54375 392.05Q76.7 390.9875 76.7 388.5656ZM77.77812 388.5656Q77.77812 390.675 78.27812 391.3781Q78.77812 392.08124 79.49687 392.08124Q80.23125 392.08124 80.71562 391.3781Q81.21562 390.675 81.21562 388.5656Q81.21562 386.4406 80.71562 385.7531Q80.23125 385.05 79.48125 385.05Q78.7625 385.05 78.325 385.65936Q77.77812 386.4406 77.77812 388.5656Z" fill-rule="nonzero"/><path fill="#000000" d="M59.66875 303.15L58.621876 303.15L58.621876 296.43124Q58.23125 296.79062 57.60625 297.16562Q56.996876 297.525 56.5125 297.69687L56.5125 296.68124Q57.3875 296.25937 58.04375 295.68124Q58.715626 295.0875 58.996876 294.525L59.66875 294.525L59.66875 303.15ZM62.7 298.91562Q62.7 297.38437 63.0125 296.4625Q63.325 295.525 63.934376 295.025Q64.55937 294.525 65.49687 294.525Q66.18437 294.525 66.7 294.80624Q67.23125 295.0875 67.575 295.61874Q67.91875 296.13437 68.10625 296.88437Q68.29375 297.63437 68.29375 298.91562Q68.29375 300.43124 67.98125 301.35312Q67.68437 302.275 67.05937 302.79062Q66.45 303.29062 65.49687 303.29062Q64.2625 303.29062 63.54375 302.4Q62.7 301.3375 62.7 298.91562ZM63.778126 298.91562Q63.778126 301.025 64.27812 301.72812Q64.77812 302.43124 65.49687 302.43124Q66.23125 302.43124 66.71562 301.72812Q67.21562 301.025 67.21562 298.91562Q67.21562 296.79062 66.71562 296.10312Q66.23125 295.4 65.48125 295.4Q64.7625 295.4 64.325 296.00937Q63.778126 296.79062 63.778126 298.91562ZM69.7 298.91562Q69.7 297.38437 70.0125 296.4625Q70.325 295.525 70.93437 295.025Q71.55937 294.525 72.49687 294.525Q73.18437 294.525 73.7 294.80624Q74.23125 295.0875 74.575 295.61874Q74.91875 296.13437 75.10625 296.88437Q75.29375 297.63437 75.29375 298.91562Q75.29375 300.43124 74.98125 301.35312Q74.68437 302.275 74.05937 302.79062Q73.45 303.29062 72.49687 303.29062Q71.2625 303.29062 70.54375 302.4Q69.7 301.3375 69.7 298.91562ZM70.77812 298.91562Q70.77812 301.025 71.27812 301.72812Q71.77812 302.43124 72.49687 302.43124Q73.23125 302.43124 73.71562 301.72812Q74.21562 301.025 74.21562 298.91562Q74.21562 296.79062 73.71562 296.10312Q73.23125 295.4 72.48125 295.4Q71.7625 295.4 71.325 296.00937Q70.77812 296.79062 70.77812 298.91562ZM76.7 298.91562Q76.7 297.38437 77.0125 296.4625Q77.325 295.525 77.93437 295.025Q78.55937 294.525 79.49687 294.525Q80.18437 294.525 80.7 294.80624Q81.23125 295.0875 81.575 295.61874Q81.91875 296.13437 82.10625 296.88437Q82.29375 297.63437 82.29375 298.91562Q82.29375 300.43124 81.98125 301.35312Q81.68437 302.275 81.05937 302.79062Q80.45 303.29062 79.49687 303.29062Q78.2625 303.29062 77.54375 302.4Q76.7 301.3375 76.7 298.91562ZM77.77812 298.91562Q77.77812 301.025 78.27812 301.72812Q78.77812 302.43124 79.49687 302.43124Q80.23125 302.43124 80.71562 301.72812Q81.21562 301.025 81.21562 298.91562Q81.21562 296.79062 80.71562 296.10312Q80.23125 295.4 79.48125 295.4Q78.7625 295.4 78.325 296.00937Q77.77812 296.79062 77.77812 298.91562Z" fill-rule="nonzero"/><path fill="#000000" d="M61.246876 212.48438L61.246876 213.5L55.559376 213.5Q55.559376 213.125 55.684376 212.76562Q55.903126 212.1875 56.371876 211.625Q56.85625 211.0625 57.7625 210.32812Q59.16875 209.17188 59.653126 208.5Q60.153126 207.82812 60.153126 207.23438Q60.153126 206.60938 59.7 206.1875Q59.246876 205.75 58.528126 205.75Q57.7625 205.75 57.309376 206.20312Q56.85625 206.65625 56.840626 207.46875L55.7625 207.35938Q55.871876 206.14062 56.590626 205.51562Q57.325 204.875 58.559376 204.875Q59.79375 204.875 60.5125 205.5625Q61.23125 206.25 61.23125 207.26562Q61.23125 207.78125 61.0125 208.28125Q60.809376 208.76562 60.309376 209.32812Q59.825 209.875 58.7 210.82812Q57.746876 211.625 57.465626 211.92188Q57.2 212.20312 57.028126 212.48438L61.246876 212.48438ZM62.7 209.26562Q62.7 207.73438 63.0125 206.8125Q63.325 205.875 63.934376 205.375Q64.55937 204.875 65.49687 204.875Q66.18437 204.875 66.7 205.15625Q67.23125 205.4375 67.575 205.96875Q67.91875 206.48438 68.10625 207.23438Q68.29375 207.98438 68.29375 209.26562Q68.29375 210.78125 67.98125 211.70312Q67.68437 212.625 67.05937 213.14062Q66.45 213.64062 65.49687 213.64062Q64.2625 213.64062 63.54375 212.75Q62.7 211.6875 62.7 209.26562ZM63.778126 209.26562Q63.778126 211.375 64.27812 212.07812Q64.77812 212.78125 65.49687 212.78125Q66.23125 212.78125 66.71562 212.07812Q67.21562 211.375 67.21562 209.26562Q67.21562 207.14062 66.71562 206.45312Q66.23125 205.75 65.48125 205.75Q64.7625 205.75 64.325 206.35938Q63.778126 207.14062 63.778126 209.26562ZM69.7 209.26562Q69.7 207.73438 70.0125 206.8125Q70.325 205.875 70.93437 205.375Q71.55937 204.875 72.49687 204.875Q73.18437 204.875 73.7 205.15625Q74.23125 205.4375 74.575 205.96875Q74.91875 206.48438 75.10625 207.23438Q75.29375 207.98438 75.29375 209.26562Q75.29375 210.78125 74.98125 211.70312Q74.68437 212.625 74.05937 213.14062Q73.45 213.64062 72.49687 213.64062Q71.2625 213.64062 70.54375 212.75Q69.7 211.6875 69.7 209.26562ZM70.77812 209.26562Q70.77812 211.375 71.27812 212.07812Q71.77812 212.78125 72.49687 212.78125Q73.23125 212.78125 73.71562 212.07812Q74.21562 211.375 74.21562 209.26562Q74.21562 207.14062 73.71562 206.45312Q73.23125 205.75 72.48125 205.75Q71.7625 205.75 71.325 206.35938Q70.77812 207.14062 70.77812 209.26562ZM76.7 209.26562Q76.7 207.73438 77.0125 206.8125Q77.325 205.875 77.93437 205.375Q78.55937 204.875 79.49687 204.875Q80.18437 204.875 80.7 205.15625Q81.23125 205.4375 81.575 205.96875Q81.91875 206.48438 82.10625 207.23438Q82.29375 207.98438 82.29375 209.26562Q82.29375 210.78125 81.98125 211.70312Q81.68437 212.625 81.05937 213.14062Q80.45 213.64062 79.49687 213.64062Q78.2625 213.64062 77.54375 212.75Q76.7 211.6875 76.7 209.26562ZM77.77812 209.26562Q77.77812 211.375 78.27812 212.07812Q78.77812 212.78125 79.49687 212.78125Q80.23125 212.78125 80.71562 212.07812Q81.21562 211.375 81.21562 209.26562Q81.21562 207.14062 80.71562 206.45312Q80.23125 205.75 79.48125 205.75Q78.7625 205.75 78.325 206.35938Q77.77812 207.14062 77.77812 209.26562Z" fill-rule="nonzero"/><path fill="#000000" d="M55.7 121.58437L56.7625 121.44375Q56.934376 122.33437 57.371876 122.74062Q57.809376 123.13125 58.434376 123.13125Q59.184376 123.13125 59.7 122.61562Q60.215626 122.1 60.215626 121.33437Q60.215626 120.61562 59.73125 120.14687Q59.2625 119.6625 58.528126 119.6625Q58.23125 119.6625 57.778126 119.7875L57.903126 118.85Q58.0125 118.86562 58.075 118.86562Q58.746876 118.86562 59.278126 118.52187Q59.825 118.1625 59.825 117.42812Q59.825 116.85 59.434376 116.475Q59.04375 116.08437 58.41875 116.08437Q57.809376 116.08437 57.3875 116.475Q56.98125 116.86562 56.871876 117.63125L55.809376 117.44375Q55.996876 116.39687 56.684376 115.81875Q57.371876 115.225 58.3875 115.225Q59.090626 115.225 59.684376 115.5375Q60.278126 115.83437 60.590626 116.35Q60.903126 116.86562 60.903126 117.45937Q60.903126 118.00625 60.60625 118.475Q60.309376 118.92812 59.73125 119.19375Q60.48125 119.36562 60.903126 119.92812Q61.325 120.475 61.325 121.31875Q61.325 122.44375 60.496876 123.225Q59.684376 124.00625 58.434376 124.00625Q57.309376 124.00625 56.559376 123.33437Q55.809376 122.64687 55.7 121.58437ZM62.7 119.61562Q62.7 118.08437 63.0125 117.1625Q63.325 116.225 63.934376 115.725Q64.55937 115.225 65.49687 115.225Q66.18437 115.225 66.7 115.50625Q67.23125 115.7875 67.575 116.31875Q67.91875 116.83437 68.10625 117.58437Q68.29375 118.33437 68.29375 119.61562Q68.29375 121.13125 67.98125 122.05312Q67.68437 122.975 67.05937 123.49062Q66.45 123.99062 65.49687 123.99062Q64.2625 123.99062 63.54375 123.1Q62.7 122.0375 62.7 119.61562ZM63.778126 119.61562Q63.778126 121.725 64.27812 122.42812Q64.77812 123.13125 65.49687 123.13125Q66.23125 123.13125 66.71562 122.42812Q67.21562 121.725 67.21562 119.61562Q67.21562 117.49062 66.71562 116.80312Q66.23125 116.1 65.48125 116.1Q64.7625 116.1 64.325 116.70937Q63.778126 117.49062 63.778126 119.61562ZM69.7 119.61562Q69.7 118.08437 70.0125 117.1625Q70.325 116.225 70.93437 115.725Q71.55937 115.225 72.49687 115.225Q73.18437 115.225 73.7 115.50625Q74.23125 115.7875 74.575 116.31875Q74.91875 116.83437 75.10625 117.58437Q75.29375 118.33437 75.29375 119.61562Q75.29375 121.13125 74.98125 122.05312Q74.68437 122.975 74.05937 123.49062Q73.45 123.99062 72.49687 123.99062Q71.2625 123.99062 70.54375 123.1Q69.7 122.0375 69.7 119.61562ZM70.77812 119.61562Q70.77812 121.725 71.27812 122.42812Q71.77812 123.13125 72.49687 123.13125Q73.23125 123.13125 73.71562 122.42812Q74.21562 121.725 74.21562 119.61562Q74.21562 117.49062 73.71562 116.80312Q73.23125 116.1 72.48125 116.1Q71.7625 116.1 71.325 116.70937Q70.77812 117.49062 70.77812 119.61562ZM76.7 119.61562Q76.7 118.08437 77.0125 117.1625Q77.325 116.225 77.93437 115.725Q78.55937 115.225 79.49687 115.225Q80.18437 115.225 80.7 115.50625Q81.23125 115.7875 81.575 116.31875Q81.91875 116.83437 82.10625 117.58437Q82.29375 118.33437 82.29375 119.61562Q82.29375 121.13125 81.98125 122.05312Q81.68437 122.975 81.05937 123.49062Q80.45 123.99062 79.49687 123.99062Q78.2625 123.99062 77.54375 123.1Q76.7 122.0375 76.7 119.61562ZM77.77812 119.61562Q77.77812 121.725 78.27812 122.42812Q78.77812 123.13125 79.49687 123.13125Q80.23125 123.13125 80.71562 122.42812Q81.21562 121.725 81.21562 119.61562Q81.21562 117.49062 80.71562 116.80312Q80.23125 116.1 79.48125 116.1Q78.7625 116.1 78.325 116.70937Q77.77812 117.49062 77.77812 119.61562Z" fill-rule="nonzero"/><path fill="#000000" d="M59.075 34.2L59.075 32.1375L55.35625 32.1375L55.35625 31.16875L59.278126 25.60625L60.1375 25.60625L60.1375 31.16875L61.29375 31.16875L61.29375 32.1375L60.1375 32.1375L60.1375 34.2L59.075 34.2ZM59.075 31.16875L59.075 27.309376L56.3875 31.16875L59.075 31.16875ZM62.7 29.965626Q62.7 28.434376 63.0125 27.5125Q63.325 26.575 63.934376 26.075Q64.55937 25.575 65.49687 25.575Q66.18437 25.575 66.7 25.85625Q67.23125 26.1375 67.575 26.66875Q67.91875 27.184376 68.10625 27.934376Q68.29375 28.684376 68.29375 29.965626Q68.29375 31.48125 67.98125 32.403126Q67.68437 33.325 67.05937 33.840626Q66.45 34.340626 65.49687 34.340626Q64.2625 34.340626 63.54375 33.45Q62.7 32.3875 62.7 29.965626ZM63.778126 29.965626Q63.778126 32.075 64.27812 32.778126Q64.77812 33.48125 65.49687 33.48125Q66.23125 33.48125 66.71562 32.778126Q67.21562 32.075 67.21562 29.965626Q67.21562 27.840626 66.71562 27.153126Q66.23125 26.45 65.48125 26.45Q64.7625 26.45 64.325 27.059376Q63.778126 27.840626 63.778126 29.965626ZM69.7 29.965626Q69.7 28.434376 70.0125 27.5125Q70.325 26.575 70.93437 26.075Q71.55937 25.575 72.49687 25.575Q73.18437 25.575 73.7 25.85625Q74.23125 26.1375 74.575 26.66875Q74.91875 27.184376 75.10625 27.934376Q75.29375 28.684376 75.29375 29.965626Q75.29375 31.48125 74.98125 32.403126Q74.68437 33.325 74.05937 33.840626Q73.45 34.340626 72.49687 34.340626Q71.2625 34.340626 70.54375 33.45Q69.7 32.3875 69.7 29.965626ZM70.77812 29.965626Q70.77812 32.075 71.27812 32.778126Q71.77812 33.48125 72.49687 33.48125Q73.23125 33.48125 73.71562 32.778126Q74.21562 32.075 74.21562 29.965626Q74.21562 27.840626 73.71562 27.153126Q73.23125 26.45 72.48125 26.45Q71.7625 26.45 71.325 27.059376Q70.77812 27.840626 70.77812 29.965626ZM76.7 29.965626Q76.7 28.434376 77.0125 27.5125Q77.325 26.575 77.93437 26.075Q78.55937 25.575 79.49687 25.575Q80.18437 25.575 80.7 25.85625Q81.23125 26.1375 81.575 26.66875Q81.91875 27.184376 82.10625 27.934376Q82.29375 28.684376 82.29375 29.965626Q82.29375 31.48125 81.98125 32.403126Q81.68437 33.325 81.05937 33.840626Q80.45 34.340626 79.49687 34.340626Q78.2625 34.340626 77.54375 33.45Q76.7 32.3875 76.7 29.965626ZM77.77812 29.965626Q77.77812 32.075 78.27812 32.778126Q78.77812 33.48125 79.49687 33.48125Q80.23125 33.48125 80.71562 32.778126Q81.21562 32.075 81.21562 29.965626Q81.21562 27.840626 80.71562 27.153126Q80.23125 26.45 79.48125 26.45Q78.7625 26.45 78.325 27.059376Q77.77812 27.840626 77.77812 29.965626Z" fill-rule="nonzero"/><path fill="#000000" d="M118.216125 405.8L117.16925 405.8L117.16925 399.08124Q116.778625 399.4406 116.153625 399.8156Q115.54425 400.175 115.059875 400.34686L115.059875 399.33124Q115.934875 398.90936 116.591125 398.33124Q117.263 397.7375 117.54425 397.175L118.216125 397.175L118.216125 405.8ZM121.403625 403.8156L122.41925 403.72186Q122.54425 404.4406 122.903625 404.76874Q123.278625 405.08124 123.841125 405.08124Q124.3255 405.08124 124.684875 404.8625Q125.059875 404.6281 125.29425 404.26874Q125.528625 403.89374 125.684875 403.26874Q125.841125 402.6281 125.841125 401.97186Q125.841125 401.89374 125.841125 401.7531Q125.528625 402.2531 124.98175 402.58124Q124.434875 402.89374 123.79425 402.89374Q122.716125 402.89374 121.98175 402.1281Q121.247375 401.34686 121.247375 400.08124Q121.247375 398.76874 122.013 397.97186Q122.79425 397.175 123.9505 397.175Q124.778625 397.175 125.466125 397.6281Q126.16925 398.08124 126.528625 398.925Q126.888 399.7531 126.888 401.33124Q126.888 402.97186 126.528625 403.95624Q126.184875 404.925 125.466125 405.4406Q124.763 405.9406 123.8255 405.9406Q122.809875 405.9406 122.16925 405.39374Q121.528625 404.83124 121.403625 403.8156ZM125.716125 400.01874Q125.716125 399.1125 125.23175 398.58124Q124.763 398.05 124.0755 398.05Q123.372375 398.05 122.841125 398.6281Q122.3255 399.1906 122.3255 400.1125Q122.3255 400.925 122.8255 401.4406Q123.3255 401.95624 124.04425 401.95624Q124.778625 401.95624 125.247375 401.4406Q125.716125 400.925 125.716125 400.01874ZM128.40363 403.8156L129.41925 403.72186Q129.54425 404.4406 129.90363 404.76874Q130.27863 405.08124 130.84113 405.08124Q131.3255 405.08124 131.68488 404.8625Q132.05988 404.6281 132.29425 404.26874Q132.52863 403.89374 132.68488 403.26874Q132.84113 402.6281 132.84113 401.97186Q132.84113 401.89374 132.84113 401.7531Q132.52863 402.2531 131.98175 402.58124Q131.43488 402.89374 130.79425 402.89374Q129.71613 402.89374 128.98175 402.1281Q128.24738 401.34686 128.24738 400.08124Q128.24738 398.76874 129.013 397.97186Q129.79425 397.175 130.9505 397.175Q131.77863 397.175 132.46613 397.6281Q133.16925 398.08124 133.52863 398.925Q133.888 399.7531 133.888 401.33124Q133.888 402.97186 133.52863 403.95624Q133.18488 404.925 132.46613 405.4406Q131.763 405.9406 130.8255 405.9406Q129.80988 405.9406 129.16925 405.39374Q128.52863 404.83124 128.40363 403.8156ZM132.71613 400.01874Q132.71613 399.1125 132.23175 398.58124Q131.763 398.05 131.0755 398.05Q130.37238 398.05 129.84113 398.6281Q129.3255 399.1906 129.3255 400.1125Q129.3255 400.925 129.8255 401.4406Q130.3255 401.95624 131.04425 401.95624Q131.77863 401.95624 132.24738 401.4406Q132.71613 400.925 132.71613 400.01874ZM135.24738 403.55L136.35675 403.45624Q136.48175 404.26874 136.91925 404.675Q137.37238 405.08124 138.013 405.08124Q138.763 405.08124 139.29425 404.5031Q139.8255 403.925 139.8255 402.9875Q139.8255 402.08124 139.30988 401.5656Q138.80988 401.03436 137.98175 401.03436Q137.48175 401.03436 137.05988 401.26874Q136.65363 401.5031 136.41925 401.8625L135.43488 401.7375L136.263 397.33124L140.54425 397.33124L140.54425 398.33124L137.10675 398.33124L136.65363 400.64374Q137.41925 400.09686 138.263 400.09686Q139.388 400.09686 140.15363 400.8781Q140.93488 401.65936 140.93488 402.89374Q140.93488 404.05 140.263 404.90936Q139.43488 405.9406 138.013 405.9406Q136.84113 405.9406 136.09113 405.28436Q135.35675 404.6281 135.24738 403.55Z" fill-rule="nonzero"/><path fill="#000000" d="M248.16762 404.78436L248.16762 405.8L242.48012 405.8Q242.48012 405.425 242.60512 405.0656Q242.82387 404.4875 243.29262 403.925Q243.777 403.3625 244.68324 402.6281Q246.0895 401.47186 246.57387 400.8Q247.07387 400.1281 247.07387 399.53436Q247.07387 398.90936 246.62074 398.4875Q246.16762 398.05 245.44887 398.05Q244.68324 398.05 244.23012 398.5031Q243.777 398.95624 243.76137 399.76874L242.68324 399.65936Q242.79262 398.4406 243.51137 397.8156Q244.24574 397.175 245.48012 397.175Q246.7145 397.175 247.43324 397.8625Q248.152 398.55 248.152 399.5656Q248.152 400.08124 247.93324 400.58124Q247.73012 401.0656 247.23012 401.6281Q246.74574 402.175 245.62074 403.1281Q244.66762 403.925 244.38637 404.22186Q244.12074 404.5031 243.94887 404.78436L248.16762 404.78436ZM249.62074 401.5656Q249.62074 400.03436 249.93324 399.1125Q250.24574 398.175 250.85512 397.675Q251.48012 397.175 252.41762 397.175Q253.10512 397.175 253.62074 397.45624Q254.152 397.7375 254.49574 398.26874Q254.8395 398.78436 255.027 399.53436Q255.2145 400.28436 255.2145 401.5656Q255.2145 403.08124 254.902 404.0031Q254.60512 404.925 253.98012 405.4406Q253.37074 405.9406 252.41762 405.9406Q251.18324 405.9406 250.4645 405.05Q249.62074 403.9875 249.62074 401.5656ZM250.69887 401.5656Q250.69887 403.675 251.19887 404.3781Q251.69887 405.08124 252.41762 405.08124Q253.152 405.08124 253.63637 404.3781Q254.13637 403.675 254.13637 401.5656Q254.13637 399.4406 253.63637 398.7531Q253.152 398.05 252.402 398.05Q251.68324 398.05 251.24574 398.65936Q250.69887 399.4406 250.69887 401.5656ZM256.62073 401.5656Q256.62073 400.03436 256.93323 399.1125Q257.24573 398.175 257.8551 397.675Q258.4801 397.175 259.4176 397.175Q260.1051 397.175 260.62073 397.45624Q261.15198 397.7375 261.49573 398.26874Q261.83948 398.78436 262.02698 399.53436Q262.21448 400.28436 262.21448 401.5656Q262.21448 403.08124 261.90198 404.0031Q261.6051 404.925 260.9801 405.4406Q260.37073 405.9406 259.4176 405.9406Q258.18323 405.9406 257.46448 405.05Q256.62073 403.9875 256.62073 401.5656ZM257.69885 401.5656Q257.69885 403.675 258.19885 404.3781Q258.69885 405.08124 259.4176 405.08124Q260.15198 405.08124 260.63635 404.3781Q261.13635 403.675 261.13635 401.5656Q261.13635 399.4406 260.63635 398.7531Q260.15198 398.05 259.40198 398.05Q258.68323 398.05 258.24573 398.65936Q257.69885 399.4406 257.69885 401.5656ZM263.62073 401.5656Q263.62073 400.03436 263.93323 399.1125Q264.24573 398.175 264.8551 397.675Q265.4801 397.175 266.4176 397.175Q267.1051 397.175 267.62073 397.45624Q268.15198 397.7375 268.49573 398.26874Q268.83948 398.78436 269.02698 399.53436Q269.21448 400.28436 269.21448 401.5656Q269.21448 403.08124 268.90198 404.0031Q268.6051 404.925 267.9801 405.4406Q267.37073 405.9406 266.4176 405.9406Q265.18323 405.9406 264.46448 405.05Q263.62073 403.9875 263.62073 401.5656ZM264.69885 401.5656Q264.69885 403.675 265.19885 404.3781Q265.69885 405.08124 266.4176 405.08124Q267.15198 405.08124 267.63635 404.3781Q268.13635 403.675 268.13635 401.5656Q268.13635 399.4406 267.63635 398.7531Q267.15198 398.05 266.40198 398.05Q265.68323 398.05 265.24573 398.65936Q264.69885 399.4406 264.69885 401.5656Z" fill-rule="nonzero"/><path fill="#000000" d="M376.541 404.78436L376.541 405.8L370.8535 405.8Q370.8535 405.425 370.9785 405.0656Q371.19724 404.4875 371.666 403.925Q372.15036 403.3625 373.0566 402.6281Q374.46286 401.47186 374.94724 400.8Q375.44724 400.1281 375.44724 399.53436Q375.44724 398.90936 374.9941 398.4875Q374.541 398.05 373.82224 398.05Q373.0566 398.05 372.6035 398.5031Q372.15036 398.95624 372.13474 399.76874L371.0566 399.65936Q371.166 398.4406 371.88474 397.8156Q372.6191 397.175 373.8535 397.175Q375.08786 397.175 375.8066 397.8625Q376.52536 398.55 376.52536 399.5656Q376.52536 400.08124 376.3066 400.58124Q376.1035 401.0656 375.6035 401.6281Q375.1191 402.175 373.9941 403.1281Q373.041 403.925 372.75974 404.22186Q372.4941 404.5031 372.32224 404.78436L376.541 404.78436ZM377.9941 401.5656Q377.9941 400.03436 378.3066 399.1125Q378.6191 398.175 379.2285 397.675Q379.8535 397.175 380.791 397.175Q381.4785 397.175 381.9941 397.45624Q382.52536 397.7375 382.8691 398.26874Q383.21286 398.78436 383.40036 399.53436Q383.58786 400.28436 383.58786 401.5656Q383.58786 403.08124 383.27536 404.0031Q382.9785 404.925 382.3535 405.4406Q381.7441 405.9406 380.791 405.9406Q379.5566 405.9406 378.83786 405.05Q377.9941 403.9875 377.9941 401.5656ZM379.07224 401.5656Q379.07224 403.675 379.57224 404.3781Q380.07224 405.08124 380.791 405.08124Q381.52536 405.08124 382.00974 404.3781Q382.50974 403.675 382.50974 401.5656Q382.50974 399.4406 382.00974 398.7531Q381.52536 398.05 380.77536 398.05Q380.0566 398.05 379.6191 398.65936Q379.07224 399.4406 379.07224 401.5656ZM384.9941 401.5656Q384.9941 400.03436 385.3066 399.1125Q385.6191 398.175 386.2285 397.675Q386.8535 397.175 387.791 397.175Q388.4785 397.175 388.9941 397.45624Q389.52536 397.7375 389.8691 398.26874Q390.21286 398.78436 390.40036 399.53436Q390.58786 400.28436 390.58786 401.5656Q390.58786 403.08124 390.27536 404.0031Q389.9785 404.925 389.3535 405.4406Q388.7441 405.9406 387.791 405.9406Q386.5566 405.9406 385.83786 405.05Q384.9941 403.9875 384.9941 401.5656ZM386.07224 401.5656Q386.07224 403.675 386.57224 404.3781Q387.07224 405.08124 387.791 405.08124Q388.52536 405.08124 389.00974 404.3781Q389.50974 403.675 389.50974 401.5656Q389.50974 399.4406 389.00974 398.7531Q388.52536 398.05 387.77536 398.05Q387.0566 398.05 386.6191 398.65936Q386.07224 399.4406 386.07224 401.5656ZM391.9941 403.55L393.1035 403.45624Q393.2285 404.26874 393.666 404.675Q394.1191 405.08124 394.75974 405.08124Q395.50974 405.08124 396.041 404.5031Q396.57224 403.925 396.57224 402.9875Q396.57224 402.08124 396.0566 401.5656Q395.5566 401.03436 394.7285 401.03436Q394.2285 401.03436 393.8066 401.26874Q393.40036 401.5031 393.166 401.8625L392.1816 401.7375L393.00974 397.33124L397.291 397.33124L397.291 398.33124L393.8535 398.33124L393.40036 400.64374Q394.166 400.09686 395.00974 400.09686Q396.13474 400.09686 396.90036 400.8781Q397.6816 401.65936 397.6816 402.89374Q397.6816 404.05 397.00974 404.90936Q396.1816 405.9406 394.75974 405.9406Q393.58786 405.9406 392.83786 405.28436Q392.1035 404.6281 391.9941 403.55Z" fill-rule="nonzero"/><path fill="#000000" d="M504.91434 404.78436L504.91434 405.8L499.22684 405.8Q499.22684 405.425 499.35184 405.0656Q499.5706 404.4875 500.03934 403.925Q500.5237 403.3625 501.42996 402.6281Q502.8362 401.47186 503.3206 400.8Q503.8206 400.1281 503.8206 399.53436Q503.8206 398.90936 503.36746 398.4875Q502.91434 398.05 502.1956 398.05Q501.42996 398.05 500.97684 398.5031Q500.5237 398.95624 500.5081 399.76874L499.42996 399.65936Q499.53934 398.4406 500.2581 397.8156Q500.99246 397.175 502.22684 397.175Q503.4612 397.175 504.17996 397.8625Q504.8987 398.55 504.8987 399.5656Q504.8987 400.08124 504.67996 400.58124Q504.47684 401.0656 503.97684 401.6281Q503.49246 402.175 502.36746 403.1281Q501.41434 403.925 501.1331 404.22186Q500.86746 404.5031 500.6956 404.78436L504.91434 404.78436ZM506.36746 401.5656Q506.36746 400.03436 506.67996 399.1125Q506.99246 398.175 507.60184 397.675Q508.22684 397.175 509.16434 397.175Q509.85184 397.175 510.36746 397.45624Q510.8987 397.7375 511.24246 398.26874Q511.5862 398.78436 511.7737 399.53436Q511.9612 400.28436 511.9612 401.5656Q511.9612 403.08124 511.6487 404.0031Q511.35184 404.925 510.72684 405.4406Q510.11746 405.9406 509.16434 405.9406Q507.92996 405.9406 507.2112 405.05Q506.36746 403.9875 506.36746 401.5656ZM507.4456 401.5656Q507.4456 403.675 507.9456 404.3781Q508.4456 405.08124 509.16434 405.08124Q509.8987 405.08124 510.3831 404.3781Q510.8831 403.675 510.8831 401.5656Q510.8831 399.4406 510.3831 398.7531Q509.8987 398.05 509.1487 398.05Q508.42996 398.05 507.99246 398.65936Q507.4456 399.4406 507.4456 401.5656ZM517.3362 405.8L516.2893 405.8L516.2893 399.08124Q515.8987 399.4406 515.2737 399.8156Q514.6643 400.175 514.17993 400.34686L514.17993 399.33124Q515.05493 398.90936 515.7112 398.33124Q516.38306 397.7375 516.6643 397.175L517.3362 397.175L517.3362 405.8ZM520.36743 401.5656Q520.36743 400.03436 520.67993 399.1125Q520.99243 398.175 521.6018 397.675Q522.2268 397.175 523.1643 397.175Q523.8518 397.175 524.36743 397.45624Q524.8987 397.7375 525.24243 398.26874Q525.5862 398.78436 525.7737 399.53436Q525.9612 400.28436 525.9612 401.5656Q525.9612 403.08124 525.6487 404.0031Q525.3518 404.925 524.7268 405.4406Q524.11743 405.9406 523.1643 405.9406Q521.92993 405.9406 521.2112 405.05Q520.36743 403.9875 520.36743 401.5656ZM521.44556 401.5656Q521.44556 403.675 521.94556 404.3781Q522.44556 405.08124 523.1643 405.08124Q523.8987 405.08124 524.38306 404.3781Q524.88306 403.675 524.88306 401.5656Q524.88306 399.4406 524.38306 398.7531Q523.8987 398.05 523.1487 398.05Q522.42993 398.05 521.99243 398.65936Q521.44556 399.4406 521.44556 401.5656Z" fill-rule="nonzero"/><path fill="#000000" d="M633.2877 404.78436L633.2877 405.8L627.6002 405.8Q627.6002 405.425 627.7252 405.0656Q627.944 404.4875 628.4127 403.925Q628.8971 403.3625 629.80334 402.6281Q631.2096 401.47186 631.694 400.8Q632.194 400.1281 632.194 399.53436Q632.194 398.90936 631.74084 398.4875Q631.2877 398.05 630.569 398.05Q629.80334 398.05 629.3502 398.5031Q628.8971 398.95624 628.8815 399.76874L627.80334 399.65936Q627.9127 398.4406 628.6315 397.8156Q629.36584 397.175 630.6002 397.175Q631.8346 397.175 632.55334 397.8625Q633.2721 398.55 633.2721 399.5656Q633.2721 400.08124 633.05334 400.58124Q632.8502 401.0656 632.3502 401.6281Q631.86584 402.175 630.74084 403.1281Q629.7877 403.925 629.5065 404.22186Q629.24084 404.5031 629.069 404.78436L633.2877 404.78436ZM634.74084 401.5656Q634.74084 400.03436 635.05334 399.1125Q635.36584 398.175 635.9752 397.675Q636.6002 397.175 637.5377 397.175Q638.2252 397.175 638.74084 397.45624Q639.2721 397.7375 639.61584 398.26874Q639.9596 398.78436 640.1471 399.53436Q640.3346 400.28436 640.3346 401.5656Q640.3346 403.08124 640.0221 404.0031Q639.7252 404.925 639.1002 405.4406Q638.49084 405.9406 637.5377 405.9406Q636.30334 405.9406 635.5846 405.05Q634.74084 403.9875 634.74084 401.5656ZM635.819 401.5656Q635.819 403.675 636.319 404.3781Q636.819 405.08124 637.5377 405.08124Q638.2721 405.08124 638.7565 404.3781Q639.2565 403.675 639.2565 401.5656Q639.2565 399.4406 638.7565 398.7531Q638.2721 398.05 637.5221 398.05Q636.80334 398.05 636.36584 398.65936Q635.819 399.4406 635.819 401.5656ZM645.7096 405.8L644.6627 405.8L644.6627 399.08124Q644.2721 399.4406 643.6471 399.8156Q643.0377 400.175 642.55334 400.34686L642.55334 399.33124Q643.42834 398.90936 644.0846 398.33124Q644.7565 397.7375 645.0377 397.175L645.7096 397.175L645.7096 405.8ZM648.74084 403.55L649.8502 403.45624Q649.9752 404.26874 650.4127 404.675Q650.86584 405.08124 651.5065 405.08124Q652.2565 405.08124 652.7877 404.5031Q653.319 403.925 653.319 402.9875Q653.319 402.08124 652.80334 401.5656Q652.30334 401.03436 651.4752 401.03436Q650.9752 401.03436 650.55334 401.26874Q650.1471 401.5031 649.9127 401.8625L648.92834 401.7375L649.7565 397.33124L654.0377 397.33124L654.0377 398.33124L650.6002 398.33124L650.1471 400.64374Q650.9127 400.09686 651.7565 400.09686Q652.8815 400.09686 653.6471 400.8781Q654.42834 401.65936 654.42834 402.89374Q654.42834 404.05 653.7565 404.90936Q652.92834 405.9406 651.5065 405.9406Q650.3346 405.9406 649.5846 405.28436Q648.8502 404.6281 648.74084 403.55Z" fill-rule="nonzero"/><path fill="#000000" d="M761.6611 404.78436L761.6611 405.8L755.9736 405.8Q755.9736 405.425 756.0986 405.0656Q756.3173 404.4875 756.7861 403.925Q757.27045 403.3625 758.1767 402.6281Q759.58295 401.47186 760.0673 400.8Q760.5673 400.1281 760.5673 399.53436Q760.5673 398.90936 760.1142 398.4875Q759.6611 398.05 758.9423 398.05Q758.1767 398.05 757.7236 398.5031Q757.27045 398.95624 757.2548 399.76874L756.1767 399.65936Q756.2861 398.4406 757.0048 397.8156Q757.7392 397.175 758.9736 397.175Q760.20795 397.175 760.9267 397.8625Q761.64545 398.55 761.64545 399.5656Q761.64545 400.08124 761.4267 400.58124Q761.2236 401.0656 760.7236 401.6281Q760.2392 402.175 759.1142 403.1281Q758.1611 403.925 757.8798 404.22186Q757.6142 404.5031 757.4423 404.78436L761.6611 404.78436ZM763.1142 401.5656Q763.1142 400.03436 763.4267 399.1125Q763.7392 398.175 764.3486 397.675Q764.9736 397.175 765.9111 397.175Q766.5986 397.175 767.1142 397.45624Q767.64545 397.7375 767.9892 398.26874Q768.33295 398.78436 768.52045 399.53436Q768.70795 400.28436 768.70795 401.5656Q768.70795 403.08124 768.39545 404.0031Q768.0986 404.925 767.4736 405.4406Q766.8642 405.9406 765.9111 405.9406Q764.6767 405.9406 763.95795 405.05Q763.1142 403.9875 763.1142 401.5656ZM764.1923 401.5656Q764.1923 403.675 764.6923 404.3781Q765.1923 405.08124 765.9111 405.08124Q766.64545 405.08124 767.1298 404.3781Q767.6298 403.675 767.6298 401.5656Q767.6298 399.4406 767.1298 398.7531Q766.64545 398.05 765.89545 398.05Q765.1767 398.05 764.7392 398.65936Q764.1923 399.4406 764.1923 401.5656ZM775.6611 404.78436L775.6611 405.8L769.9736 405.8Q769.9736 405.425 770.0986 405.0656Q770.3173 404.4875 770.7861 403.925Q771.27045 403.3625 772.1767 402.6281Q773.58295 401.47186 774.0673 400.8Q774.5673 400.1281 774.5673 399.53436Q774.5673 398.90936 774.1142 398.4875Q773.6611 398.05 772.9423 398.05Q772.1767 398.05 771.7236 398.5031Q771.27045 398.95624 771.2548 399.76874L770.1767 399.65936Q770.2861 398.4406 771.0048 397.8156Q771.7392 397.175 772.9736 397.175Q774.20795 397.175 774.9267 397.8625Q775.64545 398.55 775.64545 399.5656Q775.64545 400.08124 775.4267 400.58124Q775.2236 401.0656 774.7236 401.6281Q774.2392 402.175 773.1142 403.1281Q772.1611 403.925 771.8798 404.22186Q771.6142 404.5031 771.4423 404.78436L775.6611 404.78436ZM777.1142 401.5656Q777.1142 400.03436 777.4267 399.1125Q777.7392 398.175 778.3486 397.675Q778.9736 397.175 779.9111 397.175Q780.5986 397.175 781.1142 397.45624Q781.64545 397.7375 781.9892 398.26874Q782.33295 398.78436 782.52045 399.53436Q782.70795 400.28436 782.70795 401.5656Q782.70795 403.08124 782.39545 404.0031Q782.0986 404.925 781.4736 405.4406Q780.8642 405.9406 779.9111 405.9406Q778.6767 405.9406 777.95795 405.05Q777.1142 403.9875 777.1142 401.5656ZM778.1923 401.5656Q778.1923 403.675 778.6923 404.3781Q779.1923 405.08124 779.9111 405.08124Q780.64545 405.08124 781.1298 404.3781Q781.6298 403.675 781.6298 401.5656Q781.6298 399.4406 781.1298 398.7531Q780.64545 398.05 779.89545 398.05Q779.1767 398.05 778.7392 398.65936Q778.1923 399.4406 778.1923 401.5656Z" fill-rule="nonzero"/></svg>