<svg version="1.1" viewBox="0.0 0.0 827.0 464.0" fill="none" stroke="none" stroke-linecap="square" stroke-miterlimit="10" width="827" height="464" xmlns:xlink="http://www.w3.org/1999/xlink" xmlns="http://www.w3.org/2000/svg"><path fill="#ffffff" d="M0 0L827.0 0L827.0 464.0L0 464.0L0 0Z" fill-rule="nonzero"/><path stroke="#cccccc" stroke-width="1.0" stroke-linecap="butt" d="M129.5 30.5L129.5 388.5" fill-rule="nonzero"/><path stroke="#cccccc" stroke-width="1.0" stroke-linecap="butt" d="M262.5 30.5L262.5 388.5" fill-rule="nonzero"/><path stroke="#cccccc" stroke-width="1.0" stroke-linecap="butt" d="M395.5 30.5L395.5 388.5" fill-rule="nonzero"/><path stroke="#cccccc" stroke-width="1.0" stroke-linecap="butt" d="M528.5 30.5L528.5 388.5" fill-rule="nonzero"/><path stroke="#cccccc" stroke-width="1.0" stroke-linecap="butt" d="M661.5 30.5L661.5 388.5" fill-rule="nonzero"/><path stroke="#cccccc" stroke-width="1.0" stroke-linecap="butt" d="M794.5 30.5L794.5 388.5" fill-rule="nonzero"/><path stroke="#e6e6e6" stroke-width="1.0" stroke-linecap="butt" d="M102.5 30.5L102.5 388.5" fill-rule="nonzero"/><path stroke="#e6e6e6" stroke-width="1.0" stroke-linecap="butt" d="M155.5 30.5L155.5 388.5" fill-rule="nonzero"/><path stroke="#e6e6e6" stroke-width="1.0" stroke-linecap="butt" d="M182.5 30.5L182.5 388.5" fill-rule="nonzero"/><path stroke="#e6e6e6" stroke-width="1.0" stroke-linecap="butt" d="M209.5 30.5L209.5 388.5" fill-rule="nonzero"/><path stroke="#e6e6e6" stroke-width="1.0" stroke-linecap="butt" d="M235.5 30.5L235.5 388.5" fill-rule="nonzero"/><path stroke="#e6e6e6" stroke-width="1.0" stroke-linecap="butt" d="M288.5 30.5L288.5 388.5" fill-rule="nonzero"/><path stroke="#e6e6e6" stroke-width="1.0" stroke-linecap="butt" d="M315.5 30.5L315.5 388.5" fill-rule="nonzero"/><path stroke="#e6e6e6" stroke-width="1.0" stroke-linecap="butt" d="M342.5 30.5L342.5 388.5" fill-rule="nonzero"/><path stroke="#e6e6e6" stroke-width="1.0" stroke-linecap="butt" d="M368.5 30.5L368.5 388.5" fill-rule="nonzero"/><path stroke="#e6e6e6" stroke-width="1.0" stroke-linecap="butt" d="M422.5 30.5L422.5 388.5" fill-rule="nonzero"/><path stroke="#e6e6e6" stroke-width="1.0" stroke-linecap="butt" d="M448.5 30.5L448.5 388.5" fill-rule="nonzero"/><path stroke="#e6e6e6" stroke-width="1.0" stroke-linecap="butt" d="M475.5 30.5L475.5 388.5" fill-rule="nonzero"/><path stroke="#e6e6e6" stroke-width="1.0" stroke-linecap="butt" d="M501.5 30.5L501.5 388.5" fill-rule="nonzero"/><path stroke="#e6e6e6" stroke-width="1.0" stroke-linecap="butt" d="M555.5 30.5L555.5 388.5" fill-rule="nonzero"/><path stroke="#e6e6e6" stroke-width="1.0" stroke-linecap="butt" d="M581.5 30.5L581.5 388.5" fill-rule="nonzero"/><path stroke="#e6e6e6" stroke-width="1.0" stroke-linecap="butt" d="M608.5 30.5L608.5 388.5" fill-rule="nonzero"/><path stroke="#e6e6e6" stroke-width="1.0" stroke-linecap="butt" d="M635.5 30.5L635.5 388.5" fill-rule="nonzero"/><path stroke="#e6e6e6" stroke-width="1.0" stroke-linecap="butt" d="M688.5 30.5L688.5 388.5" fill-rule="nonzero"/><path stroke="#e6e6e6" stroke-width="1.0" stroke-linecap="butt" d="M715.5 30.5L715.5 388.5" fill-rule="nonzero"/><path stroke="#e6e6e6" stroke-width="1.0" stroke-linecap="butt" d="M741.5 30.5L741.5 388.5" fill-rule="nonzero"/><path stroke="#e6e6e6" stroke-width="1.0" stroke-linecap="butt" d="M768.5 30.5L768.5 388.5" fill-rule="nonzero"/><path stroke="#333333" stroke-width="1.0" stroke-linecap="butt" d="M89.5 388.5L803.5 388.5" fill-rule="nonzero"/><path stroke="#cccccc" stroke-width="1.0" stroke-linecap="butt" d="M89.5 299.5L803.5 299.5" fill-rule="nonzero"/><path stroke="#cccccc" stroke-width="1.0" stroke-linecap="butt" d="M89.5 209.5L803.5 209.5" fill-rule="nonzero"/><path stroke="#cccccc" stroke-width="1.0" stroke-linecap="butt" d="M89.5 119.5L803.5 119.5" fill-rule="nonzero"/><path stroke="#cccccc" stroke-width="1.0" stroke-linecap="butt" d="M89.5 30.5L803.5 30.5" fill-rule="nonzero"/><clipPath id="id_0"><path d="M89.2 30.2L803.8 30.2L803.8 388.8L89.2 388.8L89.2 30.2Z" clip-rule="nonzero"/></clipPath><path stroke="#93c47d" stroke-width="4.0" stroke-linecap="butt" clip-path="url(#id_0)" d="M89.2 146.3864C89.2 146.3864 103.9863 123.03878 111.37944 115.5468C118.77259 108.054825 129.13257 101.62081 138.00912 98.60295C146.88568 95.58509 155.82742 97.89998 164.68764 97.4375C173.54785 96.97502 182.40807 93.4977 191.26828 95.8238C200.1285 98.149895 209.0216 108.56906 217.89816 111.4229C226.77473 114.27674 235.65129 108.94945 244.52785 112.94695C253.4044 116.94445 263.07574 128.07559 271.20636 135.4491C279.337 142.82262 287.46765 153.74304 295.59827 159.1167C303.7289 164.49036 315.54034 168.31453 324.4169 169.24715C333.29346 170.17976 342.17 169.24141 351.04657 165.48186C359.92313 161.72229 368.86487 148.10812 377.7251 146.65535C386.5853 145.20258 395.44553 148.1324 404.30573 156.69615C413.16595 165.2599 422.05905 185.77269 430.9356 198.11446C439.8122 210.45622 448.68875 226.02417 457.5653 230.74706C466.44186 235.46992 475.3836 228.86177 484.24384 226.44385C493.10403 224.02592 501.96426 217.3007 510.82446 216.22375C519.6847 215.14679 528.57776 218.43512 537.45435 219.98904C546.33093 221.54298 555.20746 225.18771 564.08405 225.54735C572.9606 225.90698 581.90234 222.81094 590.7626 222.14066C599.62274 221.47035 608.483 221.9458 617.3432 221.5131C626.2034 221.0804 635.0965 219.4661 643.9731 219.5408C652.8496 219.61551 661.7262 224.60045 670.6028 221.96135C679.4793 219.32225 688.4211 207.72571 697.28125 203.67274C706.1415 199.6198 715.0017 200.8446 723.86194 197.57655C732.7221 194.3085 741.61523 189.53792 750.4918 184.0394C759.36835 178.54088 768.24493 172.13792 777.12146 164.58534C785.99805 157.03278 803.8 138.6765 803.8 138.6765" fill-rule="nonzero"/><path fill="#000000" fill-opacity="0.0" clip-path="url(#id_0)" d="M92.2 146.3864C92.2 148.04326 90.85686 149.3864 89.2 149.3864C87.543144 149.3864 86.2 148.04326 86.2 146.3864C86.2 144.72955 87.543144 143.3864 89.2 143.3864C90.85686 143.3864 92.2 144.72955 92.2 146.3864Z" fill-rule="nonzero"/><path fill="#000000" fill-opacity="0.0" clip-path="url(#id_0)" d="M114.37944 115.5468C114.37944 117.20365 113.03629 118.5468 111.37944 118.5468C109.72259 118.5468 108.37944 117.20365 108.37944 115.5468C108.37944 113.889946 109.72259 112.5468 111.37944 112.5468C113.03629 112.5468 114.37944 113.889946 114.37944 115.5468Z" fill-rule="nonzero"/><path fill="#000000" fill-opacity="0.0" clip-path="url(#id_0)" d="M141.00912 98.60295C141.00912 100.2598 139.66597 101.60295 138.00912 101.60295C136.35226 101.60295 135.00912 100.2598 135.00912 98.60295C135.00912 96.9461 136.35226 95.60295 138.00912 95.60295C139.66597 95.60295 141.00912 96.9461 141.00912 98.60295Z" fill-rule="nonzero"/><path fill="#000000" fill-opacity="0.0" clip-path="url(#id_0)" d="M167.68764 97.4375C167.68764 99.09435 166.3445 100.4375 164.68764 100.4375C163.03079 100.4375 161.68764 99.09435 161.68764 97.4375C161.68764 95.78065 163.03079 94.4375 164.68764 94.4375C166.3445 94.4375 167.68764 95.78065 167.68764 97.4375Z" fill-rule="nonzero"/><path fill="#000000" fill-opacity="0.0" clip-path="url(#id_0)" d="M194.26828 95.8238C194.26828 97.48065 192.92514 98.8238 191.26828 98.8238C189.61143 98.8238 188.26828 97.48065 188.26828 95.8238C188.26828 94.16695 189.61143 92.8238 191.26828 92.8238C192.92514 92.8238 194.26828 94.16695 194.26828 95.8238Z" fill-rule="nonzero"/><path fill="#000000" fill-opacity="0.0" clip-path="url(#id_0)" d="M220.89816 111.4229C220.89816 113.07976 219.55502 114.4229 217.89816 114.4229C216.24132 114.4229 214.89816 113.07976 214.89816 111.4229C214.89816 109.766045 216.24132 108.4229 217.89816 108.4229C219.55502 108.4229 220.89816 109.766045 220.89816 111.4229Z" fill-rule="nonzero"/><path fill="#000000" fill-opacity="0.0" clip-path="url(#id_0)" d="M247.52785 112.94695C247.52785 114.603806 246.18471 115.94695 244.52785 115.94695C242.871 115.94695 241.52785 114.603806 241.52785 112.94695C241.52785 111.29009 242.871 109.94695 244.52785 109.94695C246.18471 109.94695 247.52785 111.29009 247.52785 112.94695Z" fill-rule="nonzero"/><path fill="#000000" fill-opacity="0.0" clip-path="url(#id_0)" d="M274.20636 135.4491C274.20636 137.10596 272.86322 138.4491 271.20636 138.4491C269.5495 138.4491 268.20636 137.10596 268.20636 135.4491C268.20636 133.79225 269.5495 132.4491 271.20636 132.4491C272.86322 132.4491 274.20636 133.79225 274.20636 135.4491Z" fill-rule="nonzero"/><path fill="#000000" fill-opacity="0.0" clip-path="url(#id_0)" d="M298.59827 159.1167C298.59827 160.77356 297.25513 162.1167 295.59827 162.1167C293.9414 162.1167 292.59827 160.77356 292.59827 159.1167C292.59827 157.45984 293.9414 156.1167 295.59827 156.1167C297.25513 156.1167 298.59827 157.45984 298.59827 159.1167Z" fill-rule="nonzero"/><path fill="#000000" fill-opacity="0.0" clip-path="url(#id_0)" d="M327.4169 169.24715C327.4169 170.904 326.07376 172.24715 324.4169 172.24715C322.76004 172.24715 321.4169 170.904 321.4169 169.24715C321.4169 167.5903 322.76004 166.24715 324.4169 166.24715C326.07376 166.24715 327.4169 167.5903 327.4169 169.24715Z" fill-rule="nonzero"/><path fill="#000000" fill-opacity="0.0" clip-path="url(#id_0)" d="M354.04657 165.48186C354.04657 167.1387 352.70343 168.48186 351.04657 168.48186C349.3897 168.48186 348.04657 167.1387 348.04657 165.48186C348.04657 163.825 349.3897 162.48186 351.04657 162.48186C352.70343 162.48186 354.04657 163.825 354.04657 165.48186Z" fill-rule="nonzero"/><path fill="#000000" fill-opacity="0.0" clip-path="url(#id_0)" d="M380.7251 146.65535C380.7251 148.31221 379.38196 149.65535 377.7251 149.65535C376.06824 149.65535 374.7251 148.31221 374.7251 146.65535C374.7251 144.99849 376.06824 143.65535 377.7251 143.65535C379.38196 143.65535 380.7251 144.99849 380.7251 146.65535Z" fill-rule="nonzero"/><path fill="#000000" fill-opacity="0.0" clip-path="url(#id_0)" d="M407.30573 156.69615C407.30573 158.353 405.9626 159.69615 404.30573 159.69615C402.6489 159.69615 401.30573 158.353 401.30573 156.69615C401.30573 155.03929 402.6489 153.69615 404.30573 153.69615C405.9626 153.69615 407.30573 155.03929 407.30573 156.69615Z" fill-rule="nonzero"/><path fill="#000000" fill-opacity="0.0" clip-path="url(#id_0)" d="M433.9356 198.11446C433.9356 199.7713 432.59247 201.11446 430.9356 201.11446C429.27878 201.11446 427.9356 199.7713 427.9356 198.11446C427.9356 196.4576 429.27878 195.11446 430.9356 195.11446C432.59247 195.11446 433.9356 196.4576 433.9356 198.11446Z" fill-rule="nonzero"/><path fill="#000000" fill-opacity="0.0" clip-path="url(#id_0)" d="M460.5653 230.74706C460.5653 232.4039 459.22217 233.74706 457.5653 233.74706C455.90845 233.74706 454.5653 232.4039 454.5653 230.74706C454.5653 229.0902 455.90845 227.74706 457.5653 227.74706C459.22217 227.74706 460.5653 229.0902 460.5653 230.74706Z" fill-rule="nonzero"/><path fill="#000000" fill-opacity="0.0" clip-path="url(#id_0)" d="M487.24384 226.44385C487.24384 228.10071 485.90067 229.44385 484.24384 229.44385C482.58698 229.44385 481.24384 228.10071 481.24384 226.44385C481.24384 224.787 482.58698 223.44385 484.24384 223.44385C485.90067 223.44385 487.24384 224.787 487.24384 226.44385Z" fill-rule="nonzero"/><path fill="#000000" fill-opacity="0.0" clip-path="url(#id_0)" d="M513.82446 216.22375C513.82446 217.8806 512.4813 219.22375 510.82446 219.22375C509.1676 219.22375 507.82446 217.8806 507.82446 216.22375C507.82446 214.5669 509.1676 213.22375 510.82446 213.22375C512.4813 213.22375 513.82446 214.5669 513.82446 216.22375Z" fill-rule="nonzero"/><path fill="#000000" fill-opacity="0.0" clip-path="url(#id_0)" d="M540.45435 219.98904C540.45435 221.6459 539.1112 222.98904 537.45435 222.98904C535.7975 222.98904 534.45435 221.6459 534.45435 219.98904C534.45435 218.3322 535.7975 216.98904 537.45435 216.98904C539.1112 216.98904 540.45435 218.3322 540.45435 219.98904Z" fill-rule="nonzero"/><path fill="#000000" fill-opacity="0.0" clip-path="url(#id_0)" d="M567.08405 225.54735C567.08405 227.20421 565.7409 228.54735 564.08405 228.54735C562.4272 228.54735 561.08405 227.20421 561.08405 225.54735C561.08405 223.8905 562.4272 222.54735 564.08405 222.54735C565.7409 222.54735 567.08405 223.8905 567.08405 225.54735Z" fill-rule="nonzero"/><path fill="#000000" fill-opacity="0.0" clip-path="url(#id_0)" d="M593.7626 222.14066C593.7626 223.7975 592.4194 225.14066 590.7626 225.14066C589.1057 225.14066 587.7626 223.7975 587.7626 222.14066C587.7626 220.4838 589.1057 219.14066 590.7626 219.14066C592.4194 219.14066 593.7626 220.4838 593.7626 222.14066Z" fill-rule="nonzero"/><path fill="#000000" fill-opacity="0.0" clip-path="url(#id_0)" d="M620.3432 221.5131C620.3432 223.16995 619.00006 224.5131 617.3432 224.5131C615.68634 224.5131 614.3432 223.16995 614.3432 221.5131C614.3432 219.85625 615.68634 218.5131 617.3432 218.5131C619.00006 218.5131 620.3432 219.85625 620.3432 221.5131Z" fill-rule="nonzero"/><path fill="#000000" fill-opacity="0.0" clip-path="url(#id_0)" d="M646.9731 219.5408C646.9731 221.19765 645.62994 222.5408 643.9731 222.5408C642.3162 222.5408 640.9731 221.19765 640.9731 219.5408C640.9731 217.88394 642.3162 216.5408 643.9731 216.5408C645.62994 216.5408 646.9731 217.88394 646.9731 219.5408Z" fill-rule="nonzero"/><path fill="#000000" fill-opacity="0.0" clip-path="url(#id_0)" d="M673.6028 221.96135C673.6028 223.61821 672.2596 224.96135 670.6028 224.96135C668.9459 224.96135 667.6028 223.61821 667.6028 221.96135C667.6028 220.30449 668.9459 218.96135 670.6028 218.96135C672.2596 218.96135 673.6028 220.30449 673.6028 221.96135Z" fill-rule="nonzero"/><path fill="#000000" fill-opacity="0.0" clip-path="url(#id_0)" d="M700.28125 203.67274C700.28125 205.3296 698.9381 206.67274 697.28125 206.67274C695.6244 206.67274 694.28125 205.3296 694.28125 203.67274C694.28125 202.0159 695.6244 200.67274 697.28125 200.67274C698.9381 200.67274 700.28125 202.0159 700.28125 203.67274Z" fill-rule="nonzero"/><path fill="#000000" fill-opacity="0.0" clip-path="url(#id_0)" d="M726.86194 197.57655C726.86194 199.2334 725.5188 200.57655 723.86194 200.57655C722.2051 200.57655 720.86194 199.2334 720.86194 197.57655C720.86194 195.9197 722.2051 194.57655 723.86194 194.57655C725.5188 194.57655 726.86194 195.9197 726.86194 197.57655Z" fill-rule="nonzero"/><path fill="#000000" fill-opacity="0.0" clip-path="url(#id_0)" d="M753.4918 184.0394C753.4918 185.69626 752.1487 187.0394 750.4918 187.0394C748.83496 187.0394 747.4918 185.69626 747.4918 184.0394C747.4918 182.38255 748.83496 181.0394 750.4918 181.0394C752.1487 181.0394 753.4918 182.38255 753.4918 184.0394Z" fill-rule="nonzero"/><path fill="#000000" fill-opacity="0.0" clip-path="url(#id_0)" d="M780.12146 164.58534C780.12146 166.2422 778.7783 167.58534 777.12146 167.58534C775.4646 167.58534 774.12146 166.2422 774.12146 164.58534C774.12146 162.9285 775.4646 161.58534 777.12146 161.58534C778.7783 161.58534 780.12146 162.9285 780.12146 164.58534Z" fill-rule="nonzero"/><path fill="#000000" fill-opacity="0.0" clip-path="url(#id_0)" d="M806.8 138.6765C806.8 140.33336 805.45685 141.6765 803.8 141.6765C802.1431 141.6765 800.8 140.33336 800.8 138.6765C800.8 137.01965 802.1431 135.6765 803.8 135.6765C805.45685 135.6765 806.8 137.01965 806.8 138.6765Z" fill-rule="nonzero"/><path fill="#000000" d="M436.84375 437.8L436.84375 434.15936L433.53125 429.20624L434.92188 429.20624L436.60938 431.8Q437.07812 432.51874 437.48438 433.2531Q437.875 432.58124 438.42188 431.7375L440.09375 429.20624L441.40625 429.20624L437.98438 434.15936L437.98438 437.8L436.84375 437.8ZM446.54688 435.8L447.64062 435.925Q447.39062 436.8781 446.6875 437.40936Q445.98438 437.9406 444.90625 437.9406Q443.54688 437.9406 442.73438 437.09686Q441.9375 436.2531 441.9375 434.7375Q441.9375 433.175 442.75 432.3156Q443.5625 431.4406 444.84375 431.4406Q446.09375 431.4406 446.875 432.28436Q447.67188 433.1281 447.67188 434.675Q447.67188 434.76874 447.67188 434.95624L443.03125 434.95624Q443.09375 435.9875 443.60938 436.53436Q444.125 437.0656 444.90625 437.0656Q445.48438 437.0656 445.89062 436.76874Q446.3125 436.45624 446.54688 435.8ZM443.09375 434.09686L446.5625 434.09686Q446.5 433.3 446.17188 432.90936Q445.65625 432.3 444.85938 432.3Q444.125 432.3 443.625 432.78436Q443.14062 433.26874 443.09375 434.09686ZM453.35938 437.03436Q452.76562 437.53436 452.21875 437.7375Q451.6875 437.9406 451.0625 437.9406Q450.03125 437.9406 449.48438 437.4406Q448.9375 436.9406 448.9375 436.15936Q448.9375 435.70624 449.14062 435.33124Q449.34375 434.9406 449.6875 434.72186Q450.03125 434.4875 450.45312 434.3781Q450.75 434.28436 451.39062 434.20624Q452.65625 434.0656 453.26562 433.84686Q453.26562 433.6281 453.26562 433.58124Q453.26562 432.925 452.96875 432.65936Q452.5625 432.3156 451.76562 432.3156Q451.03125 432.3156 450.67188 432.58124Q450.3125 432.83124 450.14062 433.4875L449.10938 433.34686Q449.25 432.6906 449.57812 432.28436Q449.90625 431.8781 450.51562 431.65936Q451.125 431.4406 451.92188 431.4406Q452.71875 431.4406 453.21875 431.6281Q453.71875 431.8156 453.95312 432.09686Q454.1875 432.3781 454.28125 432.8156Q454.32812 433.08124 454.32812 433.78436L454.32812 435.1906Q454.32812 436.65936 454.39062 437.05Q454.46875 437.4406 454.67188 437.8L453.5625 437.8Q453.40625 437.47186 453.35938 437.03436ZM453.26562 434.675Q452.6875 434.90936 451.54688 435.08124Q450.89062 435.175 450.625 435.3Q450.35938 435.40936 450.20312 435.6281Q450.0625 435.84686 450.0625 436.1281Q450.0625 436.55 450.375 436.83124Q450.70312 437.1125 451.3125 437.1125Q451.92188 437.1125 452.39062 436.84686Q452.875 436.58124 453.09375 436.1125Q453.26562 435.7531 453.26562 435.0656L453.26562 434.675ZM456.28125 437.8L456.28125 431.58124L457.23438 431.58124L457.23438 432.51874Q457.59375 431.8625 457.89062 431.65936Q458.20312 431.4406 458.57812 431.4406Q459.10938 431.4406 459.65625 431.76874L459.29688 432.7531Q458.90625 432.51874 458.53125 432.51874Q458.17188 432.51874 457.89062 432.7375Q457.625 432.9406 457.51562 433.3156Q457.32812 433.8781 457.32812 434.53436L457.32812 437.8L456.28125 437.8Z" fill-rule="nonzero"/><path fill="#000000" d="M31.184362 284.9375L31.481237 283.8125Q32.871864 284.17188 33.60624 285.09375Q34.340614 286.01562 34.340614 287.35938Q34.340614 288.75 33.778114 289.625Q33.215614 290.5 32.153114 290.95312Q31.074987 291.40625 29.840612 291.40625Q28.496862 291.40625 27.496862 290.89062Q26.496862 290.375 25.981237 289.4375Q25.465612 288.48438 25.465612 287.34375Q25.465612 286.0625 26.121862 285.1875Q26.778112 284.29688 27.965612 283.95312L28.231237 285.07812Q27.293737 285.375 26.871862 285.95312Q26.434362 286.51562 26.434362 287.375Q26.434362 288.35938 26.918737 289.03125Q27.387487 289.6875 28.184362 289.96875Q28.981237 290.23438 29.840612 290.23438Q30.934362 290.23438 31.746862 289.92188Q32.559364 289.59375 32.965614 288.92188Q33.371864 288.25 33.371864 287.45312Q33.371864 286.5 32.82499 285.84375Q32.278114 285.17188 31.184362 284.9375ZM34.19999 282.01562L25.606237 282.01562L25.606237 276.21875L26.621862 276.21875L26.621862 280.875L29.278112 280.875L29.278112 276.84375L30.293737 276.84375L30.293737 280.875L34.19999 280.875L34.19999 282.01562ZM31.184362 268.9375L31.481237 267.8125Q32.871864 268.17188 33.60624 269.09375Q34.340614 270.01562 34.340614 271.35938Q34.340614 272.75 33.778114 273.625Q33.215614 274.5 32.153114 274.95312Q31.074987 275.40625 29.840612 275.40625Q28.496862 275.40625 27.496862 274.89062Q26.496862 274.375 25.981237 273.4375Q25.465612 272.48438 25.465612 271.34375Q25.465612 270.0625 26.121862 269.1875Q26.778112 268.29688 27.965612 267.95312L28.231237 269.07812Q27.293737 269.375 26.871862 269.95312Q26.434362 270.51562 26.434362 271.375Q26.434362 272.35938 26.918737 273.03125Q27.387487 273.6875 28.184362 273.96875Q28.981237 274.23438 29.840612 274.23438Q30.934362 274.23438 31.746862 273.92188Q32.559364 273.59375 32.965614 272.92188Q33.371864 272.25 33.371864 271.45312Q33.371864 270.5 32.82499 269.84375Q32.278114 269.17188 31.184362 268.9375ZM34.19999 263.10938L25.606237 263.10938L25.606237 261.39062L31.684362 259.35938Q32.54374 259.07812 32.965614 258.95312Q32.496864 258.8125 31.590612 258.5L25.606237 256.4375L25.606237 254.90625L34.19999 254.90625L34.19999 256.0L27.012487 256.0L34.19999 258.5L34.19999 259.53125L26.887487 262.01562L34.19999 262.01562L34.19999 263.10938ZM32.19999 248.95312L32.32499 247.85938Q33.278114 248.10938 33.809364 248.8125Q34.340614 249.51562 34.340614 250.59375Q34.340614 251.95312 33.496864 252.76562Q32.653114 253.5625 31.137487 253.5625Q29.574987 253.5625 28.715612 252.75Q27.840612 251.9375 27.840612 250.65625Q27.840612 249.40625 28.684362 248.625Q29.528112 247.82812 31.074987 247.82812Q31.168737 247.82812 31.356237 247.82812L31.356237 252.46875Q32.38749 252.40625 32.934364 251.89062Q33.465614 251.375 33.465614 250.59375Q33.465614 250.01562 33.16874 249.60938Q32.85624 249.1875 32.19999 248.95312ZM30.496862 252.40625L30.496862 248.9375Q29.699987 249.0 29.309362 249.32812Q28.699987 249.84375 28.699987 250.64062Q28.699987 251.375 29.184362 251.875Q29.668737 252.35938 30.496862 252.40625ZM34.19999 246.20312L27.981237 246.20312L27.981237 245.26562L28.856237 245.26562Q28.387487 244.96875 28.121862 244.48438Q27.840612 244.0 27.840612 243.375Q27.840612 242.6875 28.121862 242.25Q28.403112 241.79688 28.918737 241.625Q27.840612 240.875 27.840612 239.70312Q27.840612 238.76562 28.356237 238.28125Q28.856237 237.78125 29.934362 237.78125L34.19999 237.78125L34.19999 238.82812L30.278112 238.82812Q29.653112 238.82812 29.371862 238.9375Q29.090612 239.03125 28.918737 239.29688Q28.746862 239.5625 28.746862 239.9375Q28.746862 240.59375 29.184362 241.03125Q29.621862 241.45312 30.590612 241.45312L34.19999 241.45312L34.19999 242.51562L30.153112 242.51562Q29.449987 242.51562 29.106237 242.78125Q28.746862 243.03125 28.746862 243.60938Q28.746862 244.0625 28.981237 244.4375Q29.215612 244.8125 29.668737 244.98438Q30.121862 245.15625 30.965612 245.15625L34.19999 245.15625L34.19999 246.20312ZM34.19999 235.23438L34.19999 236.21875L25.606237 236.21875L25.606237 235.15625L28.668737 235.15625Q27.840612 234.48438 27.840612 233.45312Q27.840612 232.875 28.074987 232.375Q28.293737 231.85938 28.715612 231.53125Q29.137487 231.1875 29.731237 231.0Q30.324987 230.8125 30.996862 230.8125Q32.590614 230.8125 33.465614 231.60938Q34.340614 232.40625 34.340614 233.5Q34.340614 234.60938 33.41874 235.23438L34.19999 235.23438ZM31.043737 235.25Q32.153114 235.25 32.653114 234.9375Q33.465614 234.4375 33.465614 233.59375Q33.465614 232.90625 32.871864 232.40625Q32.278114 231.89062 31.074987 231.89062Q29.856237 231.89062 29.278112 232.375Q28.699987 232.85938 28.699987 233.54688Q28.699987 234.23438 29.309362 234.75Q29.903112 235.25 31.043737 235.25ZM32.19999 224.95312L32.32499 223.85938Q33.278114 224.10938 33.809364 224.8125Q34.340614 225.51562 34.340614 226.59375Q34.340614 227.95312 33.496864 228.76562Q32.653114 229.5625 31.137487 229.5625Q29.574987 229.5625 28.715612 228.75Q27.840612 227.9375 27.840612 226.65625Q27.840612 225.40625 28.684362 224.625Q29.528112 223.82812 31.074987 223.82812Q31.168737 223.82812 31.356237 223.82812L31.356237 228.46875Q32.38749 228.40625 32.934364 227.89062Q33.465614 227.375 33.465614 226.59375Q33.465614 226.01562 33.16874 225.60938Q32.85624 225.1875 32.19999 224.95312ZM30.496862 228.40625L30.496862 224.9375Q29.699987 225.0 29.309362 225.32812Q28.699987 225.84375 28.699987 226.64062Q28.699987 227.375 29.184362 227.875Q29.668737 228.35938 30.496862 228.40625ZM34.19999 222.21875L27.981237 222.21875L27.981237 221.26562L28.918737 221.26562Q28.262487 220.90625 28.059362 220.60938Q27.840612 220.29688 27.840612 219.92188Q27.840612 219.39062 28.168737 218.84375L29.153112 219.20312Q28.918737 219.59375 28.918737 219.96875Q28.918737 220.32812 29.137487 220.60938Q29.340612 220.875 29.715612 220.98438Q30.278112 221.17188 30.934362 221.17188L34.19999 221.17188L34.19999 222.21875ZM32.340614 218.625L32.184364 217.59375Q32.809364 217.5 33.13749 217.10938Q33.465614 216.70312 33.465614 215.96875Q33.465614 215.25 33.184364 214.90625Q32.88749 214.54688 32.48124 214.54688Q32.121864 214.54688 31.918737 214.85938Q31.778112 215.07812 31.559362 215.9375Q31.262487 217.09375 31.059362 217.54688Q30.840612 217.98438 30.465612 218.21875Q30.090612 218.45312 29.621862 218.45312Q29.215612 218.45312 28.856237 218.26562Q28.496862 218.07812 28.262487 217.75Q28.090612 217.5 27.965612 217.07812Q27.840612 216.65625 27.840612 216.15625Q27.840612 215.4375 28.059362 214.89062Q28.262487 214.32812 28.621862 214.0625Q28.981237 213.79688 29.574987 213.70312L29.715612 214.73438Q29.246862 214.79688 28.981237 215.14062Q28.699987 215.46875 28.699987 216.09375Q28.699987 216.8125 28.949987 217.125Q29.184362 217.4375 29.512487 217.4375Q29.715612 217.4375 29.871862 217.3125Q30.043737 217.17188 30.153112 216.90625Q30.215612 216.75 30.418737 215.96875Q30.731237 214.84375 30.918737 214.40625Q31.106237 213.96875 31.465612 213.71875Q31.824987 213.46875 32.371864 213.46875Q32.903114 213.46875 33.371864 213.78125Q33.82499 214.07812 34.090614 214.65625Q34.340614 215.23438 34.340614 215.96875Q34.340614 217.1875 33.840614 217.82812Q33.32499 218.45312 32.340614 218.625ZM31.621862 209.625L30.559362 209.625L30.559362 206.375L31.621862 206.375L31.621862 209.625ZM34.19999 199.89062L26.621862 199.89062L26.621862 202.71875L25.606237 202.71875L25.606237 195.90625L26.621862 195.90625L26.621862 198.75L34.19999 198.75L34.19999 199.89062ZM31.090612 195.59375Q29.356237 195.59375 28.528112 194.64062Q27.840612 193.84375 27.840612 192.6875Q27.840612 191.40625 28.684362 190.59375Q29.512487 189.76562 30.996862 189.76562Q32.19999 189.76562 32.88749 190.125Q33.57499 190.48438 33.965614 191.1875Q34.340614 191.875 34.340614 192.6875Q34.340614 193.98438 33.51249 194.79688Q32.66874 195.59375 31.090612 195.59375ZM31.090612 194.51562Q32.278114 194.51562 32.871864 194.0Q33.465614 193.46875 33.465614 192.6875Q33.465614 191.89062 32.871864 191.375Q32.278114 190.85938 31.059362 190.85938Q29.903112 190.85938 29.309362 191.39062Q28.715612 191.90625 28.715612 192.6875Q28.715612 193.46875 29.309362 194.0Q29.887487 194.51562 31.090612 194.51562ZM33.26249 185.90625L34.184364 185.75Q34.278114 186.20312 34.278114 186.54688Q34.278114 187.125 34.10624 187.4375Q33.91874 187.75 33.621864 187.89062Q33.32499 188.01562 32.371864 188.01562L28.793737 188.01562L28.793737 188.78125L27.981237 188.78125L27.981237 188.01562L26.434362 188.01562L25.809362 186.96875L27.981237 186.96875L27.981237 185.90625L28.793737 185.90625L28.793737 186.96875L32.434364 186.96875Q32.88749 186.96875 33.01249 186.92188Q33.13749 186.85938 33.215614 186.73438Q33.29374 186.60938 33.29374 186.375Q33.29374 186.1875 33.26249 185.90625ZM33.434364 181.14062Q33.934364 181.73438 34.13749 182.28125Q34.340614 182.8125 34.340614 183.4375Q34.340614 184.46875 33.840614 185.01562Q33.340614 185.5625 32.559364 185.5625Q32.10624 185.5625 31.731237 185.35938Q31.340612 185.15625 31.121862 184.8125Q30.887487 184.46875 30.778112 184.04688Q30.684362 183.75 30.606237 183.10938Q30.465612 181.84375 30.246862 181.23438Q30.028112 181.23438 29.981237 181.23438Q29.324987 181.23438 29.059362 181.53125Q28.715612 181.9375 28.715612 182.73438Q28.715612 183.46875 28.981237 183.82812Q29.231237 184.1875 29.887487 184.35938L29.746862 185.39062Q29.090612 185.25 28.684362 184.92188Q28.278112 184.59375 28.059362 183.98438Q27.840612 183.375 27.840612 182.57812Q27.840612 181.78125 28.028112 181.28125Q28.215612 180.78125 28.496862 180.54688Q28.778112 180.3125 29.215612 180.21875Q29.481237 180.17188 30.184362 180.17188L31.590612 180.17188Q33.059364 180.17188 33.44999 180.10938Q33.840614 180.03125 34.19999 179.82812L34.19999 180.9375Q33.871864 181.09375 33.434364 181.14062ZM31.074987 181.23438Q31.309362 181.8125 31.481237 182.95312Q31.574987 183.60938 31.699987 183.875Q31.809362 184.14062 32.028114 184.29688Q32.246864 184.4375 32.528114 184.4375Q32.94999 184.4375 33.23124 184.125Q33.51249 183.79688 33.51249 183.1875Q33.51249 182.57812 33.246864 182.10938Q32.98124 181.625 32.51249 181.40625Q32.153114 181.23438 31.465612 181.23438L31.074987 181.23438ZM34.19999 178.23438L25.606237 178.23438L25.606237 177.17188L34.19999 177.17188L34.19999 178.23438ZM34.19999 173.01562L25.606237 169.71875L25.606237 168.5L34.19999 164.98438L34.19999 166.26562L31.590612 167.28125L31.590612 170.85938L34.19999 171.8125L34.19999 173.01562ZM30.668737 170.53125L30.668737 167.625L28.293737 168.51562Q27.215612 168.9375 26.512487 169.125Q27.340612 169.29688 28.153112 169.59375L30.668737 170.53125ZM31.918737 160.14062L32.059364 159.10938Q33.121864 159.28125 33.73124 159.98438Q34.340614 160.6875 34.340614 161.70312Q34.340614 162.98438 33.51249 163.76562Q32.66874 164.53125 31.106237 164.53125Q30.106237 164.53125 29.356237 164.20312Q28.590612 163.85938 28.215612 163.1875Q27.840612 162.5 27.840612 161.6875Q27.840612 160.6875 28.356237 160.04688Q28.856237 159.39062 29.809362 159.20312L29.965612 160.23438Q29.340612 160.375 29.028112 160.75Q28.699987 161.125 28.699987 161.65625Q28.699987 162.45312 29.278112 162.95312Q29.840612 163.45312 31.074987 163.45312Q32.340614 163.45312 32.903114 162.96875Q33.465614 162.48438 33.465614 161.71875Q33.465614 161.09375 33.090614 160.6875Q32.715614 160.26562 31.918737 160.14062ZM33.26249 155.90625L34.184364 155.75Q34.278114 156.20312 34.278114 156.54688Q34.278114 157.125 34.10624 157.4375Q33.91874 157.75 33.621864 157.89062Q33.32499 158.01562 32.371864 158.01562L28.793737 158.01562L28.793737 158.78125L27.981237 158.78125L27.981237 158.01562L26.434362 158.01562L25.809362 156.96875L27.981237 156.96875L27.981237 155.90625L28.793737 155.90625L28.793737 156.96875L32.434364 156.96875Q32.88749 156.96875 33.01249 156.92188Q33.13749 156.85938 33.215614 156.73438Q33.29374 156.60938 33.29374 156.375Q33.29374 156.1875 33.26249 155.90625ZM26.824987 155.20312L25.606237 155.20312L25.606237 154.14062L26.824987 154.14062L26.824987 155.20312ZM34.19999 155.20312L27.981237 155.20312L27.981237 154.14062L34.19999 154.14062L34.19999 155.20312ZM34.19999 150.48438L27.981237 152.84375L27.981237 151.73438L31.699987 150.39062Q32.309364 150.1875 32.94999 150.0Q32.465614 149.85938 31.778112 149.60938L27.981237 148.21875L27.981237 147.14062L34.19999 149.5L34.19999 150.48438ZM32.19999 141.95312L32.32499 140.85938Q33.278114 141.10938 33.809364 141.8125Q34.340614 142.51562 34.340614 143.59375Q34.340614 144.95312 33.496864 145.76562Q32.653114 146.5625 31.137487 146.5625Q29.574987 146.5625 28.715612 145.75Q27.840612 144.9375 27.840612 143.65625Q27.840612 142.40625 28.684362 141.625Q29.528112 140.82812 31.074987 140.82812Q31.168737 140.82812 31.356237 140.82812L31.356237 145.46875Q32.38749 145.40625 32.934364 144.89062Q33.465614 144.375 33.465614 143.59375Q33.465614 143.01562 33.16874 142.60938Q32.85624 142.1875 32.19999 141.95312ZM30.496862 145.40625L30.496862 141.9375Q29.699987 142.0 29.309362 142.32812Q28.699987 142.84375 28.699987 143.64062Q28.699987 144.375 29.184362 144.875Q29.668737 145.35938 30.496862 145.40625Z" fill-rule="nonzero"/><path fill="#000000" d="M76.7 388.5656Q76.7 387.03436 77.0125 386.1125Q77.325 385.175 77.93437 384.675Q78.55937 384.175 79.49687 384.175Q80.18437 384.175 80.7 384.45624Q81.23125 384.7375 81.575 385.26874Q81.91875 385.78436 82.10625 386.53436Q82.29375 387.28436 82.29375 388.5656Q82.29375 390.08124 81.98125 391.0031Q81.68437 391.925 81.05937 392.4406Q80.45 392.9406 79.49687 392.9406Q78.2625 392.9406 77.54375 392.05Q76.7 390.9875 76.7 388.5656ZM77.77812 388.5656Q77.77812 390.675 78.27812 391.3781Q78.77812 392.08124 79.49687 392.08124Q80.23125 392.08124 80.71562 391.3781Q81.21562 390.675 81.21562 388.5656Q81.21562 386.4406 80.71562 385.7531Q80.23125 385.05 79.48125 385.05Q78.7625 385.05 78.325 385.65936Q77.77812 386.4406 77.77812 388.5656Z" fill-rule="nonzero"/><path fill="#000000" d="M59.66875 303.15L58.621876 303.15L58.621876 296.43124Q58.23125 296.79062 57.60625 297.16562Q56.996876 297.525 56.5125 297.69687L56.5125 296.68124Q57.3875 296.25937 58.04375 295.68124Q58.715626 295.0875 58.996876 294.525L59.66875 294.525L59.66875 303.15ZM62.7 298.91562Q62.7 297.38437 63.0125 296.4625Q63.325 295.525 63.934376 295.025Q64.55937 294.525 65.49687 294.525Q66.18437 294.525 66.7 294.80624Q67.23125 295.0875 67.575 295.61874Q67.91875 296.13437 68.10625 296.88437Q68.29375 297.63437 68.29375 298.91562Q68.29375 300.43124 67.98125 301.35312Q67.68437 302.275 67.05937 302.79062Q66.45 303.29062 65.49687 303.29062Q64.2625 303.29062 63.54375 302.4Q62.7 301.3375 62.7 298.91562ZM63.778126 298.91562Q63.778126 301.025 64.27812 301.72812Q64.77812 302.43124 65.49687 302.43124Q66.23125 302.43124 66.71562 301.72812Q67.21562 301.025 67.21562 298.91562Q67.21562 296.79062 66.71562 296.10312Q66.23125 295.4 65.48125 295.4Q64.7625 295.4 64.325 296.00937Q63.778126 296.79062 63.778126 298.91562ZM69.7 298.91562Q69.7 297.38437 70.0125 296.4625Q70.325 295.525 70.93437 295.025Q71.55937 294.525 72.49687 294.525Q73.18437 294.525 73.7 294.80624Q74.23125 295.0875 74.575 295.61874Q74.91875 296.13437 75.10625 296.88437Q75.29375 297.63437 75.29375 298.91562Q75.29375 300.43124 74.98125 301.35312Q74.68437 302.275 74.05937 302.79062Q73.45 303.29062 72.49687 303.29062Q71.2625 303.29062 70.54375 302.4Q69.7 301.3375 69.7 298.91562ZM70.77812 298.91562Q70.77812 301.025 71.27812 301.72812Q71.77812 302.43124 72.49687 302.43124Q73.23125 302.43124 73.71562 301.72812Q74.21562 301.025 74.21562 298.91562Q74.21562 296.79062 73.71562 296.10312Q73.23125 295.4 72.48125 295.4Q71.7625 295.4 71.325 296.00937Q70.77812 296.79062 70.77812 298.91562ZM76.7 298.91562Q76.7 297.38437 77.0125 296.4625Q77.325 295.525 77.93437 295.025Q78.55937 294.525 79.49687 294.525Q80.18437 294.525 80.7 294.80624Q81.23125 295.0875 81.575 295.61874Q81.91875 296.13437 82.10625 296.88437Q82.29375 297.63437 82.29375 298.91562Q82.29375 300.43124 81.98125 301.35312Q81.68437 302.275 81.05937 302.79062Q80.45 303.29062 79.49687 303.29062Q78.2625 303.29062 77.54375 302.4Q76.7 301.3375 76.7 298.91562ZM77.77812 298.91562Q77.77812 301.025 78.27812 301.72812Q78.77812 302.43124 79.49687 302.43124Q80.23125 302.43124 80.71562 301.72812Q81.21562 301.025 81.21562 298.91562Q81.21562 296.79062 80.71562 296.10312Q80.23125 295.4 79.48125 295.4Q78.7625 295.4 78.325 296.00937Q77.77812 296.79062 77.77812 298.91562Z" fill-rule="nonzero"/><path fill="#000000" d="M61.246876 212.48438L61.246876 213.5L55.559376 213.5Q55.559376 213.125 55.684376 212.76562Q55.903126 212.1875 56.371876 211.625Q56.85625 211.0625 57.7625 210.32812Q59.16875 209.17188 59.653126 208.5Q60.153126 207.82812 60.153126 207.23438Q60.153126 206.60938 59.7 206.1875Q59.246876 205.75 58.528126 205.75Q57.7625 205.75 57.309376 206.20312Q56.85625 206.65625 56.840626 207.46875L55.7625 207.35938Q55.871876 206.14062 56.590626 205.51562Q57.325 204.875 58.559376 204.875Q59.79375 204.875 60.5125 205.5625Q61.23125 206.25 61.23125 207.26562Q61.23125 207.78125 61.0125 208.28125Q60.809376 208.76562 60.309376 209.32812Q59.825 209.875 58.7 210.82812Q57.746876 211.625 57.465626 211.92188Q57.2 212.20312 57.028126 212.48438L61.246876 212.48438ZM62.7 209.26562Q62.7 207.73438 63.0125 206.8125Q63.325 205.875 63.934376 205.375Q64.55937 204.875 65.49687 204.875Q66.18437 204.875 66.7 205.15625Q67.23125 205.4375 67.575 205.96875Q67.91875 206.48438 68.10625 207.23438Q68.29375 207.98438 68.29375 209.26562Q68.29375 210.78125 67.98125 211.70312Q67.68437 212.625 67.05937 213.14062Q66.45 213.64062 65.49687 213.64062Q64.2625 213.64062 63.54375 212.75Q62.7 211.6875 62.7 209.26562ZM63.778126 209.26562Q63.778126 211.375 64.27812 212.07812Q64.77812 212.78125 65.49687 212.78125Q66.23125 212.78125 66.71562 212.07812Q67.21562 211.375 67.21562 209.26562Q67.21562 207.14062 66.71562 206.45312Q66.23125 205.75 65.48125 205.75Q64.7625 205.75 64.325 206.35938Q63.778126 207.14062 63.778126 209.26562ZM69.7 209.26562Q69.7 207.73438 70.0125 206.8125Q70.325 205.875 70.93437 205.375Q71.55937 204.875 72.49687 204.875Q73.18437 204.875 73.7 205.15625Q74.23125 205.4375 74.575 205.96875Q74.91875 206.48438 75.10625 207.23438Q75.29375 207.98438 75.29375 209.26562Q75.29375 210.78125 74.98125 211.70312Q74.68437 212.625 74.05937 213.14062Q73.45 213.64062 72.49687 213.64062Q71.2625 213.64062 70.54375 212.75Q69.7 211.6875 69.7 209.26562ZM70.77812 209.26562Q70.77812 211.375 71.27812 212.07812Q71.77812 212.78125 72.49687 212.78125Q73.23125 212.78125 73.71562 212.07812Q74.21562 211.375 74.21562 209.26562Q74.21562 207.14062 73.71562 206.45312Q73.23125 205.75 72.48125 205.75Q71.7625 205.75 71.325 206.35938Q70.77812 207.14062 70.77812 209.26562ZM76.7 209.26562Q76.7 207.73438 77.0125 206.8125Q77.325 205.875 77.93437 205.375Q78.55937 204.875 79.49687 204.875Q80.18437 204.875 80.7 205.15625Q81.23125 205.4375 81.575 205.96875Q81.91875 206.48438 82.10625 207.23438Q82.29375 207.98438 82.29375 209.26562Q82.29375 210.78125 81.98125 211.70312Q81.68437 212.625 81.05937 213.14062Q80.45 213.64062 79.49687 213.64062Q78.2625 213.64062 77.54375 212.75Q76.7 211.6875 76.7 209.26562ZM77.77812 209.26562Q77.77812 211.375 78.27812 212.07812Q78.77812 212.78125 79.49687 212.78125Q80.23125 212.78125 80.71562 212.07812Q81.21562 211.375 81.21562 209.26562Q81.21562 207.14062 80.71562 206.45312Q80.23125 205.75 79.48125 205.75Q78.7625 205.75 78.325 206.35938Q77.77812 207.14062 77.77812 209.26562Z" fill-rule="nonzero"/><path fill="#000000" d="M55.7 121.58437L56.7625 121.44375Q56.934376 122.33437 57.371876 122.74062Q57.809376 123.13125 58.434376 123.13125Q59.184376 123.13125 59.7 122.61562Q60.215626 122.1 60.215626 121.33437Q60.215626 120.61562 59.73125 120.14687Q59.2625 119.6625 58.528126 119.6625Q58.23125 119.6625 57.778126 119.7875L57.903126 118.85Q58.0125 118.86562 58.075 118.86562Q58.746876 118.86562 59.278126 118.52187Q59.825 118.1625 59.825 117.42812Q59.825 116.85 59.434376 116.475Q59.04375 116.08437 58.41875 116.08437Q57.809376 116.08437 57.3875 116.475Q56.98125 116.86562 56.871876 117.63125L55.809376 117.44375Q55.996876 116.39687 56.684376 115.81875Q57.371876 115.225 58.3875 115.225Q59.090626 115.225 59.684376 115.5375Q60.278126 115.83437 60.590626 116.35Q60.903126 116.86562 60.903126 117.45937Q60.903126 118.00625 60.60625 118.475Q60.309376 118.92812 59.73125 119.19375Q60.48125 119.36562 60.903126 119.92812Q61.325 120.475 61.325 121.31875Q61.325 122.44375 60.496876 123.225Q59.684376 124.00625 58.434376 124.00625Q57.309376 124.00625 56.559376 123.33437Q55.809376 122.64687 55.7 121.58437ZM62.7 119.61562Q62.7 118.08437 63.0125 117.1625Q63.325 116.225 63.934376 115.725Q64.55937 115.225 65.49687 115.225Q66.18437 115.225 66.7 115.50625Q67.23125 115.7875 67.575 116.31875Q67.91875 116.83437 68.10625 117.58437Q68.29375 118.33437 68.29375 119.61562Q68.29375 121.13125 67.98125 122.05312Q67.68437 122.975 67.05937 123.49062Q66.45 123.99062 65.49687 123.99062Q64.2625 123.99062 63.54375 123.1Q62.7 122.0375 62.7 119.61562ZM63.778126 119.61562Q63.778126 121.725 64.27812 122.42812Q64.77812 123.13125 65.49687 123.13125Q66.23125 123.13125 66.71562 122.42812Q67.21562 121.725 67.21562 119.61562Q67.21562 117.49062 66.71562 116.80312Q66.23125 116.1 65.48125 116.1Q64.7625 116.1 64.325 116.70937Q63.778126 117.49062 63.778126 119.61562ZM69.7 119.61562Q69.7 118.08437 70.0125 117.1625Q70.325 116.225 70.93437 115.725Q71.55937 115.225 72.49687 115.225Q73.18437 115.225 73.7 115.50625Q74.23125 115.7875 74.575 116.31875Q74.91875 116.83437 75.10625 117.58437Q75.29375 118.33437 75.29375 119.61562Q75.29375 121.13125 74.98125 122.05312Q74.68437 122.975 74.05937 123.49062Q73.45 123.99062 72.49687 123.99062Q71.2625 123.99062 70.54375 123.1Q69.7 122.0375 69.7 119.61562ZM70.77812 119.61562Q70.77812 121.725 71.27812 122.42812Q71.77812 123.13125 72.49687 123.13125Q73.23125 123.13125 73.71562 122.42812Q74.21562 121.725 74.21562 119.61562Q74.21562 117.49062 73.71562 116.80312Q73.23125 116.1 72.48125 116.1Q71.7625 116.1 71.325 116.70937Q70.77812 117.49062 70.77812 119.61562ZM76.7 119.61562Q76.7 118.08437 77.0125 117.1625Q77.325 116.225 77.93437 115.725Q78.55937 115.225 79.49687 115.225Q80.18437 115.225 80.7 115.50625Q81.23125 115.7875 81.575 116.31875Q81.91875 116.83437 82.10625 117.58437Q82.29375 118.33437 82.29375 119.61562Q82.29375 121.13125 81.98125 122.05312Q81.68437 122.975 81.05937 123.49062Q80.45 123.99062 79.49687 123.99062Q78.2625 123.99062 77.54375 123.1Q76.7 122.0375 76.7 119.61562ZM77.77812 119.61562Q77.77812 121.725 78.27812 122.42812Q78.77812 123.13125 79.49687 123.13125Q80.23125 123.13125 80.71562 122.42812Q81.21562 121.725 81.21562 119.61562Q81.21562 117.49062 80.71562 116.80312Q80.23125 116.1 79.48125 116.1Q78.7625 116.1 78.325 116.70937Q77.77812 117.49062 77.77812 119.61562Z" fill-rule="nonzero"/><path fill="#000000" d="M59.075 34.2L59.075 32.1375L55.35625 32.1375L55.35625 31.16875L59.278126 25.60625L60.1375 25.60625L60.1375 31.16875L61.29375 31.16875L61.29375 32.1375L60.1375 32.1375L60.1375 34.2L59.075 34.2ZM59.075 31.16875L59.075 27.309376L56.3875 31.16875L59.075 31.16875ZM62.7 29.965626Q62.7 28.434376 63.0125 27.5125Q63.325 26.575 63.934376 26.075Q64.55937 25.575 65.49687 25.575Q66.18437 25.575 66.7 25.85625Q67.23125 26.1375 67.575 26.66875Q67.91875 27.184376 68.10625 27.934376Q68.29375 28.684376 68.29375 29.965626Q68.29375 31.48125 67.98125 32.403126Q67.68437 33.325 67.05937 33.840626Q66.45 34.340626 65.49687 34.340626Q64.2625 34.340626 63.54375 33.45Q62.7 32.3875 62.7 29.965626ZM63.778126 29.965626Q63.778126 32.075 64.27812 32.778126Q64.77812 33.48125 65.49687 33.48125Q66.23125 33.48125 66.71562 32.778126Q67.21562 32.075 67.21562 29.965626Q67.21562 27.840626 66.71562 27.153126Q66.23125 26.45 65.48125 26.45Q64.7625 26.45 64.325 27.059376Q63.778126 27.840626 63.778126 29.965626ZM69.7 29.965626Q69.7 28.434376 70.0125 27.5125Q70.325 26.575 70.93437 26.075Q71.55937 25.575 72.49687 25.575Q73.18437 25.575 73.7 25.85625Q74.23125 26.1375 74.575 26.66875Q74.91875 27.184376 75.10625 27.934376Q75.29375 28.684376 75.29375 29.965626Q75.29375 31.48125 74.98125 32.403126Q74.68437 33.325 74.05937 33.840626Q73.45 34.340626 72.49687 34.340626Q71.2625 34.340626 70.54375 33.45Q69.7 32.3875 69.7 29.965626ZM70.77812 29.965626Q70.77812 32.075 71.27812 32.778126Q71.77812 33.48125 72.49687 33.48125Q73.23125 33.48125 73.71562 32.778126Q74.21562 32.075 74.21562 29.965626Q74.21562 27.840626 73.71562 27.153126Q73.23125 26.45 72.48125 26.45Q71.7625 26.45 71.325 27.059376Q70.77812 27.840626 70.77812 29.965626ZM76.7 29.965626Q76.7 28.434376 77.0125 27.5125Q77.325 26.575 77.93437 26.075Q78.55937 25.575 79.49687 25.575Q80.18437 25.575 80.7 25.85625Q81.23125 26.1375 81.575 26.66875Q81.91875 27.184376 82.10625 27.934376Q82.29375 28.684376 82.29375 29.965626Q82.29375 31.48125 81.98125 32.403126Q81.68437 33.325 81.05937 33.840626Q80.45 34.340626 79.49687 34.340626Q78.2625 34.340626 77.54375 33.45Q76.7 32.3875 76.7 29.965626ZM77.77812 29.965626Q77.77812 32.075 78.27812 32.778126Q78.77812 33.48125 79.49687 33.48125Q80.23125 33.48125 80.71562 32.778126Q81.21562 32.075 81.21562 29.965626Q81.21562 27.840626 80.71562 27.153126Q80.23125 26.45 79.48125 26.45Q78.7625 26.45 78.325 27.059376Q77.77812 27.840626 77.77812 29.965626Z" fill-rule="nonzero"/><path fill="#000000" d="M119.64995 405.8L118.60307 405.8L118.60307 399.08124Q118.21245 399.4406 117.58745 399.8156Q116.97807 400.175 116.4937 400.34686L116.4937 399.33124Q117.3687 398.90936 118.02495 398.33124Q118.69682 397.7375 118.97807 397.175L119.64995 397.175L119.64995 405.8ZM122.83745 403.8156L123.85307 403.72186Q123.97807 404.4406 124.33745 404.76874Q124.71245 405.08124 125.27495 405.08124Q125.75932 405.08124 126.1187 404.8625Q126.4937 404.6281 126.72807 404.26874Q126.96245 403.89374 127.1187 403.26874Q127.27495 402.6281 127.27495 401.97186Q127.27495 401.89374 127.27495 401.7531Q126.96245 402.2531 126.41557 402.58124Q125.8687 402.89374 125.22807 402.89374Q124.14995 402.89374 123.41557 402.1281Q122.6812 401.34686 122.6812 400.08124Q122.6812 398.76874 123.44682 397.97186Q124.22807 397.175 125.38432 397.175Q126.21245 397.175 126.89995 397.6281Q127.60307 398.08124 127.96245 398.925Q128.32182 399.7531 128.32182 401.33124Q128.32182 402.97186 127.96245 403.95624Q127.6187 404.925 126.89995 405.4406Q126.19682 405.9406 125.25932 405.9406Q124.2437 405.9406 123.60307 405.39374Q122.96245 404.83124 122.83745 403.8156ZM127.14995 400.01874Q127.14995 399.1125 126.66557 398.58124Q126.19682 398.05 125.50932 398.05Q124.8062 398.05 124.27495 398.6281Q123.75932 399.1906 123.75932 400.1125Q123.75932 400.925 124.25932 401.4406Q124.75932 401.95624 125.47807 401.95624Q126.21245 401.95624 126.6812 401.4406Q127.14995 400.925 127.14995 400.01874ZM129.83745 403.8156L130.85307 403.72186Q130.97807 404.4406 131.33745 404.76874Q131.71245 405.08124 132.27495 405.08124Q132.75932 405.08124 133.1187 404.8625Q133.4937 404.6281 133.72807 404.26874Q133.96245 403.89374 134.1187 403.26874Q134.27495 402.6281 134.27495 401.97186Q134.27495 401.89374 134.27495 401.7531Q133.96245 402.2531 133.41557 402.58124Q132.8687 402.89374 132.22807 402.89374Q131.14995 402.89374 130.41557 402.1281Q129.6812 401.34686 129.6812 400.08124Q129.6812 398.76874 130.44682 397.97186Q131.22807 397.175 132.38432 397.175Q133.21245 397.175 133.89995 397.6281Q134.60307 398.08124 134.96245 398.925Q135.32182 399.7531 135.32182 401.33124Q135.32182 402.97186 134.96245 403.95624Q134.6187 404.925 133.89995 405.4406Q133.19682 405.9406 132.25932 405.9406Q131.2437 405.9406 130.60307 405.39374Q129.96245 404.83124 129.83745 403.8156ZM134.14995 400.01874Q134.14995 399.1125 133.66557 398.58124Q133.19682 398.05 132.50932 398.05Q131.8062 398.05 131.27495 398.6281Q130.75932 399.1906 130.75932 400.1125Q130.75932 400.925 131.25932 401.4406Q131.75932 401.95624 132.47807 401.95624Q133.21245 401.95624 133.6812 401.4406Q134.14995 400.925 134.14995 400.01874ZM136.6812 403.55L137.79057 403.45624Q137.91557 404.26874 138.35307 404.675Q138.8062 405.08124 139.44682 405.08124Q140.19682 405.08124 140.72807 404.5031Q141.25932 403.925 141.25932 402.9875Q141.25932 402.08124 140.7437 401.5656Q140.2437 401.03436 139.41557 401.03436Q138.91557 401.03436 138.4937 401.26874Q138.08745 401.5031 137.85307 401.8625L136.8687 401.7375L137.69682 397.33124L141.97807 397.33124L141.97807 398.33124L138.54057 398.33124L138.08745 400.64374Q138.85307 400.09686 139.69682 400.09686Q140.82182 400.09686 141.58745 400.8781Q142.3687 401.65936 142.3687 402.89374Q142.3687 404.05 141.69682 404.90936Q140.8687 405.9406 139.44682 405.9406Q138.27495 405.9406 137.52495 405.28436Q136.79057 404.6281 136.6812 403.55Z" fill-rule="nonzero"/><path fill="#000000" d="M254.37648 404.78436L254.37648 405.8L248.68898 405.8Q248.68898 405.425 248.81398 405.0656Q249.03273 404.4875 249.50148 403.925Q249.98586 403.3625 250.8921 402.6281Q252.29836 401.47186 252.78273 400.8Q253.28273 400.1281 253.28273 399.53436Q253.28273 398.90936 252.8296 398.4875Q252.37648 398.05 251.65773 398.05Q250.8921 398.05 250.43898 398.5031Q249.98586 398.95624 249.97023 399.76874L248.8921 399.65936Q249.00148 398.4406 249.72023 397.8156Q250.4546 397.175 251.68898 397.175Q252.92336 397.175 253.6421 397.8625Q254.36086 398.55 254.36086 399.5656Q254.36086 400.08124 254.1421 400.58124Q253.93898 401.0656 253.43898 401.6281Q252.9546 402.175 251.8296 403.1281Q250.87648 403.925 250.59523 404.22186Q250.3296 404.5031 250.15773 404.78436L254.37648 404.78436ZM255.8296 401.5656Q255.8296 400.03436 256.1421 399.1125Q256.4546 398.175 257.06396 397.675Q257.68896 397.175 258.62646 397.175Q259.31396 397.175 259.8296 397.45624Q260.36084 397.7375 260.7046 398.26874Q261.04834 398.78436 261.23584 399.53436Q261.42334 400.28436 261.42334 401.5656Q261.42334 403.08124 261.11084 404.0031Q260.81396 404.925 260.18896 405.4406Q259.5796 405.9406 258.62646 405.9406Q257.3921 405.9406 256.67334 405.05Q255.8296 403.9875 255.8296 401.5656ZM256.9077 401.5656Q256.9077 403.675 257.4077 404.3781Q257.9077 405.08124 258.62646 405.08124Q259.36084 405.08124 259.8452 404.3781Q260.3452 403.675 260.3452 401.5656Q260.3452 399.4406 259.8452 398.7531Q259.36084 398.05 258.61084 398.05Q257.8921 398.05 257.4546 398.65936Q256.9077 399.4406 256.9077 401.5656ZM262.8296 401.5656Q262.8296 400.03436 263.1421 399.1125Q263.4546 398.175 264.06396 397.675Q264.68896 397.175 265.62646 397.175Q266.31396 397.175 266.8296 397.45624Q267.36084 397.7375 267.7046 398.26874Q268.04834 398.78436 268.23584 399.53436Q268.42334 400.28436 268.42334 401.5656Q268.42334 403.08124 268.11084 404.0031Q267.81396 404.925 267.18896 405.4406Q266.5796 405.9406 265.62646 405.9406Q264.3921 405.9406 263.67334 405.05Q262.8296 403.9875 262.8296 401.5656ZM263.9077 401.5656Q263.9077 403.675 264.4077 404.3781Q264.9077 405.08124 265.62646 405.08124Q266.36084 405.08124 266.8452 404.3781Q267.3452 403.675 267.3452 401.5656Q267.3452 399.4406 266.8452 398.7531Q266.36084 398.05 265.61084 398.05Q264.8921 398.05 264.4546 398.65936Q263.9077 399.4406 263.9077 401.5656ZM269.8296 401.5656Q269.8296 400.03436 270.1421 399.1125Q270.4546 398.175 271.06396 397.675Q271.68896 397.175 272.62646 397.175Q273.31396 397.175 273.8296 397.45624Q274.36084 397.7375 274.7046 398.26874Q275.04834 398.78436 275.23584 399.53436Q275.42334 400.28436 275.42334 401.5656Q275.42334 403.08124 275.11084 404.0031Q274.81396 404.925 274.18896 405.4406Q273.5796 405.9406 272.62646 405.9406Q271.3921 405.9406 270.67334 405.05Q269.8296 403.9875 269.8296 401.5656ZM270.9077 401.5656Q270.9077 403.675 271.4077 404.3781Q271.9077 405.08124 272.62646 405.08124Q273.36084 405.08124 273.8452 404.3781Q274.3452 403.675 274.3452 401.5656Q274.3452 399.4406 273.8452 398.7531Q273.36084 398.05 272.61084 398.05Q271.8921 398.05 271.4546 398.65936Q270.9077 399.4406 270.9077 401.5656Z" fill-rule="nonzero"/><path fill="#000000" d="M387.5249 404.78436L387.5249 405.8L381.8374 405.8Q381.8374 405.425 381.9624 405.0656Q382.18115 404.4875 382.6499 403.925Q383.13428 403.3625 384.04053 402.6281Q385.44678 401.47186 385.93115 400.8Q386.43115 400.1281 386.43115 399.53436Q386.43115 398.90936 385.97803 398.4875Q385.5249 398.05 384.80615 398.05Q384.04053 398.05 383.5874 398.5031Q383.13428 398.95624 383.11865 399.76874L382.04053 399.65936Q382.1499 398.4406 382.86865 397.8156Q383.60303 397.175 384.8374 397.175Q386.07178 397.175 386.79053 397.8625Q387.50928 398.55 387.50928 399.5656Q387.50928 400.08124 387.29053 400.58124Q387.0874 401.0656 386.5874 401.6281Q386.10303 402.175 384.97803 403.1281Q384.0249 403.925 383.74365 404.22186Q383.47803 404.5031 383.30615 404.78436L387.5249 404.78436ZM388.97803 401.5656Q388.97803 400.03436 389.29053 399.1125Q389.60303 398.175 390.2124 397.675Q390.8374 397.175 391.7749 397.175Q392.4624 397.175 392.97803 397.45624Q393.50928 397.7375 393.85303 398.26874Q394.19678 398.78436 394.38428 399.53436Q394.57178 400.28436 394.57178 401.5656Q394.57178 403.08124 394.25928 404.0031Q393.9624 404.925 393.3374 405.4406Q392.72803 405.9406 391.7749 405.9406Q390.54053 405.9406 389.82178 405.05Q388.97803 403.9875 388.97803 401.5656ZM390.05615 401.5656Q390.05615 403.675 390.55615 404.3781Q391.05615 405.08124 391.7749 405.08124Q392.50928 405.08124 392.99365 404.3781Q393.49365 403.675 393.49365 401.5656Q393.49365 399.4406 392.99365 398.7531Q392.50928 398.05 391.75928 398.05Q391.04053 398.05 390.60303 398.65936Q390.05615 399.4406 390.05615 401.5656ZM395.97803 401.5656Q395.97803 400.03436 396.29053 399.1125Q396.60303 398.175 397.2124 397.675Q397.8374 397.175 398.7749 397.175Q399.4624 397.175 399.97803 397.45624Q400.50928 397.7375 400.85303 398.26874Q401.19678 398.78436 401.38428 399.53436Q401.57178 400.28436 401.57178 401.5656Q401.57178 403.08124 401.25928 404.0031Q400.9624 404.925 400.3374 405.4406Q399.72803 405.9406 398.7749 405.9406Q397.54053 405.9406 396.82178 405.05Q395.97803 403.9875 395.97803 401.5656ZM397.05615 401.5656Q397.05615 403.675 397.55615 404.3781Q398.05615 405.08124 398.7749 405.08124Q399.50928 405.08124 399.99365 404.3781Q400.49365 403.675 400.49365 401.5656Q400.49365 399.4406 399.99365 398.7531Q399.50928 398.05 398.75928 398.05Q398.04053 398.05 397.60303 398.65936Q397.05615 399.4406 397.05615 401.5656ZM402.97803 403.55L404.0874 403.45624Q404.2124 404.26874 404.6499 404.675Q405.10303 405.08124 405.74365 405.08124Q406.49365 405.08124 407.0249 404.5031Q407.55615 403.925 407.55615 402.9875Q407.55615 402.08124 407.04053 401.5656Q406.54053 401.03436 405.7124 401.03436Q405.2124 401.03436 404.79053 401.26874Q404.38428 401.5031 404.1499 401.8625L403.16553 401.7375L403.99365 397.33124L408.2749 397.33124L408.2749 398.33124L404.8374 398.33124L404.38428 400.64374Q405.1499 400.09686 405.99365 400.09686Q407.11865 400.09686 407.88428 400.8781Q408.66553 401.65936 408.66553 402.89374Q408.66553 404.05 407.99365 404.90936Q407.16553 405.9406 405.74365 405.9406Q404.57178 405.9406 403.82178 405.28436Q403.0874 404.6281 402.97803 403.55Z" fill-rule="nonzero"/><path fill="#000000" d="M520.6733 404.78436L520.6733 405.8L514.9858 405.8Q514.9858 405.425 515.1108 405.0656Q515.3295 404.4875 515.7983 403.925Q516.28265 403.3625 517.1889 402.6281Q518.59515 401.47186 519.0795 400.8Q519.5795 400.1281 519.5795 399.53436Q519.5795 398.90936 519.1264 398.4875Q518.6733 398.05 517.9545 398.05Q517.1889 398.05 516.7358 398.5031Q516.28265 398.95624 516.267 399.76874L515.1889 399.65936Q515.2983 398.4406 516.017 397.8156Q516.7514 397.175 517.9858 397.175Q519.22015 397.175 519.9389 397.8625Q520.65765 398.55 520.65765 399.5656Q520.65765 400.08124 520.4389 400.58124Q520.2358 401.0656 519.7358 401.6281Q519.2514 402.175 518.1264 403.1281Q517.1733 403.925 516.892 404.22186Q516.6264 404.5031 516.4545 404.78436L520.6733 404.78436ZM522.1264 401.5656Q522.1264 400.03436 522.4389 399.1125Q522.7514 398.175 523.3608 397.675Q523.9858 397.175 524.9233 397.175Q525.6108 397.175 526.1264 397.45624Q526.65765 397.7375 527.0014 398.26874Q527.34515 398.78436 527.53265 399.53436Q527.72015 400.28436 527.72015 401.5656Q527.72015 403.08124 527.40765 404.0031Q527.1108 404.925 526.4858 405.4406Q525.8764 405.9406 524.9233 405.9406Q523.6889 405.9406 522.97015 405.05Q522.1264 403.9875 522.1264 401.5656ZM523.2045 401.5656Q523.2045 403.675 523.7045 404.3781Q524.2045 405.08124 524.9233 405.08124Q525.65765 405.08124 526.142 404.3781Q526.642 403.675 526.642 401.5656Q526.642 399.4406 526.142 398.7531Q525.65765 398.05 524.90765 398.05Q524.1889 398.05 523.7514 398.65936Q523.2045 399.4406 523.2045 401.5656ZM533.09515 405.8L532.0483 405.8L532.0483 399.08124Q531.65765 399.4406 531.03265 399.8156Q530.4233 400.175 529.9389 400.34686L529.9389 399.33124Q530.8139 398.90936 531.47015 398.33124Q532.142 397.7375 532.4233 397.175L533.09515 397.175L533.09515 405.8ZM536.1264 401.5656Q536.1264 400.03436 536.4389 399.1125Q536.7514 398.175 537.3608 397.675Q537.9858 397.175 538.9233 397.175Q539.6108 397.175 540.1264 397.45624Q540.65765 397.7375 541.0014 398.26874Q541.34515 398.78436 541.53265 399.53436Q541.72015 400.28436 541.72015 401.5656Q541.72015 403.08124 541.40765 404.0031Q541.1108 404.925 540.4858 405.4406Q539.8764 405.9406 538.9233 405.9406Q537.6889 405.9406 536.97015 405.05Q536.1264 403.9875 536.1264 401.5656ZM537.2045 401.5656Q537.2045 403.675 537.7045 404.3781Q538.2045 405.08124 538.9233 405.08124Q539.65765 405.08124 540.142 404.3781Q540.642 403.675 540.642 401.5656Q540.642 399.4406 540.142 398.7531Q539.65765 398.05 538.90765 398.05Q538.1889 398.05 537.7514 398.65936Q537.2045 399.4406 537.2045 401.5656Z" fill-rule="nonzero"/><path fill="#000000" d="M653.8217 404.78436L653.8217 405.8L648.1342 405.8Q648.1342 405.425 648.2592 405.0656Q648.47797 404.4875 648.9467 403.925Q649.4311 403.3625 650.33734 402.6281Q651.7436 401.47186 652.22797 400.8Q652.72797 400.1281 652.72797 399.53436Q652.72797 398.90936 652.27484 398.4875Q651.8217 398.05 651.10297 398.05Q650.33734 398.05 649.8842 398.5031Q649.4311 398.95624 649.41547 399.76874L648.33734 399.65936Q648.4467 398.4406 649.16547 397.8156Q649.89984 397.175 651.1342 397.175Q652.3686 397.175 653.08734 397.8625Q653.8061 398.55 653.8061 399.5656Q653.8061 400.08124 653.58734 400.58124Q653.3842 401.0656 652.8842 401.6281Q652.39984 402.175 651.27484 403.1281Q650.3217 403.925 650.04047 404.22186Q649.77484 404.5031 649.60297 404.78436L653.8217 404.78436ZM655.27484 401.5656Q655.27484 400.03436 655.58734 399.1125Q655.89984 398.175 656.5092 397.675Q657.1342 397.175 658.0717 397.175Q658.7592 397.175 659.27484 397.45624Q659.8061 397.7375 660.14984 398.26874Q660.4936 398.78436 660.6811 399.53436Q660.8686 400.28436 660.8686 401.5656Q660.8686 403.08124 660.5561 404.0031Q660.2592 404.925 659.6342 405.4406Q659.02484 405.9406 658.0717 405.9406Q656.83734 405.9406 656.1186 405.05Q655.27484 403.9875 655.27484 401.5656ZM656.35297 401.5656Q656.35297 403.675 656.85297 404.3781Q657.35297 405.08124 658.0717 405.08124Q658.8061 405.08124 659.29047 404.3781Q659.79047 403.675 659.79047 401.5656Q659.79047 399.4406 659.29047 398.7531Q658.8061 398.05 658.0561 398.05Q657.33734 398.05 656.89984 398.65936Q656.35297 399.4406 656.35297 401.5656ZM666.2436 405.8L665.1967 405.8L665.1967 399.08124Q664.8061 399.4406 664.1811 399.8156Q663.5717 400.175 663.08734 400.34686L663.08734 399.33124Q663.96234 398.90936 664.6186 398.33124Q665.29047 397.7375 665.5717 397.175L666.2436 397.175L666.2436 405.8ZM669.27484 403.55L670.3842 403.45624Q670.5092 404.26874 670.9467 404.675Q671.39984 405.08124 672.04047 405.08124Q672.79047 405.08124 673.3217 404.5031Q673.85297 403.925 673.85297 402.9875Q673.85297 402.08124 673.33734 401.5656Q672.83734 401.03436 672.0092 401.03436Q671.5092 401.03436 671.08734 401.26874Q670.6811 401.5031 670.4467 401.8625L669.46234 401.7375L670.29047 397.33124L674.5717 397.33124L674.5717 398.33124L671.1342 398.33124L670.6811 400.64374Q671.4467 400.09686 672.29047 400.09686Q673.41547 400.09686 674.1811 400.8781Q674.96234 401.65936 674.96234 402.89374Q674.96234 404.05 674.29047 404.90936Q673.46234 405.9406 672.04047 405.9406Q670.8686 405.9406 670.1186 405.28436Q669.3842 404.6281 669.27484 403.55Z" fill-rule="nonzero"/><path fill="#000000" d="M786.9701 404.78436L786.9701 405.8L781.2826 405.8Q781.2826 405.425 781.4076 405.0656Q781.62634 404.4875 782.0951 403.925Q782.57947 403.3625 783.4857 402.6281Q784.89197 401.47186 785.37634 400.8Q785.87634 400.1281 785.87634 399.53436Q785.87634 398.90936 785.4232 398.4875Q784.9701 398.05 784.25134 398.05Q783.4857 398.05 783.0326 398.5031Q782.57947 398.95624 782.56384 399.76874L781.4857 399.65936Q781.5951 398.4406 782.31384 397.8156Q783.0482 397.175 784.2826 397.175Q785.51697 397.175 786.2357 397.8625Q786.95447 398.55 786.95447 399.5656Q786.95447 400.08124 786.7357 400.58124Q786.5326 401.0656 786.0326 401.6281Q785.5482 402.175 784.4232 403.1281Q783.4701 403.925 783.18884 404.22186Q782.9232 404.5031 782.75134 404.78436L786.9701 404.78436ZM788.4232 401.5656Q788.4232 400.03436 788.7357 399.1125Q789.0482 398.175 789.6576 397.675Q790.2826 397.175 791.2201 397.175Q791.9076 397.175 792.4232 397.45624Q792.95447 397.7375 793.2982 398.26874Q793.64197 398.78436 793.82947 399.53436Q794.01697 400.28436 794.01697 401.5656Q794.01697 403.08124 793.70447 404.0031Q793.4076 404.925 792.7826 405.4406Q792.1732 405.9406 791.2201 405.9406Q789.9857 405.9406 789.26697 405.05Q788.4232 403.9875 788.4232 401.5656ZM789.50134 401.5656Q789.50134 403.675 790.00134 404.3781Q790.50134 405.08124 791.2201 405.08124Q791.95447 405.08124 792.43884 404.3781Q792.93884 403.675 792.93884 401.5656Q792.93884 399.4406 792.43884 398.7531Q791.95447 398.05 791.20447 398.05Q790.4857 398.05 790.0482 398.65936Q789.50134 399.4406 789.50134 401.5656ZM800.9701 404.78436L800.9701 405.8L795.2826 405.8Q795.2826 405.425 795.4076 405.0656Q795.62634 404.4875 796.0951 403.925Q796.57947 403.3625 797.4857 402.6281Q798.89197 401.47186 799.37634 400.8Q799.87634 400.1281 799.87634 399.53436Q799.87634 398.90936 799.4232 398.4875Q798.9701 398.05 798.25134 398.05Q797.4857 398.05 797.0326 398.5031Q796.57947 398.95624 796.56384 399.76874L795.4857 399.65936Q795.5951 398.4406 796.31384 397.8156Q797.0482 397.175 798.2826 397.175Q799.51697 397.175 800.2357 397.8625Q800.95447 398.55 800.95447 399.5656Q800.95447 400.08124 800.7357 400.58124Q800.5326 401.0656 800.0326 401.6281Q799.5482 402.175 798.4232 403.1281Q797.4701 403.925 797.18884 404.22186Q796.9232 404.5031 796.75134 404.78436L800.9701 404.78436ZM802.4232 401.5656Q802.4232 400.03436 802.7357 399.1125Q803.0482 398.175 803.6576 397.675Q804.2826 397.175 805.2201 397.175Q805.9076 397.175 806.4232 397.45624Q806.95447 397.7375 807.2982 398.26874Q807.64197 398.78436 807.82947 399.53436Q808.01697 400.28436 808.01697 401.5656Q808.01697 403.08124 807.70447 404.0031Q807.4076 404.925 806.7826 405.4406Q806.1732 405.9406 805.2201 405.9406Q803.9857 405.9406 803.26697 405.05Q802.4232 403.9875 802.4232 401.5656ZM803.50134 401.5656Q803.50134 403.675 804.00134 404.3781Q804.50134 405.08124 805.2201 405.08124Q805.95447 405.08124 806.43884 404.3781Q806.93884 403.675 806.93884 401.5656Q806.93884 399.4406 806.43884 398.7531Q805.95447 398.05 805.20447 398.05Q804.4857 398.05 804.0482 398.65936Q803.50134 399.4406 803.50134 401.5656Z" fill-rule="nonzero"/></svg>